{"glyphs":{"0":{"ha":965,"x_min":70,"x_max":1008,"o":"m 1008 370 q 858 26 1008 162 q 503 -104 713 -104 q 311 -63 387 -104 q 155 63 259 -35 q 70 275 70 142 q 221 627 70 488 q 583 761 368 761 q 865 652 762 761 q 967 527 941 572 q 1008 370 1008 457 m 920 452 q 899 563 920 509 q 771 703 863 655 q 583 744 691 744 q 233 615 374 744 q 87 275 87 482 q 186 56 87 134 q 422 -15 278 -15 q 776 110 637 -15 q 920 452 920 239 m 696 528 q 602 143 696 302 q 435 24 531 24 q 316 132 339 24 q 310 203 310 160 q 346 450 310 329 q 466 662 389 595 q 572 705 515 705 q 696 528 696 705 m 644 615 q 551 574 599 615 q 414 290 454 491 q 397 122 397 203 q 402 64 397 97 q 409 44 406 43 q 435 41 421 41 q 591 157 524 41 q 662 353 637 237 q 680 528 680 441 q 666 615 680 588 l 644 615 z "},"1":{"ha":673,"x_min":-6,"x_max":651,"o":"m 651 669 q 598 460 616 541 l 509 67 q 573 57 530 62 l 643 -33 l 633 -81 l 84 -81 l -6 -9 l 8 57 q 118 68 98 63 q 192 136 180 84 l 271 488 l 210 488 l 120 562 l 138 640 l 163 640 q 450 760 345 640 l 582 760 l 651 669 m 561 743 l 458 743 q 163 623 347 623 l 151 623 l 141 578 l 309 578 l 208 132 q 161 66 197 85 q 81 47 138 54 q 22 41 33 41 l 15 9 l 546 9 l 553 41 q 467 56 487 48 q 416 117 416 73 q 422 156 416 131 q 561 743 465 356 z "},"2":{"ha":861,"x_min":-12,"x_max":901,"o":"m 901 459 q 787 273 901 335 q 534 191 711 231 l 766 191 l 840 102 l 798 -81 l 78 -81 l -12 -9 l 21 140 q 307 304 119 218 q 414 355 382 338 q 510 422 477 388 q 564 562 564 478 q 558 607 564 578 q 530 608 553 608 q 425 584 484 608 q 454 460 454 500 q 420 379 454 409 q 336 349 387 349 q 262 376 291 349 q 178 450 254 382 q 139 544 139 484 q 268 713 139 653 q 491 761 369 761 q 787 664 706 761 l 860 578 q 901 459 901 529 m 814 541 q 700 707 814 655 q 491 744 618 744 q 350 726 416 744 q 178 614 225 693 q 156 544 156 578 q 183 468 156 497 q 256 439 210 439 q 335 467 304 439 q 366 541 366 494 q 334 670 366 581 q 452 697 399 697 q 581 562 581 697 q 446 353 581 429 q 296 280 401 328 q 147 205 198 235 q 35 131 77 163 l 9 9 l 712 9 l 749 175 l 186 175 l 193 200 q 382 264 269 237 q 577 313 437 277 q 739 385 682 340 q 814 541 814 442 z "},"3":{"ha":859,"x_min":-14,"x_max":905,"o":"m 905 471 q 839 323 905 390 q 699 237 783 267 q 724 212 706 231 l 800 123 q 846 5 846 68 q 814 -130 846 -77 q 701 -229 783 -182 q 374 -294 588 -294 q 180 -250 264 -294 q 128 -214 151 -235 l 41 -138 q -14 -9 -14 -89 q 19 79 -14 44 q 105 114 52 114 q 207 66 171 114 q 279 -18 222 49 q 302 -85 302 -45 q 295 -138 302 -109 q 406 -98 355 -135 q 481 -4 458 -60 q 498 113 498 35 q 493 152 498 136 q 453 155 480 155 l 368 155 l 278 228 l 300 324 l 367 324 q 523 398 469 324 q 571 570 571 464 q 568 602 571 587 q 543 607 555 607 q 427 578 481 607 q 454 457 454 492 q 422 377 454 406 q 339 349 391 349 q 267 374 296 349 q 180 451 252 388 q 142 544 142 485 q 286 712 142 650 q 519 761 399 761 q 771 689 690 761 q 846 602 795 667 q 905 471 905 524 m 817 552 q 714 707 817 657 q 519 744 637 744 q 296 697 408 744 q 159 544 159 639 q 186 468 159 498 q 259 439 214 439 q 337 465 307 439 q 366 538 366 491 q 337 663 366 572 q 463 697 399 697 q 587 570 587 697 q 535 387 587 456 q 367 307 476 307 l 314 307 l 299 245 l 373 245 q 514 113 514 245 q 503 7 514 43 q 448 -81 489 -36 q 279 -159 379 -159 q 182 -131 229 -159 q 214 -4 214 -50 q 184 70 214 43 q 105 97 153 97 q 31 67 59 97 q 3 -9 3 37 q 106 -162 3 -109 q 295 -204 188 -204 q 640 -126 522 -204 q 733 -33 707 -81 q 758 87 758 13 q 521 272 758 265 l 527 298 q 754 408 677 329 q 817 552 817 473 z "},"4":{"ha":893,"x_min":-16,"x_max":904,"o":"m 882 66 l 850 -75 l 736 -75 l 688 -299 l 469 -299 l 379 -227 l 410 -75 l 74 -75 l -16 -2 l 16 142 l 630 757 l 835 757 l 904 667 l 789 155 l 812 156 l 882 66 m 791 139 l 677 139 l 814 740 l 637 740 l 31 134 l 5 16 l 449 16 l 400 -210 l 602 -210 l 650 16 l 764 16 l 791 139 m 584 610 l 476 139 l 113 139 l 584 610 m 510 361 l 303 156 l 463 156 l 510 361 z "},"5":{"ha":825,"x_min":-21,"x_max":922,"o":"m 295 -92 q 288 -143 295 -104 q 429 -76 383 -134 q 488 136 488 -1 q 474 216 488 181 q 431 221 454 221 q 239 125 330 221 l 190 143 l 100 219 l 274 739 l 852 739 l 922 649 l 880 463 l 372 463 l 346 380 q 444 393 395 393 q 699 294 616 393 l 774 205 q 831 57 831 138 q 800 -91 831 -30 q 699 -208 770 -151 q 378 -297 585 -297 q 181 -252 271 -297 q 126 -217 163 -243 l 35 -138 q -21 -16 -21 -89 q 12 73 -21 38 q 98 107 45 107 q 197 66 161 107 l 274 -26 q 295 -92 295 -52 m 105 -163 q 299 -208 194 -208 q 614 -119 502 -208 q 713 -5 684 -64 q 743 138 743 54 q 644 321 743 253 q 444 376 565 376 q 205 296 336 376 l 286 553 l 793 553 l 831 722 l 286 722 l 121 230 l 157 216 q 351 311 250 311 q 468 260 427 311 q 505 136 505 214 q 441 -87 505 -6 q 275 -162 382 -162 q 174 -146 224 -162 q 207 -10 207 -54 q 176 63 207 36 q 98 90 145 90 q 23 60 52 90 q -5 -16 -5 31 q 105 -163 -5 -109 z "},"6":{"ha":892,"x_min":71,"x_max":930,"o":"m 930 294 q 791 3 930 119 q 485 -105 661 -105 q 251 -22 366 -105 l 166 53 q 71 291 71 138 q 298 787 71 590 q 812 998 500 962 l 884 907 l 888 840 l 816 828 q 519 618 618 775 q 616 629 565 629 q 802 544 732 629 l 878 453 q 930 294 930 391 m 842 376 q 779 545 842 477 q 616 612 717 612 q 343 504 469 612 q 406 657 375 595 q 734 918 505 857 l 800 929 l 797 979 q 309 773 505 943 q 87 291 87 582 q 176 66 87 149 q 406 -16 262 -16 q 706 92 578 -16 q 842 376 842 205 m 611 373 q 570 157 611 258 q 418 24 516 24 q 326 96 356 24 q 304 222 304 149 q 334 455 304 323 q 490 536 404 536 q 583 482 551 536 q 611 373 611 437 m 595 373 q 584 442 595 412 q 570 446 576 446 q 421 370 487 446 q 393 141 393 241 q 406 42 393 88 q 418 41 413 41 q 557 170 507 41 q 595 373 595 268 z "},"7":{"ha":781,"x_min":66,"x_max":912,"o":"m 912 649 l 892 562 l 276 -293 l 163 -293 l 66 -220 l 576 467 l 462 467 q 309 452 342 467 q 218 315 266 433 l 170 315 l 79 388 l 159 739 l 843 739 l 912 649 m 822 722 l 172 722 l 100 405 l 132 405 q 226 541 180 521 q 382 557 261 557 l 667 557 l 101 -203 l 193 -203 l 805 647 l 822 722 z "},"8":{"ha":931,"x_min":61,"x_max":996,"o":"m 996 703 q 800 472 996 547 q 836 436 819 456 q 908 351 857 411 q 953 225 953 298 q 792 -31 953 62 q 486 -106 659 -106 q 267 -60 359 -106 q 210 -22 243 -48 q 122 56 188 -5 q 61 200 61 112 q 308 468 61 399 l 260 511 q 180 690 180 583 q 328 925 180 838 q 612 999 454 999 q 879 905 800 999 l 958 812 q 996 703 996 767 m 908 784 q 804 940 908 886 q 612 982 722 982 q 340 913 460 982 q 197 690 197 831 q 245 550 197 607 q 366 465 284 505 q 170 386 235 434 q 77 200 77 319 q 193 28 77 85 q 407 -17 283 -17 q 708 58 577 -17 q 865 307 865 149 q 793 456 865 395 q 644 537 744 498 l 668 544 q 908 784 908 612 m 705 796 q 629 549 705 669 l 623 553 q 475 639 553 593 q 412 753 412 685 q 462 886 412 830 q 587 942 511 942 q 677 897 646 942 q 705 796 705 858 m 647 229 q 587 82 647 140 q 437 24 528 24 q 321 75 363 24 q 284 198 284 121 q 382 453 284 353 q 570 353 488 403 q 647 229 647 307 m 688 796 q 681 851 688 827 q 667 852 671 852 q 548 798 595 852 q 500 672 500 745 q 503 641 500 652 q 624 572 536 621 q 688 796 688 677 m 630 229 q 616 282 630 257 q 555 315 595 294 l 464 361 q 397 248 422 319 q 372 117 372 180 q 380 52 372 81 q 437 41 408 41 q 575 94 521 41 q 630 229 630 146 z "},"9":{"ha":892,"x_min":77,"x_max":937,"o":"m 125 -225 l 121 -141 l 201 -128 q 368 -71 317 -96 q 491 37 445 -32 q 401 27 448 27 q 252 81 313 27 l 155 166 q 77 362 77 235 q 221 654 77 538 q 529 761 353 761 q 793 650 701 761 l 873 556 q 937 353 937 480 q 711 -131 937 61 q 213 -297 572 -249 l 125 -225 m 455 487 q 414 280 414 388 q 422 210 414 242 q 444 209 430 209 q 587 279 527 209 q 615 506 615 410 q 599 610 615 564 q 455 487 507 610 m 626 -43 q 848 435 848 146 q 760 663 848 579 q 529 744 674 744 q 231 641 359 744 q 94 362 94 530 q 156 189 94 258 q 322 117 220 117 q 593 221 458 117 q 453 -38 528 21 q 204 -144 378 -98 l 138 -156 l 141 -206 q 425 -142 295 -184 q 626 -43 562 -97 m 632 506 q 603 271 632 408 q 444 192 536 192 q 351 249 382 192 q 326 361 326 295 q 368 575 326 475 q 521 704 423 704 q 611 631 582 704 q 632 506 632 578 z "}," ":{"ha":346,"x_min":0,"x_max":0,"o":""},"!":{"ha":519,"x_min":81,"x_max":590,"o":"m 590 803 q 530 620 590 752 q 471 492 513 585 q 366 232 429 399 l 315 232 l 226 305 q 235 593 235 512 l 234 747 q 242 860 233 824 q 300 955 256 920 q 406 990 345 990 q 494 954 463 990 l 573 859 q 590 803 590 838 m 425 25 q 387 -66 425 -28 q 296 -104 349 -104 q 208 -68 249 -104 l 127 2 q 81 105 81 42 q 121 203 81 163 q 218 244 161 244 q 322 195 281 244 l 393 110 q 425 25 425 73 m 502 884 q 474 949 502 924 q 406 973 447 973 q 310 941 351 973 q 258 855 270 909 q 250 747 250 816 l 251 593 q 243 322 252 490 l 280 322 q 383 576 343 490 q 454 730 408 627 q 502 884 502 837 m 338 105 q 303 192 338 155 q 218 228 268 228 q 132 192 168 228 q 97 105 97 156 q 132 19 97 54 q 218 -16 168 -16 q 303 19 268 -16 q 338 105 338 55 z "},"\"":{"ha":705,"x_min":205,"x_max":859,"o":"m 520 873 q 510 823 520 851 q 414 626 498 791 q 345 477 379 559 l 300 477 l 212 550 l 212 558 q 208 725 212 614 q 205 891 205 836 q 243 1001 205 956 q 346 1046 282 1046 q 430 1010 401 1046 q 506 920 447 991 q 520 873 520 903 m 433 954 q 406 1010 433 989 q 346 1029 381 1029 q 256 988 290 1029 q 222 891 222 948 q 224 729 222 825 l 229 567 l 259 567 q 326 711 296 652 q 422 906 412 879 q 433 954 433 934 m 859 873 q 848 823 859 853 q 752 626 836 788 q 683 477 718 561 l 639 477 l 551 550 l 551 558 q 547 725 551 614 q 544 891 544 836 q 581 1000 544 956 q 684 1046 621 1046 q 769 1010 739 1046 q 845 920 786 991 q 859 873 859 903 m 771 954 q 745 1010 771 989 q 684 1029 721 1029 q 593 987 629 1029 q 561 891 561 948 q 564 729 561 837 q 567 567 567 621 l 598 567 q 665 711 631 646 q 761 907 749 873 q 771 954 771 935 z "},"#":{"ha":968,"x_min":115,"x_max":978,"o":"m 978 426 l 799 426 l 767 342 l 843 342 l 914 252 l 914 143 l 692 143 l 605 -81 l 506 -81 l 414 -9 l 472 143 l 439 143 l 353 -81 l 254 -81 l 162 -9 l 220 143 l 203 143 l 115 216 l 115 342 l 296 342 l 329 426 l 267 426 l 179 499 l 179 625 l 405 625 l 494 856 l 610 856 l 678 766 l 624 625 l 656 625 l 745 856 l 863 856 l 930 766 l 874 625 l 907 625 l 978 534 l 978 426 m 890 516 l 890 608 l 749 608 l 838 839 l 757 839 l 668 608 l 497 608 l 586 839 l 505 839 l 416 608 l 195 608 l 195 516 l 381 516 l 308 325 l 132 325 l 132 233 l 273 233 l 186 9 l 268 9 l 354 233 l 525 233 l 439 9 l 519 9 l 606 233 l 826 233 l 826 325 l 641 325 l 713 516 l 890 516 m 635 517 l 560 323 l 389 323 l 462 517 l 635 517 m 583 427 l 547 427 l 516 340 l 549 340 l 583 427 z "},"$":{"ha":882,"x_min":35,"x_max":941,"o":"m 404 596 q 404 574 404 583 q 453 563 426 567 l 488 720 q 404 596 404 679 m 561 265 l 519 73 q 623 205 623 112 q 618 254 623 235 q 561 265 591 262 m 694 881 q 832 807 787 859 q 906 720 840 798 q 941 617 941 677 q 915 538 941 569 q 839 506 886 506 q 762 534 793 506 q 671 614 735 557 q 646 665 652 635 l 619 534 q 759 452 711 505 q 836 361 779 431 q 882 229 882 306 q 809 41 882 120 q 633 -65 744 -31 q 484 -94 560 -88 l 442 -284 l 376 -284 l 287 -212 l 315 -80 q 184 -14 237 -60 q 95 64 164 2 q 35 199 35 119 q 65 288 35 254 q 149 322 95 322 q 241 287 212 322 l 319 195 q 342 124 342 168 q 330 54 342 97 q 343 53 334 54 l 395 295 q 296 351 345 313 q 210 427 283 361 q 144 577 144 486 q 237 780 144 690 q 525 894 341 880 l 557 1042 l 640 1042 l 709 952 l 694 881 m 530 839 l 466 544 q 315 677 315 562 q 530 839 315 821 m 481 355 q 640 212 640 338 q 406 35 640 58 l 475 356 l 481 355 m 427 361 l 357 36 l 350 36 q 223 81 294 36 q 254 205 254 165 q 149 305 254 305 q 52 199 52 305 q 151 43 52 99 q 338 -4 236 -4 l 349 -4 l 307 -195 l 356 -195 l 397 -4 q 662 77 555 7 q 793 311 793 162 q 514 540 793 496 l 578 838 q 689 809 642 834 q 660 692 660 717 q 760 596 660 596 q 829 626 804 596 q 854 699 854 654 q 587 878 854 864 l 619 1025 l 571 1025 l 538 878 q 249 768 350 865 q 161 577 161 683 q 427 361 161 395 z "},"%":{"ha":1211,"x_min":84,"x_max":1253,"o":"m 705 829 q 748 695 748 775 q 745 655 748 674 l 1065 977 l 1194 977 l 1253 887 l 852 484 q 915 490 880 490 q 1096 416 1032 490 q 1181 315 1124 382 l 1181 315 q 1176 321 1180 316 l 705 829 m 660 777 q 598 928 660 871 q 443 982 538 982 q 234 901 319 982 q 146 696 146 819 q 208 545 146 602 q 363 492 267 492 q 574 572 488 492 q 660 777 660 653 m 1153 960 l 1072 960 l 125 9 l 204 9 l 1153 960 m 1132 268 q 1070 419 1132 363 q 915 473 1010 473 q 706 393 791 473 q 618 188 618 311 q 680 37 618 92 q 836 -18 739 -18 q 1045 64 959 -18 q 1132 268 1132 145 m 1176 321 q 1219 186 1219 274 q 1131 -23 1219 60 q 916 -107 1042 -107 q 755 -51 817 -107 q 668 25 726 -26 q 602 188 602 83 q 607 239 602 210 l 287 -81 l 184 -81 l 84 -9 l 505 414 q 467 402 481 406 q 444 401 455 401 q 283 458 345 401 q 197 534 255 482 q 130 696 130 593 q 222 912 130 825 q 443 999 313 999 q 625 924 560 999 q 709 823 652 891 l 709 823 q 705 829 708 825 l 1176 321 m 507 827 q 434 951 507 951 q 324 827 360 951 q 300 642 300 742 q 374 523 300 523 q 482 645 447 523 q 507 827 507 729 m 979 318 q 906 442 979 442 q 796 318 832 442 q 771 134 771 231 q 846 14 771 14 q 954 136 918 14 q 979 318 979 220 m 490 827 q 471 667 490 745 q 388 541 444 554 q 387 561 387 551 q 411 739 387 654 q 489 855 439 837 q 490 827 490 842 m 962 318 q 943 159 962 238 q 860 33 915 45 q 859 52 859 42 q 883 230 859 145 q 961 347 911 328 q 962 318 962 334 m 625 924 m 1096 416 z "},"&":{"ha":1100,"x_min":14,"x_max":1218,"o":"m 827 618 l 1149 618 l 1218 528 l 1207 480 q 1053 427 1104 470 q 962 319 1031 409 q 831 162 921 266 q 867 107 850 131 q 882 96 873 102 q 1049 59 929 66 l 1119 -31 l 1107 -81 l 718 -81 l 634 -9 q 629 -1 632 -6 q 349 -105 489 -105 q 169 -48 237 -105 q 76 35 138 -22 q 14 184 14 91 q 109 402 14 313 q 319 525 179 468 q 258 710 258 633 q 360 921 258 839 q 583 997 454 997 q 764 933 705 997 q 842 841 780 916 q 873 750 873 803 q 839 635 873 687 q 827 618 838 632 m 739 538 q 641 479 710 519 q 727 330 673 420 l 735 317 q 841 479 804 397 l 836 480 l 753 549 q 739 538 749 545 m 1128 602 l 773 602 l 766 568 q 869 511 869 545 q 809 388 869 474 q 721 277 764 323 l 640 407 q 550 564 601 471 q 785 831 785 686 q 720 948 785 909 q 583 980 666 980 q 370 909 459 980 q 275 710 275 831 q 342 517 275 635 q 130 399 199 458 q 30 184 30 311 q 103 33 30 87 q 269 -16 168 -16 q 435 20 357 -16 q 578 113 495 47 q 616 50 604 68 l 643 9 l 1021 9 l 1029 43 q 873 81 920 52 q 740 245 824 112 q 924 467 784 289 q 1009 543 967 522 q 1121 570 1046 562 l 1128 602 m 695 826 q 543 598 695 682 l 535 594 q 467 794 467 731 q 503 892 467 852 q 598 932 540 932 q 670 902 644 932 q 695 826 695 873 m 562 142 q 408 87 482 87 q 283 136 330 87 q 236 262 236 184 q 355 490 236 393 q 454 321 389 429 l 562 142 m 679 826 q 677 842 679 833 q 589 805 623 842 q 555 713 555 768 q 570 636 555 678 q 679 826 679 720 m 538 147 l 439 313 q 406 371 427 334 q 324 180 324 290 q 334 120 324 149 q 408 104 367 104 q 538 147 475 104 z "},"'":{"ha":374,"x_min":201,"x_max":517,"o":"m 517 873 q 507 823 517 851 q 410 626 496 792 q 341 477 376 560 l 296 477 l 208 550 l 208 558 q 205 725 208 614 q 201 891 201 836 q 240 1001 201 956 q 342 1046 279 1046 q 427 1010 397 1046 q 503 920 444 991 q 517 873 517 903 m 429 954 q 402 1010 429 989 q 342 1029 378 1029 q 252 988 286 1029 q 218 891 218 948 q 221 729 218 825 l 225 567 l 256 567 q 323 711 289 646 q 419 907 409 878 q 429 954 429 933 z "},"(":{"ha":616,"x_min":62,"x_max":798,"o":"m 798 958 l 784 897 q 482 613 606 865 q 364 78 364 374 q 399 -127 364 -50 q 475 -156 432 -148 l 545 -244 l 532 -304 q 295 -201 391 -285 q 201 -118 276 -185 q 180 -98 189 -108 q 62 235 62 27 q 279 813 62 580 q 728 1049 465 1014 l 798 958 m 707 1029 q 291 801 469 993 q 78 235 78 572 q 192 -85 78 35 q 446 -213 290 -190 l 455 -170 q 276 159 276 -127 q 372 647 276 410 q 698 985 491 944 l 707 1029 z "},")":{"ha":614,"x_min":-88,"x_max":650,"o":"m 650 500 q 435 -72 650 158 q 237 -224 349 -163 q 2 -304 120 -288 l -88 -233 l -71 -154 q 230 126 107 -123 q 347 657 347 363 q 298 885 347 808 q 255 898 278 893 q 165 972 218 934 l 182 1048 q 460 914 357 1025 q 474 899 465 910 l 551 807 q 650 500 650 690 m 562 582 q 448 902 562 781 q 195 1029 350 1006 l 185 986 q 364 657 364 944 q 269 170 364 408 q -57 -169 149 -128 l -66 -212 q 349 16 169 -176 q 562 582 562 242 z "},"*":{"ha":665,"x_min":141,"x_max":778,"o":"m 550 623 q 573 597 562 610 l 644 514 q 671 458 671 482 q 652 419 671 435 q 610 402 633 402 q 576 416 591 402 q 491 491 571 420 q 472 519 482 499 q 446 435 464 485 q 397 402 425 402 q 356 418 383 402 l 269 494 q 249 539 249 511 q 275 597 249 564 q 246 609 262 600 l 161 683 q 141 734 141 701 q 210 802 141 802 q 286 787 231 802 q 370 768 353 770 q 297 847 345 793 q 249 931 249 901 q 270 976 249 957 q 317 996 291 996 q 364 972 345 996 q 436 887 378 954 q 446 873 441 880 q 452 890 449 880 q 475 958 465 941 q 531 996 495 996 q 583 971 562 996 q 659 882 599 953 q 671 850 671 869 q 651 800 671 827 q 691 780 676 797 q 768 689 723 743 q 778 653 778 677 q 718 595 778 595 q 635 611 700 595 q 542 631 565 629 q 550 623 544 629 m 676 696 q 683 702 676 696 q 690 734 690 708 q 639 785 690 785 q 540 768 605 785 q 440 746 463 749 q 521 837 481 791 q 583 931 583 908 q 567 965 583 951 q 531 979 551 979 q 486 944 503 979 q 468 885 480 933 q 424 755 454 833 q 362 943 406 821 q 317 979 345 979 q 281 964 298 979 q 265 931 265 949 q 327 838 265 910 q 408 746 368 792 q 308 768 383 749 q 210 785 243 785 q 158 734 158 785 q 210 685 158 685 q 307 702 243 685 q 407 724 382 721 q 326 632 367 678 q 265 539 265 560 q 281 506 265 519 q 317 492 297 492 q 362 526 346 492 q 380 585 368 538 q 424 714 394 643 q 468 586 454 640 q 531 492 492 492 q 566 507 550 492 q 583 539 583 521 q 522 632 583 560 q 441 724 481 678 q 541 702 465 721 q 639 685 605 685 q 676 696 661 685 z "},"+":{"ha":968,"x_min":111,"x_max":938,"o":"m 938 253 l 623 253 l 623 -68 l 513 -68 l 425 5 l 426 253 l 199 253 l 111 326 l 111 454 l 425 454 l 425 774 l 552 774 l 623 684 l 623 454 l 866 454 l 938 363 l 938 253 m 850 343 l 850 437 l 535 437 l 535 758 l 442 758 l 442 437 l 127 437 l 127 343 l 442 343 l 442 22 l 535 22 l 535 343 l 850 343 z "},",":{"ha":505,"x_min":43,"x_max":444,"o":"m 205 -53 l 122 20 q 92 94 92 46 q 136 196 92 153 q 238 239 180 239 q 342 197 306 239 l 416 111 q 444 8 444 77 q 349 -208 444 -104 q 155 -345 269 -296 l 71 -275 l 43 -212 q 224 -65 177 -144 q 205 -53 217 -62 m 64 -220 l 79 -253 q 263 -120 186 -204 q 356 90 356 -18 q 238 222 356 222 q 148 184 186 222 q 109 94 109 146 q 221 9 109 9 l 271 9 q 195 -129 250 -73 q 64 -220 151 -175 z "},"-":{"ha":522,"x_min":39,"x_max":565,"o":"m 565 362 l 532 214 l 129 214 l 39 287 l 76 452 l 496 452 l 565 362 m 475 435 l 89 435 l 60 304 l 446 304 l 475 435 z "},"‐":{"ha":522,"x_min":39,"x_max":565,"o":"m 565 362 l 532 214 l 129 214 l 39 287 l 76 452 l 496 452 l 565 362 m 475 435 l 89 435 l 60 304 l 446 304 l 475 435 z "},".":{"ha":505,"x_min":90,"x_max":440,"o":"m 440 31 q 402 -62 440 -23 q 309 -101 363 -101 q 218 -64 260 -101 l 136 7 q 90 113 90 47 q 130 213 90 172 q 229 255 171 255 q 336 204 293 255 q 408 117 354 182 q 440 31 440 79 m 352 113 q 316 201 352 163 q 229 238 280 238 q 142 201 178 238 q 106 113 106 164 q 142 25 106 61 q 229 -12 178 -12 q 316 25 280 -12 q 352 113 352 61 z "},"/":{"ha":649,"x_min":-69,"x_max":796,"o":"m 796 951 l 146 -299 l 24 -299 l -69 -227 l 589 1042 l 730 1042 l 796 951 m 703 1025 l 599 1025 l -41 -210 l 61 -210 l 703 1025 z "},":":{"ha":506,"x_min":90,"x_max":534,"o":"m 534 458 q 495 365 534 404 q 403 326 457 326 q 313 363 355 326 l 230 435 q 183 540 183 475 q 224 641 183 599 q 323 682 265 682 q 429 631 387 682 q 503 545 436 623 q 534 458 534 508 m 441 31 q 402 -62 441 -24 q 310 -101 364 -101 q 219 -64 261 -101 l 137 7 q 90 113 90 48 q 131 213 90 172 q 230 255 172 255 q 336 204 294 255 q 409 117 371 162 q 441 31 441 79 m 446 540 q 410 628 446 591 q 323 665 374 665 q 236 628 272 665 q 200 540 200 591 q 236 452 200 488 q 323 416 272 416 q 410 453 374 416 q 446 540 446 489 m 353 113 q 317 201 353 163 q 230 238 281 238 q 143 201 179 238 q 107 113 107 164 q 143 25 107 61 q 230 -12 179 -12 q 317 25 281 -12 q 353 113 353 61 z "},";":{"ha":505,"x_min":57,"x_max":534,"o":"m 219 1 l 136 74 q 106 149 106 100 q 150 250 106 207 q 252 294 194 294 q 357 251 321 294 l 430 165 q 458 62 458 131 q 363 -153 458 -50 q 169 -291 283 -241 l 85 -220 l 57 -157 q 239 -11 192 -90 q 219 1 231 -7 m 534 458 q 495 365 534 404 q 403 326 457 326 q 312 363 354 326 l 229 435 q 183 540 183 475 q 224 641 183 599 q 323 682 264 682 q 429 631 386 682 q 502 545 441 616 q 534 458 534 507 m 446 540 q 410 628 446 591 q 323 665 374 665 q 235 628 271 665 q 199 540 199 591 q 235 452 199 488 q 323 416 271 416 q 410 452 374 416 q 446 540 446 488 m 79 -165 l 94 -199 q 278 -66 201 -150 q 370 144 370 35 q 252 277 370 277 q 162 238 201 277 q 123 149 123 200 q 235 63 123 63 l 286 63 q 210 -75 264 -19 q 79 -165 165 -121 z "},"<":{"ha":968,"x_min":156,"x_max":909,"o":"m 837 137 l 909 50 l 909 -77 l 244 262 l 156 338 l 156 443 l 837 790 l 909 695 l 909 568 l 438 334 l 837 137 m 172 349 l 821 18 l 821 126 l 288 390 l 821 654 l 821 763 l 172 432 l 172 349 z "},"=":{"ha":968,"x_min":140,"x_max":939,"o":"m 939 393 l 228 393 l 140 467 l 140 594 l 868 594 l 939 504 l 939 393 m 939 113 l 228 113 l 140 186 l 140 313 l 868 313 l 939 223 l 939 113 m 851 484 l 851 577 l 157 577 l 157 484 l 851 484 m 851 203 l 851 296 l 157 296 l 157 203 l 851 203 z "},">":{"ha":968,"x_min":171,"x_max":924,"o":"m 924 262 l 259 -77 l 171 -9 l 171 137 l 650 374 l 259 568 l 171 644 l 171 790 l 852 443 l 924 356 l 924 262 m 836 349 l 836 432 l 187 763 l 187 654 l 720 390 l 187 126 l 187 18 l 836 349 z "},"?":{"ha":756,"x_min":142,"x_max":855,"o":"m 855 661 q 723 399 855 496 q 438 304 610 316 l 418 212 l 361 212 l 272 285 l 326 565 q 583 789 583 585 q 576 843 583 818 q 542 846 560 846 q 448 817 494 846 q 468 709 468 749 q 353 605 468 605 q 277 633 308 605 q 192 708 256 651 q 159 789 159 737 q 281 948 159 890 q 488 994 378 994 q 692 932 610 994 q 734 892 715 915 l 808 804 q 855 661 855 748 m 486 18 q 449 -71 486 -35 q 359 -108 412 -108 q 269 -71 309 -108 q 186 1 241 -47 q 142 99 142 40 q 183 195 142 155 q 279 235 223 235 q 386 182 342 235 l 457 98 q 486 18 486 63 m 767 742 q 682 919 767 854 q 488 977 604 977 q 293 935 385 977 q 176 789 176 882 q 203 721 176 746 q 274 695 230 695 q 380 791 380 695 q 357 902 380 829 q 462 936 412 936 q 600 789 600 936 q 523 615 600 678 q 340 549 455 559 l 292 302 l 332 302 l 351 393 q 639 487 528 406 q 767 742 767 581 m 399 99 q 363 183 399 148 q 279 218 328 218 q 195 183 230 218 q 159 99 159 149 q 195 16 159 50 q 279 -18 230 -18 q 363 16 328 -18 q 399 99 399 50 z "},"@":{"ha":1331,"x_min":125,"x_max":1324,"o":"m 295 -77 q 125 323 125 72 q 300 753 125 572 q 770 943 485 943 q 1151 786 1021 943 q 1229 692 1173 760 q 1324 405 1324 575 q 1239 127 1324 244 q 994 -3 1145 -3 q 844 39 891 -3 q 799 75 831 51 q 741 24 778 54 q 651 0 701 0 q 540 37 583 0 q 433 135 453 110 q 391 273 391 191 q 492 538 391 417 q 741 667 599 667 q 844 612 816 667 l 861 659 l 1050 659 l 1118 569 l 984 193 q 973 151 977 172 q 1123 283 1073 168 q 1162 494 1162 374 q 1085 725 1162 631 q 843 784 987 784 q 498 641 646 784 q 340 251 340 487 q 415 -43 340 75 q 715 -147 531 -147 q 1076 -28 926 -147 l 1154 -121 l 1179 -163 q 791 -300 1011 -300 q 395 -165 549 -300 l 295 -77 m 707 408 q 655 174 655 304 q 709 220 683 184 l 810 517 q 707 408 755 505 m 1236 486 q 1171 728 1236 624 q 980 888 1105 836 q 770 926 892 926 q 312 741 492 926 q 141 323 141 565 q 320 -77 141 70 q 711 -211 484 -211 q 1088 -80 925 -211 l 1072 -52 q 715 -164 926 -164 q 371 -24 494 -164 q 252 332 252 109 q 413 728 252 572 q 764 874 562 874 q 1060 777 947 874 q 1179 494 1179 674 q 1129 256 1179 355 q 940 131 1065 131 q 882 199 882 131 q 897 277 882 237 l 1026 642 l 873 642 l 852 583 l 839 583 q 741 650 816 650 q 504 527 606 650 q 407 273 407 410 q 448 142 407 191 q 572 90 492 90 q 656 112 618 90 q 726 177 703 151 l 739 177 q 913 87 770 87 q 1154 214 1064 87 q 1236 486 1236 329 m 747 609 q 826 514 825 609 l 724 212 q 630 152 681 152 q 567 255 567 152 q 621 494 567 387 q 747 609 678 609 z "},"A":{"ha":1042,"x_min":-117,"x_max":1092,"o":"m 1092 -32 l 1080 -81 l 576 -81 l 486 -9 l 501 58 q 644 93 644 69 q 640 133 644 106 l 621 242 l 370 242 q 288 106 329 178 q 267 62 278 87 q 302 58 279 60 l 312 57 l 381 -32 l 370 -81 l -26 -81 l -117 -9 l -101 58 q 14 89 -30 63 q 94 174 57 114 l 607 985 l 750 985 l 823 895 l 964 66 q 1022 58 987 60 l 1092 -32 m 1002 42 q 878 140 895 52 q 736 968 852 279 l 616 968 l 109 164 q -88 41 38 52 l -96 9 l 283 9 l 292 42 q 166 102 166 56 q 285 332 166 144 l 621 332 l 656 136 q 661 93 661 109 q 514 41 661 54 l 507 9 l 994 9 l 1002 42 m 612 379 l 315 379 l 549 762 l 612 379 m 593 396 l 566 560 l 465 396 l 593 396 z "},"B":{"ha":1044,"x_min":-37,"x_max":1103,"o":"m 1103 706 q 914 475 1103 547 l 888 465 q 935 425 917 446 l 1009 338 q 1051 221 1051 288 q 570 -81 1051 -81 l 54 -81 l -37 -9 l -21 58 q 73 70 45 60 q 134 134 123 86 l 286 807 q 289 826 288 812 q 260 831 275 829 l 170 906 l 185 971 l 692 971 q 996 887 926 971 l 1074 795 q 1103 706 1103 760 m 1015 787 q 692 954 1015 954 l 198 954 l 191 920 q 309 843 309 901 q 302 803 309 830 l 151 130 q 89 58 139 79 q -8 41 58 45 l -16 9 l 490 9 q 964 302 964 9 q 879 450 964 397 q 708 503 813 492 l 713 530 q 1015 787 1015 593 m 770 774 q 699 594 770 660 q 515 531 630 531 l 459 531 l 546 909 q 612 913 589 913 q 770 774 770 913 m 719 318 q 660 134 719 210 q 491 50 595 50 q 415 65 451 50 q 366 119 368 85 l 449 485 q 516 488 485 488 q 719 318 719 488 m 754 774 q 748 817 754 796 q 691 823 723 823 q 660 822 669 823 l 632 820 l 571 553 q 706 627 659 568 q 754 774 754 685 m 702 318 q 690 385 702 355 q 595 398 651 398 q 536 395 565 398 l 462 70 q 491 67 479 67 q 648 146 588 67 q 702 318 702 218 z "},"C":{"ha":985,"x_min":62,"x_max":1136,"o":"m 1136 881 l 1062 530 l 1004 530 l 916 603 q 848 825 904 743 q 751 844 805 844 q 494 654 593 844 q 410 271 410 492 q 442 109 410 175 q 567 75 494 75 q 897 288 740 75 l 962 244 l 1030 160 q 571 -107 861 -107 q 268 -1 389 -107 l 182 75 q 62 374 62 181 q 238 816 62 635 q 674 997 414 997 q 948 935 846 997 l 996 971 l 1066 971 l 1136 881 m 1046 954 l 1001 954 l 949 915 q 674 980 848 980 q 250 804 421 980 q 78 374 78 628 q 194 85 78 192 q 491 -18 307 -18 q 939 239 773 -18 l 901 265 q 567 58 746 58 q 379 146 444 58 q 321 352 321 225 q 407 739 321 574 q 672 935 508 935 q 863 834 794 935 q 931 620 919 752 l 976 620 l 1046 954 z "},"D":{"ha":1147,"x_min":-35,"x_max":1211,"o":"m -20 58 q 82 71 50 60 q 135 134 124 85 l 288 807 q 292 827 289 814 q 261 831 285 828 l 171 906 l 186 971 l 675 971 q 1057 825 935 971 l 1131 737 q 1211 502 1211 641 q 1010 68 1211 231 q 547 -81 825 -81 l 55 -81 l -35 -9 l -20 58 m 715 823 q 669 822 682 823 l 633 820 l 470 98 q 465 69 465 78 q 501 67 482 67 q 729 180 636 67 q 839 418 805 271 q 861 617 861 513 q 817 804 861 733 q 715 823 774 823 m 1123 583 q 986 867 1123 768 q 675 954 865 954 l 199 954 l 191 920 q 310 843 310 901 q 304 803 310 830 l 151 130 q 90 56 139 76 q -7 41 62 45 l -14 9 l 467 9 q 925 156 742 9 q 1123 583 1123 315 m 878 617 q 831 331 878 461 q 667 100 776 176 q 501 50 594 50 q 375 134 375 50 q 382 181 375 151 l 546 909 q 635 913 602 913 q 824 825 762 913 q 878 617 878 748 z "},"E":{"ha":992,"x_min":-37,"x_max":1101,"o":"m 762 705 l 829 705 l 899 614 l 808 213 l 757 213 l 669 286 l 669 319 q 662 386 669 355 q 625 389 645 389 l 534 389 l 474 121 q 464 68 466 86 q 513 67 491 67 q 713 100 674 67 q 884 309 805 177 l 949 309 l 1017 218 l 932 -81 l 54 -81 l -37 -9 l -21 58 q 81 71 50 60 q 134 134 123 85 l 286 807 q 290 826 288 814 q 260 831 281 829 l 170 906 l 185 971 l 1031 971 l 1101 881 l 1046 635 l 995 635 l 908 709 q 871 817 900 764 q 763 823 841 823 l 633 823 l 568 537 q 762 705 702 541 m 959 726 l 1010 954 l 198 954 l 191 920 q 309 843 309 901 q 302 803 309 830 l 151 130 q 90 56 138 76 q -8 41 61 45 l -16 9 l 846 9 l 926 292 l 894 292 q 723 86 814 163 q 513 50 680 50 q 422 56 444 50 q 373 124 373 71 q 386 204 373 147 l 448 479 l 545 479 q 658 438 626 479 q 686 319 686 402 l 686 303 l 721 303 l 808 688 l 774 688 q 558 520 709 520 l 458 520 l 547 913 l 683 913 q 798 906 766 913 q 882 834 845 895 q 922 726 913 783 l 959 726 z "},"F":{"ha":924,"x_min":-36,"x_max":1120,"o":"m -21 58 q 73 70 45 60 q 134 134 123 86 l 286 807 q 290 826 287 811 q 260 831 276 829 l 170 906 l 185 971 l 1050 971 l 1120 881 l 1061 624 l 1010 624 l 922 697 q 886 816 916 758 q 780 823 827 823 l 633 823 l 566 530 q 764 699 708 534 l 831 699 l 901 609 l 809 204 l 759 204 l 671 277 l 671 307 q 664 379 671 350 q 627 382 647 382 l 533 382 l 463 72 q 462 62 463 68 q 505 57 478 60 l 575 -32 l 564 -81 l 54 -81 l -36 -9 l -21 58 m 975 714 l 1029 954 l 198 954 l 191 920 q 309 843 309 901 q 302 803 309 833 l 151 130 q 89 58 139 79 q -7 41 58 45 l -15 9 l 477 9 l 485 42 q 410 58 433 48 q 369 116 369 75 q 375 155 369 128 l 447 472 l 547 472 q 661 428 628 472 q 688 307 688 391 l 688 294 l 723 294 l 810 682 l 777 682 q 559 513 715 513 l 456 513 l 547 913 l 700 913 q 813 906 760 913 q 898 829 861 899 q 937 714 928 772 l 975 714 z "},"G":{"ha":1112,"x_min":62,"x_max":1217,"o":"m 1217 363 l 1205 313 q 1055 228 1072 305 l 1028 111 q 1008 5 1019 71 q 798 -77 924 -45 q 574 -108 676 -108 q 273 -5 390 -108 l 187 71 q 62 366 62 180 q 240 819 62 641 q 692 997 417 997 q 971 935 861 997 l 1018 971 l 1089 971 l 1158 881 l 1086 530 l 1027 530 l 940 603 q 877 822 926 747 q 770 844 831 844 q 507 659 610 844 q 412 250 412 490 q 444 70 412 142 q 535 47 483 47 q 692 106 623 47 l 734 288 q 736 306 734 294 q 694 313 718 310 l 605 388 l 620 453 l 1147 453 l 1217 363 m 1126 436 l 633 436 l 625 401 q 756 325 756 380 q 750 283 756 310 l 707 97 q 535 31 630 31 q 366 130 421 31 q 323 331 323 207 q 420 745 323 573 q 690 935 526 935 q 955 620 923 935 l 999 620 l 1069 954 l 1024 954 l 972 915 q 692 980 861 980 q 251 807 424 980 q 79 366 79 634 q 199 81 79 186 q 494 -18 313 -18 q 714 12 595 -18 q 921 92 837 43 q 967 311 932 158 q 1119 403 985 393 l 1126 436 z "},"H":{"ha":1257,"x_min":-33,"x_max":1419,"o":"m 1419 881 l 1407 831 q 1310 815 1339 827 q 1250 745 1261 796 l 1098 72 q 1095 62 1097 68 q 1143 57 1100 61 l 1213 -32 l 1202 -81 l 692 -81 l 602 -9 l 616 58 q 716 70 659 60 q 770 133 760 86 l 826 387 l 536 387 l 466 72 q 463 61 465 66 q 509 57 481 60 l 578 -32 l 567 -81 l 57 -81 l -33 -9 l -18 58 q 84 71 52 60 q 138 134 127 86 l 290 807 q 294 826 291 812 q 263 831 279 829 l 173 906 l 188 971 l 715 971 l 784 881 l 773 831 q 677 815 707 827 q 618 745 629 795 l 572 543 l 862 543 l 922 807 q 925 826 923 814 q 898 831 912 829 l 808 906 l 823 971 l 1350 971 l 1419 881 m 1329 954 l 836 954 l 828 920 q 944 843 944 898 q 938 803 944 829 l 875 526 l 462 526 l 530 829 q 589 902 542 881 q 686 921 620 916 l 694 954 l 201 954 l 193 920 q 312 843 312 901 q 306 803 312 830 l 153 130 q 93 56 141 75 q -5 41 64 45 l -12 9 l 480 9 l 488 42 q 414 58 436 48 q 372 116 372 75 q 378 155 372 128 l 450 477 l 863 477 l 785 129 q 720 54 772 73 q 630 41 665 44 l 623 9 l 1115 9 l 1123 42 q 1004 116 1004 55 q 1010 155 1004 128 l 1162 829 q 1226 904 1176 888 q 1321 921 1265 916 l 1329 954 z "},"I":{"ha":621,"x_min":-43,"x_max":787,"o":"m 570 -81 l 47 -81 l -43 -9 l -28 58 q 79 72 45 60 q 132 134 121 86 l 284 807 q 288 827 286 814 q 253 831 277 828 l 163 906 l 178 971 l 718 971 l 787 881 l 776 831 q 676 817 704 827 q 613 745 625 798 l 460 72 q 458 62 460 66 q 511 57 467 61 l 581 -32 l 570 -81 m -15 41 l -22 9 l 484 9 l 491 42 q 367 116 367 55 q 373 155 367 128 l 525 829 q 588 903 537 883 q 689 921 619 916 l 696 954 l 191 954 l 183 920 q 307 843 307 899 q 300 803 307 830 l 149 130 q 85 56 136 75 q -15 41 54 45 z "},"J":{"ha":820,"x_min":-30,"x_max":1002,"o":"m 35 38 q -30 199 -30 97 q 7 311 -30 267 q 113 357 46 357 q 214 317 178 357 q 293 224 245 283 q 317 147 317 195 q 297 83 317 115 q 390 275 359 138 l 510 807 q 514 827 511 814 q 482 831 511 827 l 393 906 l 407 971 l 933 971 l 1002 881 l 991 831 q 897 814 926 827 q 839 745 850 795 l 719 212 q 581 -16 688 73 q 332 -107 473 -107 q 140 -53 211 -107 q 123 -39 135 -49 q 35 38 92 -13 m 631 295 l 751 829 q 810 901 763 880 q 905 921 840 916 l 912 954 l 420 954 l 412 920 q 532 843 532 900 q 526 803 532 830 l 406 271 q 205 30 352 30 q 130 70 145 30 l 130 83 q 195 147 185 136 q 229 229 229 189 q 197 311 229 281 q 113 340 165 340 q 19 298 54 340 q -13 199 -13 260 q 68 33 -13 90 q 252 -18 138 -18 q 495 71 390 -18 q 631 295 600 159 z "},"K":{"ha":1124,"x_min":-34,"x_max":1320,"o":"m 465 72 q 462 62 463 67 q 507 57 479 60 l 577 -32 l 566 -81 l 56 -81 l -34 -9 l -19 58 q 83 71 52 60 q 136 134 125 85 l 288 807 q 292 826 290 810 q 262 831 278 829 l 172 906 l 187 971 l 714 971 l 783 881 l 772 831 q 676 815 706 827 q 617 745 629 795 l 580 579 q 736 706 694 670 q 878 848 823 781 l 808 905 l 824 971 l 1251 971 l 1320 881 l 1309 831 q 1063 732 1173 817 q 766 484 1050 722 q 1002 89 782 458 q 1096 58 1046 58 l 1106 58 l 1175 -32 l 1164 -81 l 810 -81 l 725 -9 q 530 361 665 130 l 465 72 m 371 116 q 377 155 371 128 l 444 453 l 496 453 q 736 9 669 163 l 1078 9 l 1085 41 q 921 159 986 50 l 675 568 l 681 572 l 979 821 q 1222 920 1077 903 l 1230 954 l 837 954 l 829 920 q 919 888 919 913 q 494 491 919 817 l 453 491 l 529 829 q 589 902 541 881 q 686 921 619 916 l 693 954 l 200 954 l 193 920 q 311 843 311 901 q 304 803 311 830 l 153 130 q 92 56 140 76 q -5 41 63 45 l -14 9 l 479 9 l 487 42 q 412 58 435 48 q 371 116 371 75 z "},"L":{"ha":943,"x_min":-37,"x_max":1010,"o":"m 922 -81 l 53 -81 l -37 -9 l -22 58 q 72 70 44 60 q 133 134 122 86 l 286 807 q 290 827 287 814 q 259 831 283 828 l 169 906 l 184 971 l 720 971 l 789 881 l 777 831 q 677 817 705 827 q 614 745 625 798 l 470 106 q 463 68 467 92 q 524 67 492 67 q 703 103 659 67 q 877 317 788 174 l 941 317 l 1010 227 l 922 -81 m 836 9 l 919 300 l 886 300 q 713 90 800 161 q 524 50 665 50 q 429 54 446 50 q 372 120 372 67 q 382 189 372 144 l 526 829 q 590 904 540 888 q 691 921 630 917 l 699 954 l 197 954 l 189 920 q 308 843 308 901 q 302 803 308 830 l 149 130 q 88 58 138 78 q -9 41 57 45 l -16 9 l 836 9 z "},"M":{"ha":1421,"x_min":-54,"x_max":1588,"o":"m 340 201 q 322 78 322 123 l 322 69 q 383 56 345 62 l 452 -32 l 441 -81 l 36 -81 l -54 -9 l -39 57 q 87 91 50 68 q 172 278 136 122 l 279 753 q 288 814 288 789 q 287 827 288 821 q 250 831 269 830 l 160 905 l 175 971 l 620 971 l 692 881 l 756 432 l 1005 848 q 1063 971 1048 920 l 1518 971 l 1588 881 l 1577 831 q 1480 815 1511 827 q 1420 745 1431 795 l 1272 72 q 1270 62 1271 68 l 1318 57 l 1387 -32 l 1376 -81 l 866 -81 l 776 -9 l 791 57 q 892 75 833 62 q 949 141 938 92 l 1033 521 l 677 -66 l 593 -66 l 506 7 q 481 210 504 44 l 429 598 l 340 201 m 1490 921 l 1497 954 l 1075 954 q 1019 838 1059 905 l 699 302 l 606 954 l 188 954 l 180 920 q 304 814 304 908 q 295 749 304 789 l 188 274 q 96 76 151 111 q -26 42 58 52 l -33 9 l 355 9 l 363 43 q 272 74 300 53 q 235 159 235 102 q 252 285 235 210 l 387 881 l 407 881 l 498 212 q 522 24 505 160 l 593 24 l 1105 870 l 1127 870 l 965 137 q 897 58 952 79 q 804 42 840 46 l 797 9 l 1289 9 l 1297 42 q 1221 58 1244 48 q 1178 116 1178 76 q 1184 155 1178 127 l 1333 829 q 1396 904 1345 888 q 1490 921 1437 917 z "},"N":{"ha":1142,"x_min":-57,"x_max":1344,"o":"m 1344 881 l 1333 831 q 1269 823 1286 827 q 1209 798 1236 815 q 1120 604 1157 764 l 964 -87 l 852 -87 l 768 -14 l 431 623 l 337 203 q 319 79 319 124 q 320 70 319 85 q 380 56 342 63 l 450 -32 l 439 -81 l 33 -81 l -57 -9 l -42 57 q 23 68 4 64 q 84 91 61 76 q 169 279 134 123 l 271 732 q 279 785 279 765 q 274 822 279 804 q 235 831 256 827 l 146 906 l 161 971 l 521 971 l 595 881 l 878 346 l 953 680 q 970 800 970 758 q 969 822 970 812 q 928 831 946 829 l 838 906 l 853 971 l 1275 971 l 1344 881 m 1254 954 l 866 954 l 859 920 q 951 887 924 907 q 987 800 987 860 q 968 676 987 758 l 876 260 l 511 954 l 174 954 l 166 920 q 296 785 296 892 q 288 728 296 764 l 185 275 q 93 76 148 111 q -28 42 61 56 l -36 9 l 353 9 l 360 43 q 267 75 292 56 q 231 160 231 101 q 250 286 231 204 l 362 789 l 777 3 l 878 3 l 1032 687 q 1125 886 1069 850 q 1246 921 1165 912 l 1254 954 z "},"O":{"ha":1128,"x_min":62,"x_max":1196,"o":"m 1196 512 q 1025 79 1196 256 q 576 -108 846 -108 q 275 -4 393 -108 q 271 0 273 -3 q 182 78 256 9 q 62 370 62 189 q 244 814 62 631 q 687 998 425 998 q 1035 855 915 998 l 1114 762 q 1196 512 1196 663 m 1108 593 q 987 881 1108 775 q 687 981 871 981 q 255 803 432 981 q 79 370 79 625 q 199 84 79 191 q 496 -18 315 -18 q 940 166 762 -18 q 1108 593 1108 340 m 866 659 q 822 349 866 494 q 667 87 769 176 q 515 28 600 28 q 360 118 410 28 q 321 302 321 190 q 395 694 321 512 q 673 935 494 935 q 866 659 866 935 m 850 659 q 816 835 850 771 q 752 844 787 844 q 499 644 598 844 q 409 221 409 462 q 435 64 409 127 q 515 45 470 45 q 656 100 593 45 q 807 357 755 187 q 850 659 850 498 z "},"P":{"ha":972,"x_min":-37,"x_max":1109,"o":"m 1109 679 q 945 407 1109 498 q 618 333 812 333 l 522 333 l 463 72 q 460 62 463 69 q 508 57 479 60 l 578 -32 l 566 -81 l 54 -81 l -37 -9 l -21 58 q 73 70 45 60 q 134 134 123 86 l 286 807 q 290 827 288 814 q 260 831 283 828 l 170 906 l 185 971 l 703 971 q 994 885 916 971 q 1074 790 1023 852 q 1109 679 1109 747 m 1021 760 q 703 954 1021 954 l 198 954 l 191 920 q 309 843 309 901 q 302 803 309 830 l 151 130 q 89 58 139 79 q -8 41 58 45 l -16 9 l 480 9 l 488 42 q 412 58 435 48 q 369 116 369 75 q 375 155 369 128 l 435 423 l 538 423 q 859 495 729 423 q 1021 760 1021 585 m 774 758 q 772 705 774 718 q 712 553 763 616 q 499 467 642 467 l 446 467 l 547 913 l 602 913 q 774 758 774 913 m 758 758 q 749 814 758 791 q 682 823 720 823 l 633 823 l 557 488 q 743 650 703 510 q 758 758 758 699 z "},"Q":{"ha":1128,"x_min":62,"x_max":1196,"o":"m 776 -112 q 802 -117 789 -117 q 937 -98 865 -117 l 1006 -191 l 996 -245 q 720 -295 880 -295 q 564 -252 614 -295 q 476 -168 562 -250 q 434 -87 442 -136 q 277 -6 341 -62 l 189 71 q 62 370 62 181 q 244 814 62 631 q 687 998 425 998 q 1032 858 914 998 l 1117 758 q 1196 512 1196 663 q 1080 145 1196 307 q 769 -79 988 16 q 776 -112 768 -98 m 1108 593 q 987 881 1108 775 q 687 981 871 981 q 255 803 432 981 q 79 370 79 625 q 180 102 79 204 q 442 -15 282 -1 l 450 -16 l 450 -62 q 489 -151 453 -114 q 640 -205 543 -205 q 909 -158 796 -205 l 916 -121 q 802 -134 860 -134 q 699 -82 736 -134 q 681 -33 683 -59 l 681 9 q 992 229 876 68 q 1108 593 1108 389 m 866 659 q 792 267 866 448 q 515 28 694 28 q 360 118 410 28 q 321 302 321 190 q 395 694 321 512 q 673 935 494 935 q 866 659 866 935 m 850 659 q 817 835 850 772 q 752 844 789 844 q 499 644 598 844 q 409 221 409 462 q 436 64 409 128 q 515 45 471 45 q 762 242 666 45 q 850 659 850 424 z "},"R":{"ha":1097,"x_min":-36,"x_max":1149,"o":"m 1149 -32 l 1137 -81 l 793 -81 l 707 -9 q 532 355 625 186 l 528 355 l 463 72 q 461 62 463 70 q 506 57 478 60 l 575 -32 l 564 -81 l 54 -81 l -36 -9 l -21 58 q 73 70 45 60 q 135 134 124 87 l 287 807 q 291 826 288 814 q 260 831 272 830 l 170 906 l 185 971 l 711 971 q 1010 881 937 971 q 1082 795 1029 858 q 1116 692 1116 754 q 814 394 1116 468 q 979 94 866 298 q 991 73 984 85 q 1080 58 1013 61 l 1149 -32 m 1059 41 q 993 54 1018 45 q 844 252 947 70 q 722 481 783 366 q 1028 774 1028 556 q 711 954 1028 954 l 199 954 l 191 920 q 309 843 309 901 q 303 803 309 830 l 151 130 q 90 58 139 78 q -7 41 58 45 l -15 9 l 477 9 l 486 42 q 411 58 433 48 q 369 116 369 75 q 375 155 369 129 l 441 445 l 500 445 q 718 9 618 241 l 1050 9 l 1059 41 m 782 760 q 716 564 782 637 q 526 487 647 487 l 450 487 l 547 913 l 599 913 q 782 760 782 913 m 765 760 q 758 813 765 790 q 678 823 725 823 l 633 823 l 562 506 q 715 590 661 518 q 765 760 765 657 z "},"S":{"ha":899,"x_min":-28,"x_max":1002,"o":"m 45 357 l 116 357 l 189 267 q 246 103 203 175 q 395 52 311 52 q 535 90 479 52 q 599 216 599 135 q 585 273 599 247 q 547 288 570 279 l 458 321 q 374 354 393 346 q 298 401 327 376 q 210 480 279 418 q 176 519 195 493 q 130 661 130 579 q 266 912 130 817 q 549 997 387 997 q 813 932 699 997 l 861 971 l 932 971 l 1002 881 l 932 553 l 875 553 l 788 626 q 724 821 769 753 q 636 839 685 839 q 505 797 559 839 q 446 677 446 751 q 451 642 446 660 q 505 617 476 628 q 678 551 550 600 q 798 469 754 520 q 871 382 821 442 q 921 240 921 322 q 774 -23 921 73 q 471 -107 647 -107 q 174 -34 304 -107 l 117 -81 l 61 -81 l -28 -8 l 45 357 m 99 55 q 392 -18 244 -18 q 688 64 563 -18 q 833 321 833 159 q 672 534 833 469 q 499 601 625 554 q 358 758 358 654 q 419 884 358 836 q 556 929 476 929 q 802 643 757 929 l 846 643 l 911 954 l 867 954 l 814 911 q 549 980 698 980 q 278 899 395 980 q 147 661 147 809 q 298 444 147 509 q 496 368 397 406 q 615 216 615 309 q 546 77 615 126 q 395 35 486 35 q 194 130 275 35 q 102 340 123 213 l 58 340 l -9 9 l 35 9 l 94 58 l 99 55 z "},"T":{"ha":943,"x_min":83,"x_max":1149,"o":"m 427 817 q 316 732 389 812 q 224 606 263 673 l 173 606 l 83 679 l 149 971 l 1080 971 l 1149 881 l 1087 606 l 1036 606 l 949 679 q 914 821 939 765 q 831 824 881 824 l 798 824 l 629 76 q 626 64 627 68 q 680 57 647 60 l 749 -32 l 738 -81 l 212 -81 l 122 -9 l 137 58 q 247 73 180 60 q 300 139 288 89 l 454 820 q 427 817 444 819 m 1000 696 l 1059 954 l 163 954 l 104 696 l 140 696 q 231 820 177 758 q 347 907 302 901 q 456 914 408 914 l 492 914 l 316 135 q 253 57 302 76 q 151 41 229 47 l 143 9 l 652 9 l 659 42 q 534 120 534 56 q 541 159 534 132 l 711 914 l 751 914 q 865 905 840 914 q 934 817 907 888 q 964 696 956 759 l 1000 696 z "},"U":{"ha":1149,"x_min":152,"x_max":1362,"o":"m 1362 881 l 1351 831 q 1227 798 1270 823 q 1137 604 1174 766 l 1055 243 q 892 -18 1017 74 q 597 -108 772 -108 q 355 -55 448 -108 q 222 56 319 -34 q 152 234 152 121 q 163 328 152 279 l 271 808 q 275 827 273 815 q 246 831 271 828 l 157 906 l 172 971 l 694 971 l 763 881 l 751 831 q 659 816 685 827 q 602 747 614 798 l 494 273 q 479 155 479 207 q 488 93 479 120 q 593 75 529 75 q 793 157 710 75 q 895 351 867 231 l 968 681 q 987 801 987 762 q 985 823 987 812 q 942 831 964 828 l 852 906 l 867 971 l 1293 971 l 1362 881 m 1272 954 l 880 954 l 873 920 q 966 887 939 908 q 1003 801 1003 860 q 985 677 1003 758 l 911 347 q 803 143 882 221 q 593 58 716 58 q 391 237 391 58 q 406 356 391 290 l 514 830 q 578 905 528 890 q 665 921 616 917 l 673 954 l 184 954 l 177 920 q 294 843 294 900 q 288 804 294 831 l 179 323 q 168 234 168 275 q 280 34 168 98 q 517 -18 371 -18 q 808 69 690 -18 q 967 326 929 159 l 1049 688 q 1143 886 1086 853 q 1265 921 1186 912 l 1272 954 z "},"V":{"ha":1051,"x_min":85,"x_max":1293,"o":"m 1293 881 l 1281 831 q 1098 713 1171 821 q 878 370 1081 688 l 585 -92 l 451 -92 l 365 -20 l 220 798 q 214 823 218 812 q 175 831 201 827 l 85 905 l 100 971 l 617 971 l 686 881 l 675 831 q 601 821 625 826 q 541 791 544 808 q 540 777 540 783 q 587 488 540 739 q 617 317 605 390 l 865 721 q 924 829 901 778 q 890 831 908 830 l 800 905 l 816 971 l 1224 971 l 1293 881 m 1203 954 l 829 954 l 821 920 q 951 861 951 911 q 880 711 951 831 q 564 197 721 449 l 454 827 q 452 859 452 842 q 470 895 452 884 q 588 920 495 910 l 596 954 l 113 954 l 105 920 q 215 858 179 908 q 237 800 229 838 q 292 494 250 728 l 378 -3 l 500 -3 l 990 768 q 1011 800 1002 786 q 1157 911 1065 881 q 1195 920 1177 918 l 1203 954 z "},"W":{"ha":1552,"x_min":106,"x_max":1793,"o":"m 1793 881 l 1781 831 q 1607 713 1670 821 q 1416 378 1521 564 l 1150 -92 l 1012 -92 l 925 -20 l 863 499 l 544 -92 l 411 -92 l 324 -20 l 236 797 q 231 825 235 812 q 196 831 215 829 l 106 905 l 121 971 l 631 971 l 700 881 l 688 831 q 574 806 600 821 q 558 774 558 798 q 583 502 558 740 q 593 390 585 471 l 901 971 l 1055 971 l 1128 881 l 1189 361 q 1381 721 1276 522 q 1430 827 1410 777 q 1392 831 1413 830 l 1302 905 l 1318 971 l 1724 971 l 1793 881 m 1702 954 l 1331 954 l 1322 920 q 1457 860 1457 909 q 1288 508 1457 823 l 1128 212 l 1040 954 l 911 954 l 529 233 l 475 784 q 470 855 470 832 q 488 895 470 882 q 602 920 513 911 l 610 954 l 134 954 l 126 920 q 240 849 214 905 q 252 798 248 831 q 288 468 256 764 l 339 -3 l 459 -3 l 852 727 l 939 -3 l 1065 -3 l 1520 799 q 1655 911 1565 877 q 1695 920 1675 918 l 1702 954 z "},"X":{"ha":1104,"x_min":-77,"x_max":1283,"o":"m 336 57 l 406 -32 l 395 -81 l 13 -81 l -77 -9 l -62 58 q 22 75 -12 61 q 174 186 79 99 q 307 311 197 207 l 465 461 q 317 779 419 564 q 296 817 311 791 q 222 831 265 828 l 133 905 l 148 971 l 720 971 l 789 881 l 779 831 q 636 783 636 824 q 687 638 636 757 q 880 838 836 781 l 798 905 l 813 971 l 1213 971 l 1283 881 l 1272 831 q 1111 766 1186 829 q 913 585 1053 718 q 770 451 886 560 q 935 98 778 433 q 943 81 941 87 q 1046 58 978 62 l 1116 -32 l 1105 -81 l 551 -81 l 460 -9 l 475 58 q 614 97 614 66 q 550 275 614 127 q 469 197 527 254 l 375 101 q 348 73 372 98 q 336 57 344 67 m 1185 921 l 1192 954 l 826 954 l 819 920 q 917 876 917 911 q 859 788 917 848 q 656 585 766 690 q 570 787 632 641 q 548 864 548 838 q 692 921 548 912 l 699 954 l 161 954 l 153 920 q 263 881 222 913 q 332 786 300 852 q 486 457 410 621 q 184 173 358 336 q -7 47 71 67 q -49 41 -24 43 l -56 9 l 309 9 l 316 42 q 219 87 219 52 q 350 252 219 119 q 509 406 430 330 q 631 97 631 141 q 488 41 631 52 l 481 9 l 1019 9 l 1026 42 q 916 81 956 48 q 848 176 880 109 q 680 534 770 338 q 827 673 762 610 q 1025 854 969 808 q 1185 921 1100 917 z "},"Y":{"ha":1010,"x_min":86,"x_max":1270,"o":"m 898 831 q 810 905 855 868 l 825 971 l 1200 971 l 1270 881 l 1259 831 q 1088 736 1187 823 q 920 557 1015 672 q 791 397 855 477 q 725 308 740 337 q 693 202 711 278 l 664 76 q 662 64 663 71 q 715 57 686 60 l 785 -32 l 774 -81 l 248 -81 l 158 -9 l 173 58 q 283 73 216 60 q 336 139 324 88 l 375 312 q 385 369 385 357 q 359 460 385 384 q 242 789 299 637 q 227 823 233 812 q 176 831 205 829 l 86 905 l 101 971 l 646 971 l 715 881 l 703 831 q 568 792 568 827 q 597 671 568 768 q 647 523 610 628 q 898 831 845 755 m 1172 920 l 1179 954 l 838 954 l 830 920 q 937 869 937 912 q 775 649 937 841 l 612 454 q 479 873 479 826 q 617 921 479 916 l 625 954 l 115 954 l 107 920 q 258 795 214 911 q 375 465 305 669 q 402 369 402 386 q 391 308 402 355 l 352 135 q 288 57 338 77 q 186 41 264 47 l 179 9 l 688 9 l 695 42 q 570 120 570 56 q 576 159 570 132 q 602 272 591 227 q 635 387 621 359 q 705 484 651 420 q 834 644 769 564 q 1002 823 929 759 q 1172 920 1100 910 z "},"Z":{"ha":949,"x_min":-65,"x_max":1129,"o":"m 1129 881 l 1120 840 l 414 68 l 477 68 q 693 111 649 68 q 876 334 780 194 l 941 334 l 1010 243 l 904 -81 l 25 -81 l -65 -9 l -52 45 l 659 823 l 630 822 q 482 803 526 819 q 274 587 421 780 l 220 587 l 129 661 l 230 971 l 1060 971 l 1129 881 m 1039 954 l 242 954 l 152 677 l 190 677 q 399 892 337 869 q 550 912 451 912 l 763 912 l -37 37 l -44 9 l 818 9 l 918 317 l 884 317 q 704 98 792 183 q 477 51 654 51 l 233 51 l 1033 925 l 1039 954 z "},"[":{"ha":616,"x_min":-10,"x_max":801,"o":"m 466 -137 l 535 -227 l 520 -292 l 80 -292 l -10 -219 l 275 1039 l 732 1039 l 801 949 l 786 884 l 555 884 l 325 -136 l 466 -137 m 11 -202 l 434 -202 l 445 -154 l 214 -154 l 469 975 l 700 975 l 711 1022 l 288 1022 l 11 -202 z "},"\\":{"ha":650,"x_min":168,"x_max":604,"o":"m 604 -369 l 489 -369 l 402 -296 l 168 1042 l 301 1042 l 374 951 l 604 -369 m 515 -279 l 288 1025 l 187 1025 l 416 -279 l 515 -279 z "},"]":{"ha":614,"x_min":-87,"x_max":724,"o":"m -87 -219 l -68 -137 l 162 -137 l 393 884 l 269 884 l 178 958 l 197 1039 l 654 1039 l 724 949 l 443 -292 l 3 -292 l -87 -219 m -66 -202 l 357 -202 l 633 1022 l 210 1022 l 199 975 l 430 975 l 175 -154 l -56 -154 l -66 -202 z "},"^":{"ha":968,"x_min":161,"x_max":936,"o":"m 722 507 l 574 750 l 385 434 l 256 434 l 161 507 l 465 996 l 567 996 l 642 906 l 936 434 l 806 434 l 722 507 m 730 524 l 841 524 l 558 979 l 474 979 l 191 524 l 300 524 l 515 880 l 730 524 z "},"_":{"ha":965,"x_min":-127,"x_max":945,"o":"m 945 -204 l 926 -286 l -37 -286 l -127 -213 l -106 -115 l 876 -115 l 945 -204 m 854 -132 l -92 -132 l -106 -196 l 840 -196 l 854 -132 z "},"`":{"ha":690,"x_min":253,"x_max":659,"o":"m 659 691 l 628 665 q 387 820 511 735 q 368 835 380 824 l 286 907 q 253 976 253 936 q 278 1034 253 1009 q 337 1059 304 1059 q 441 1009 399 1059 l 517 920 q 532 898 526 909 l 659 691 m 568 774 l 446 975 q 337 1042 404 1042 q 290 1022 311 1042 q 269 976 269 1002 q 311 908 269 937 q 547 757 425 830 l 568 774 z "},"a":{"ha":908,"x_min":45,"x_max":939,"o":"m 939 20 l 924 -41 q 761 -95 863 -93 q 631 -53 677 -96 q 577 -7 614 -37 q 492 -68 528 -49 q 366 -102 427 -102 q 210 -52 267 -102 l 119 29 q 45 239 45 95 q 159 555 45 419 q 457 697 280 697 q 637 644 574 697 l 842 688 l 858 669 l 928 586 l 815 102 q 871 117 833 104 l 939 20 m 847 87 q 777 74 810 73 q 725 150 725 75 q 743 252 725 177 l 840 665 l 836 669 l 633 627 q 457 680 570 680 q 171 543 287 680 q 61 239 61 412 q 286 -13 61 -13 q 507 94 386 -13 l 521 94 q 681 -5 557 -5 q 838 47 747 -5 l 847 87 m 602 514 l 517 142 q 395 74 454 74 q 283 236 283 74 q 343 507 283 393 q 497 629 408 629 q 602 515 602 629 l 602 514 m 586 515 q 584 539 586 529 l 576 539 q 416 389 475 539 q 371 155 371 275 q 376 92 371 119 q 395 91 385 91 q 501 151 446 91 l 586 515 z "},"b":{"ha":893,"x_min":73,"x_max":930,"o":"m 930 347 q 806 22 930 147 q 484 -103 683 -103 q 224 -21 321 -103 q 129 62 205 -5 q 73 131 100 88 l 240 865 q 245 898 244 883 q 217 901 239 899 l 127 975 l 142 1040 l 503 1059 l 515 1041 l 579 968 l 586 958 l 522 678 q 618 697 571 697 q 801 622 737 697 l 874 535 q 930 347 930 469 m 842 429 q 618 680 842 680 q 414 591 519 680 l 395 591 l 498 1037 l 495 1041 l 155 1024 l 147 989 q 225 970 202 983 q 262 902 262 950 q 256 861 262 885 l 90 134 q 404 -14 186 -14 q 726 117 601 -14 q 842 429 842 238 m 621 431 q 574 182 621 302 q 403 26 512 26 q 327 61 357 26 q 297 142 297 96 l 297 143 l 381 525 q 508 594 445 594 q 621 431 621 594 m 604 431 q 596 504 604 473 l 587 504 q 469 439 528 504 l 385 61 q 386 45 385 51 q 403 43 394 43 q 560 195 503 43 q 604 431 604 311 z "},"c":{"ha":738,"x_min":47,"x_max":807,"o":"m 807 441 q 776 346 807 382 q 685 307 743 307 q 613 326 645 307 q 596 339 605 331 l 513 412 q 488 469 488 435 q 505 544 488 501 q 401 401 437 515 q 373 220 373 314 q 389 100 373 148 q 443 91 412 91 q 570 125 519 91 q 663 222 612 152 l 724 170 l 792 87 q 648 -52 709 -16 q 458 -104 558 -104 q 222 -27 309 -104 l 128 56 q 47 270 47 127 q 160 566 47 444 q 485 697 282 697 q 703 622 641 697 q 775 536 711 611 q 807 441 807 498 m 719 523 q 485 680 719 680 q 172 553 290 680 q 63 270 63 436 q 153 56 63 131 q 378 -14 237 -14 q 562 35 475 -14 q 701 167 647 83 l 666 197 q 570 106 617 133 q 443 74 517 74 q 285 301 285 74 q 323 514 285 417 q 473 644 375 644 q 555 606 526 644 q 504 469 504 519 q 540 414 504 434 q 606 397 570 397 q 691 433 661 397 q 719 523 719 467 z "},"d":{"ha":912,"x_min":45,"x_max":1014,"o":"m 1014 958 l 836 169 q 821 100 831 149 q 876 117 833 102 l 943 20 l 928 -41 q 766 -95 850 -95 q 636 -54 686 -95 l 581 -7 q 495 -68 533 -48 q 366 -102 428 -102 q 212 -53 270 -102 q 121 26 195 -38 q 45 239 45 95 q 158 554 45 419 q 454 697 277 697 q 620 654 559 697 l 667 863 q 671 895 671 880 q 622 901 662 896 l 532 975 l 548 1040 l 931 1059 l 1007 968 l 1014 958 m 926 1037 l 923 1041 l 561 1024 l 553 989 q 641 970 616 981 q 688 899 688 949 q 683 859 688 883 l 631 625 q 454 680 562 680 q 172 543 288 680 q 62 239 62 412 q 286 -13 62 -13 q 511 94 391 -13 l 526 94 q 686 -5 562 -5 q 842 47 753 -5 l 851 87 q 781 74 820 76 q 730 150 730 72 q 747 252 730 175 l 926 1037 m 606 518 l 522 142 q 396 74 459 74 q 283 236 283 74 q 343 509 283 392 q 495 633 407 633 q 576 602 547 633 q 606 519 606 570 l 606 518 m 590 519 q 588 542 590 532 q 575 543 577 543 q 416 391 473 543 q 372 155 372 276 q 376 93 372 119 q 396 91 389 91 q 506 151 451 91 l 590 519 z "},"e":{"ha":767,"x_min":47,"x_max":817,"o":"m 817 452 q 617 246 817 304 q 367 197 496 211 q 382 98 370 138 q 435 90 405 90 q 671 222 573 90 l 732 170 l 801 87 q 649 -52 741 -1 q 451 -104 555 -104 q 224 -31 305 -104 q 135 47 208 -17 q 126 55 132 49 q 47 268 47 135 q 165 565 47 440 q 494 697 292 697 q 711 633 652 697 q 789 541 731 610 q 817 452 817 506 m 730 534 q 494 680 730 680 q 189 566 311 680 q 64 268 64 450 q 150 56 64 130 q 372 -14 231 -14 q 562 35 471 -14 q 710 167 650 84 l 674 197 q 435 73 577 73 q 310 139 347 73 q 279 286 283 188 q 535 336 413 300 q 730 534 730 393 m 530 515 q 449 365 530 409 q 280 324 401 339 q 323 515 290 427 q 444 643 372 643 q 530 515 530 643 m 513 515 q 511 551 513 534 q 411 431 453 541 q 388 359 397 395 q 513 515 513 393 z "},"f":{"ha":610,"x_min":-77,"x_max":766,"o":"m 637 1076 q 598 916 622 1019 l 550 668 l 584 668 l 652 577 l 637 507 l 518 507 l 407 -19 q 296 -208 386 -118 q 136 -291 214 -290 l 13 -292 l -77 -219 l -63 -155 q 23 -142 -4 -151 q 70 -81 60 -130 l 196 507 l 106 581 l 125 667 l 227 667 l 237 713 q 418 1165 311 1046 q 712 1274 515 1274 l 766 1188 l 750 1114 q 725 1116 736 1116 q 637 1076 669 1116 m 696 1261 q 428 1154 523 1263 q 252 709 320 1031 l 240 650 l 139 650 l 127 597 l 229 597 l 86 -85 q 36 -155 75 -136 q -50 -171 12 -165 l -57 -202 l 56 -203 q 220 -117 143 -205 q 323 91 298 -30 l 428 597 l 550 597 l 562 650 l 441 650 q 507 987 462 763 q 530 1065 518 1029 q 587 1179 558 1148 q 682 1204 616 1210 l 696 1261 z "},"g":{"ha":893,"x_min":44,"x_max":930,"o":"m 930 586 l 844 688 l 640 644 q 453 697 573 697 q 157 556 277 697 q 44 243 44 422 q 118 37 44 106 q 210 -43 181 -21 q 352 -97 278 -97 q 420 -62 385 -90 q 196 -162 368 -125 l 174 -227 q 265 -304 201 -250 q 273 -304 269 -304 q 653 -233 532 -304 q 821 35 783 -157 l 930 586 m 500 80 q 292 -7 393 -7 q 118 62 178 -7 q 61 243 61 127 q 172 545 61 416 q 453 680 287 680 q 636 627 570 680 l 838 669 l 841 665 l 729 118 q 568 -147 689 -75 q 193 -215 454 -215 l 207 -178 l 213 -176 q 385 -113 326 -151 q 519 80 486 -48 l 500 80 m 605 515 l 532 147 q 402 79 470 79 q 282 240 282 79 q 328 479 282 363 q 494 630 389 630 q 575 598 545 630 q 605 515 605 567 l 605 515 m 589 516 q 587 539 589 532 q 574 540 581 540 q 414 391 473 540 q 370 159 370 279 q 376 98 370 125 q 402 96 389 96 q 516 155 462 96 l 589 516 z "},"h":{"ha":929,"x_min":42,"x_max":956,"o":"m 462 408 l 352 -81 l 132 -81 l 42 -9 l 240 865 q 245 897 244 883 q 217 901 236 899 l 127 975 l 142 1040 l 503 1059 l 579 968 l 586 958 l 519 660 q 676 697 594 697 q 805 645 758 697 q 884 551 833 613 q 913 465 913 517 q 899 361 913 412 l 848 171 q 836 102 840 140 q 889 117 848 102 l 956 21 l 942 -39 q 865 -77 914 -61 q 779 -93 817 -93 q 663 -59 709 -93 q 566 26 644 -45 q 524 129 526 62 q 545 275 522 189 q 585 416 558 322 q 599 490 596 458 q 462 408 536 478 m 855 49 l 865 88 q 795 75 829 74 q 743 152 743 75 q 812 445 743 187 q 825 547 825 494 q 781 646 825 608 q 676 680 739 680 q 408 562 540 680 l 390 562 l 498 1037 l 495 1041 l 155 1024 l 147 989 q 225 970 201 983 q 262 902 262 950 q 256 861 262 885 l 63 9 l 266 9 l 374 494 q 541 583 469 583 q 616 505 614 583 q 587 355 616 460 l 553 232 q 540 129 540 160 q 589 28 540 64 q 699 -3 632 -3 q 855 49 766 -3 z "},"i":{"ha":505,"x_min":87,"x_max":574,"o":"m 574 844 q 536 755 574 791 q 444 720 498 720 q 352 755 393 720 q 263 833 326 777 q 225 925 225 869 q 266 1020 225 982 q 364 1059 307 1059 q 471 1011 431 1059 l 547 921 q 574 844 574 889 m 87 559 l 106 640 q 243 697 171 697 q 382 644 336 697 q 459 553 408 614 q 487 467 487 519 q 473 361 487 410 l 418 164 q 404 100 411 138 q 459 112 437 100 l 527 16 l 513 -45 q 349 -100 440 -100 q 233 -66 279 -100 q 136 18 212 -52 q 94 122 94 56 q 120 281 94 185 q 162 427 123 292 q 178 492 169 451 l 87 559 m 486 925 q 450 1008 486 975 q 364 1042 414 1042 q 278 1008 314 1042 q 241 925 241 975 q 278 843 241 876 q 364 810 314 810 q 450 843 414 810 q 486 925 486 876 m 435 83 q 366 69 403 70 q 325 95 340 68 q 313 145 313 117 q 347 313 313 191 q 381 429 364 371 q 399 548 399 496 q 352 648 399 613 q 243 680 310 680 q 120 628 178 680 l 110 587 q 163 601 127 593 q 189 570 180 602 q 196 525 196 546 q 162 357 196 477 q 127 241 145 299 q 110 122 110 174 q 159 21 110 57 q 270 -10 202 -10 q 426 42 342 -10 l 435 83 z "},"j":{"ha":501,"x_min":-79,"x_max":572,"o":"m 572 844 q 534 755 572 791 q 442 720 496 720 q 351 755 393 720 q 261 833 325 777 q 223 925 223 869 q 264 1020 223 982 q 362 1059 305 1059 q 469 1011 429 1059 l 545 921 q 572 844 572 889 m 501 467 l 406 -21 q 294 -210 387 -118 q 134 -293 212 -292 l 11 -294 l -79 -221 l -65 -157 q 22 -144 -5 -153 q 68 -83 58 -132 l 182 448 q 186 492 188 478 l 94 560 l 113 640 q 256 697 176 697 q 399 640 353 697 q 471 555 417 619 q 501 467 501 519 m 484 925 q 448 1008 484 975 q 362 1042 412 1042 q 276 1008 312 1042 q 239 925 239 975 q 277 842 239 876 q 362 810 312 810 q 448 842 412 810 q 484 925 484 875 m 413 548 q 366 650 413 614 q 256 680 325 680 q 182 661 226 680 q 127 628 141 644 l 117 585 q 168 601 138 600 q 208 525 208 602 q 198 446 208 504 q 132 130 194 420 l 84 -87 q 35 -156 75 -137 q -52 -173 9 -168 l -58 -204 l 55 -205 q 219 -119 142 -207 q 321 89 294 -36 l 406 465 q 413 548 413 498 z "},"k":{"ha":882,"x_min":42,"x_max":951,"o":"m 831 111 l 899 16 l 884 -45 q 804 -85 858 -68 q 714 -100 753 -100 q 618 -85 650 -100 q 584 -62 601 -77 q 498 12 563 -44 q 441 96 465 42 q 410 176 430 123 l 352 -81 l 132 -81 l 42 -9 l 240 865 q 245 897 244 883 q 216 901 233 899 l 127 975 l 142 1040 l 503 1059 l 579 968 l 586 958 l 480 488 q 567 578 549 559 q 660 659 623 633 q 768 697 714 697 q 857 663 828 697 q 927 579 882 632 q 951 500 951 551 q 917 414 951 450 q 833 378 883 378 q 692 437 769 378 l 666 420 q 613 376 656 414 l 680 203 q 726 90 689 181 q 739 88 732 88 q 831 111 770 88 m 863 582 q 768 680 863 680 q 667 644 718 680 q 584 570 637 623 q 356 326 473 460 l 336 326 l 498 1037 l 495 1041 l 155 1024 l 147 989 q 225 970 201 983 q 262 902 262 950 q 256 861 262 888 l 63 9 l 266 9 l 322 261 l 377 314 q 457 103 415 207 q 527 13 483 39 q 635 -10 565 -10 q 797 42 728 -10 l 807 83 q 733 68 767 68 q 648 151 690 68 q 593 281 628 190 l 524 460 q 612 529 571 502 q 753 468 692 468 q 831 501 800 468 q 863 582 863 534 z "},"l":{"ha":489,"x_min":79,"x_max":583,"o":"m 583 958 l 404 164 q 388 96 399 144 q 454 112 410 98 l 522 16 l 507 -45 q 338 -100 431 -100 q 210 -58 259 -100 q 121 20 186 -38 q 79 122 79 59 q 92 229 79 168 l 236 865 q 241 898 241 887 q 213 901 235 899 l 123 975 l 138 1040 l 500 1059 l 575 968 l 583 958 m 494 1037 l 491 1041 l 152 1024 l 144 989 q 222 971 200 983 q 258 902 258 951 q 252 861 258 885 l 109 224 q 95 122 95 164 q 146 21 95 57 q 258 -10 191 -10 q 420 42 326 -10 l 431 83 q 357 69 400 71 q 312 94 328 68 q 298 145 298 115 q 316 248 298 169 l 494 1037 z "},"m":{"ha":1379,"x_min":62,"x_max":1406,"o":"m 1406 22 l 1391 -39 q 1228 -93 1324 -93 q 1114 -59 1160 -93 q 1017 26 1098 -47 q 973 129 973 65 q 985 234 973 193 q 1034 416 989 248 q 1048 490 1046 460 q 926 408 998 477 l 817 -81 l 596 -81 l 506 -9 l 602 416 q 614 490 611 456 q 486 408 562 478 l 377 -81 l 157 -81 l 66 -9 l 163 419 q 179 503 176 472 q 149 493 167 500 l 62 552 l 80 627 q 157 672 106 653 q 245 690 205 690 q 385 633 338 690 q 429 583 397 618 q 687 697 558 697 q 825 638 777 697 q 871 586 837 625 q 1124 697 1003 697 q 1257 642 1209 697 q 1333 552 1290 604 q 1362 465 1362 517 q 1348 361 1362 413 l 1298 171 q 1282 100 1297 168 q 1338 119 1318 100 l 1406 22 m 1314 90 q 1244 76 1282 77 q 1193 152 1193 75 q 1261 445 1193 187 q 1274 547 1274 494 q 1230 646 1274 610 q 1124 680 1188 680 q 979 642 1049 680 q 856 551 928 614 l 840 551 q 791 648 835 613 q 687 680 751 680 q 420 553 555 680 l 406 553 q 245 673 372 673 q 96 621 157 673 l 85 579 q 155 594 127 593 q 197 517 197 595 q 180 415 197 490 l 87 9 l 290 9 l 399 494 q 555 583 495 583 q 633 505 633 583 q 618 412 633 478 l 527 9 l 730 9 l 839 494 q 989 583 930 583 q 1065 505 1065 583 q 1002 232 1065 469 q 990 129 990 186 q 1039 28 990 64 q 1149 -3 1082 -3 q 1304 49 1219 -3 l 1314 90 z "},"n":{"ha":949,"x_min":58,"x_max":977,"o":"m 977 22 l 962 -39 q 799 -93 891 -93 q 671 -49 720 -93 q 587 25 649 -29 q 544 129 544 64 q 557 236 544 191 q 605 416 563 257 q 617 491 614 452 q 482 408 557 479 l 372 -81 l 153 -81 l 62 -9 l 159 419 q 172 488 170 469 q 149 484 165 488 l 58 552 l 77 633 q 142 667 98 649 q 240 690 199 690 q 384 634 332 690 l 429 586 q 696 697 559 697 q 827 643 781 697 q 904 552 847 621 q 932 465 932 517 q 920 361 932 410 l 869 171 q 854 103 856 123 q 909 119 882 102 l 977 22 m 885 90 q 815 76 849 75 q 764 152 764 77 q 831 445 764 187 q 844 547 844 494 q 800 646 844 608 q 696 680 759 680 q 417 553 554 680 l 402 553 q 240 673 376 673 q 163 655 212 673 q 91 621 115 638 l 81 579 q 151 594 117 602 q 192 517 192 586 q 175 415 192 490 l 83 9 l 286 9 l 395 494 q 560 583 489 583 q 636 505 636 583 q 573 232 636 469 q 561 129 561 186 q 610 28 561 64 q 720 -3 653 -3 q 875 49 808 -3 l 885 90 z "},"o":{"ha":875,"x_min":46,"x_max":910,"o":"m 910 325 q 788 26 910 146 q 450 -103 656 -103 q 227 -31 312 -103 q 217 -23 224 -29 q 122 60 188 -4 q 46 265 46 135 q 180 582 46 460 q 507 699 309 699 q 774 597 686 699 q 855 501 822 543 q 910 325 910 433 m 822 406 q 730 616 822 543 q 507 682 647 682 q 192 570 316 682 q 62 265 62 454 q 151 57 62 132 q 370 -14 234 -14 q 703 113 573 -14 q 822 406 822 231 m 605 483 q 564 205 605 334 q 392 23 507 23 q 279 187 279 23 q 319 464 279 337 q 494 646 377 646 q 605 483 605 646 m 588 483 q 581 555 588 526 l 574 555 q 411 391 466 555 q 368 106 368 262 q 374 41 368 69 q 392 40 382 40 q 541 191 488 40 q 588 483 588 323 z "},"p":{"ha":910,"x_min":-105,"x_max":947,"o":"m 314 -300 l -15 -301 l -105 -229 l -90 -164 q -4 -151 -31 -160 q 42 -91 31 -140 l 156 419 q 168 485 165 460 q 157 487 162 487 q 146 484 151 487 l 54 552 l 74 633 q 237 690 157 690 q 376 637 332 690 q 411 599 380 633 q 635 697 526 697 q 815 625 748 697 q 891 535 821 619 q 947 347 947 469 q 837 39 947 170 q 547 -99 720 -99 q 441 -81 496 -99 q 376 -51 394 -66 l 314 -300 m 292 45 q 467 -9 400 -9 q 751 126 637 -9 q 859 429 859 254 q 635 680 859 680 q 408 574 527 680 l 394 574 q 335 651 371 630 q 237 673 298 673 q 87 621 159 673 l 78 579 q 148 594 117 604 q 178 574 171 586 q 189 517 189 558 q 172 415 189 492 l 58 -95 q 8 -164 47 -146 q -77 -180 -16 -175 l -84 -212 l 231 -212 l 292 45 m 637 431 q 610 233 637 327 q 511 66 576 121 q 427 32 471 32 q 345 64 374 32 q 315 149 315 96 l 315 149 l 398 525 q 525 594 454 594 q 637 431 637 594 m 621 431 q 613 504 621 474 l 604 504 q 486 439 538 504 l 403 67 q 404 50 403 64 q 427 49 415 49 q 500 79 465 49 q 595 241 564 132 q 621 431 621 330 z "},"q":{"ha":895,"x_min":45,"x_max":930,"o":"m 366 -102 q 209 -51 268 -102 q 119 28 185 -31 q 45 239 45 96 q 157 554 45 419 q 454 697 277 697 q 640 644 574 697 l 844 688 l 930 586 l 766 -142 q 765 -152 766 -145 q 815 -157 785 -155 l 885 -246 l 874 -294 l 516 -294 l 426 -221 l 454 -85 q 366 -102 411 -102 m 788 -204 l 795 -172 q 673 -96 673 -162 q 679 -59 673 -86 l 842 665 l 838 669 l 635 627 q 454 680 570 680 q 169 543 283 680 q 61 239 61 412 q 286 -13 61 -13 q 488 75 372 -13 l 507 75 l 447 -204 l 788 -204 m 605 515 l 521 142 q 395 74 462 74 q 283 236 283 74 q 341 507 283 393 q 494 630 404 630 q 575 598 545 630 q 605 515 605 567 l 605 515 m 588 516 q 587 539 588 530 q 573 540 580 540 q 414 390 471 540 q 371 155 371 276 q 376 92 371 118 q 395 91 385 91 q 506 151 454 91 l 588 516 z "},"r":{"ha":735,"x_min":64,"x_max":824,"o":"m 83 552 l 102 633 q 239 690 173 690 q 381 636 334 690 l 425 587 q 623 697 530 697 q 720 659 686 697 q 793 572 739 636 q 824 466 824 536 q 790 358 824 401 q 689 313 753 313 q 618 332 648 313 q 603 344 612 336 q 507 431 568 371 q 479 399 492 414 l 374 -81 l 154 -81 l 64 -9 l 157 419 q 171 486 168 468 l 83 552 m 736 547 q 623 680 736 680 q 416 553 534 680 l 401 553 q 239 673 374 673 q 116 621 183 673 l 106 579 q 157 592 131 592 q 191 517 191 592 q 174 415 191 492 l 84 9 l 288 9 l 391 484 q 552 606 459 565 q 510 475 510 505 q 543 420 510 440 q 609 403 572 403 q 704 446 670 403 q 736 547 736 485 z "},"s":{"ha":711,"x_min":7,"x_max":765,"o":"m 41 41 q 7 120 7 71 q 40 197 7 168 q 121 227 73 227 q 220 178 171 227 q 295 89 224 175 q 322 40 305 76 q 420 151 420 56 q 418 163 420 155 q 357 186 396 173 q 241 252 284 212 q 159 324 215 274 q 95 467 95 383 q 213 648 95 585 q 436 697 307 697 q 667 629 610 697 l 742 541 q 765 473 765 513 q 736 407 765 432 q 665 382 707 382 q 578 419 627 382 q 505 486 574 422 q 463 545 482 506 q 435 526 450 539 q 396 447 396 494 l 396 442 q 461 418 410 436 q 605 330 557 384 q 678 242 626 304 q 720 130 720 193 q 605 -56 720 4 q 376 -104 515 -104 q 151 -54 225 -104 q 131 -38 144 -49 l 41 41 m 297 -14 q 517 31 430 -14 q 632 212 632 89 q 456 401 632 339 q 345 450 368 433 q 308 528 308 476 q 351 615 308 581 q 445 650 390 646 q 488 533 471 563 q 585 472 524 472 q 650 495 623 472 q 677 554 677 517 q 436 680 677 680 q 225 635 313 680 q 112 467 112 578 q 280 276 112 334 q 391 230 365 246 q 437 151 437 200 q 276 20 437 20 l 270 20 q 224 143 247 104 q 121 210 184 210 q 52 185 81 210 q 23 120 23 160 q 130 9 23 44 q 297 -14 203 -14 z "},"t":{"ha":574,"x_min":67,"x_max":641,"o":"m 492 113 l 564 18 l 549 -43 q 358 -99 475 -99 q 226 -56 275 -99 l 141 18 q 94 123 94 60 q 109 230 94 167 l 171 507 l 157 507 l 67 581 l 87 667 l 211 667 l 259 873 l 492 873 l 561 783 l 536 667 l 572 667 l 641 577 l 625 507 l 499 507 l 418 146 q 408 94 410 112 q 492 113 427 91 m 551 650 l 424 650 l 471 856 l 272 856 l 224 650 l 100 650 l 88 597 l 210 597 l 125 226 q 111 123 111 166 q 164 22 111 58 q 278 -9 210 -9 q 463 45 397 -9 l 473 87 q 376 70 429 73 q 332 95 349 68 q 317 146 317 118 q 330 230 317 169 l 412 597 l 539 597 l 551 650 z "},"u":{"ha":943,"x_min":61,"x_max":973,"o":"m 973 22 l 959 -39 q 796 -94 882 -94 q 668 -54 713 -94 l 597 7 q 340 -101 471 -101 q 231 -64 274 -101 q 142 14 206 -43 q 98 122 98 54 q 124 279 98 178 q 154 384 139 332 q 175 490 171 446 q 153 484 168 490 l 61 551 l 81 632 q 243 689 145 689 q 386 631 337 689 l 458 545 q 488 458 488 510 q 475 353 488 404 l 427 173 q 413 104 416 134 q 543 183 470 113 l 654 677 l 876 687 l 960 587 l 866 170 q 850 99 861 150 q 906 118 878 99 l 973 22 m 882 89 q 812 75 851 77 q 770 100 784 74 q 760 151 759 122 q 778 254 762 181 l 871 667 l 869 669 l 667 661 l 558 175 q 397 86 467 86 q 323 163 323 86 q 353 315 323 207 q 384 426 368 370 q 400 540 400 489 q 353 640 400 604 q 243 672 310 672 q 164 656 211 672 q 94 620 117 640 l 85 578 q 138 595 113 595 q 196 517 196 595 q 129 224 196 481 q 115 122 115 169 q 157 23 115 59 q 260 -12 197 -12 q 536 117 399 -12 l 551 117 q 716 -4 576 -4 q 798 13 748 -4 q 872 48 847 29 l 882 89 z "},"v":{"ha":843,"x_min":54,"x_max":892,"o":"m 892 438 q 772 70 892 229 q 450 -103 642 -103 q 261 -46 330 -103 q 151 55 172 28 q 104 196 104 113 q 142 356 104 237 q 174 488 170 441 q 164 489 170 489 q 145 484 155 489 l 54 551 l 73 632 q 243 689 140 689 q 380 637 332 689 q 458 545 396 620 q 487 458 487 510 q 451 286 487 400 q 416 122 416 172 l 416 89 q 450 85 431 85 q 610 160 550 85 q 665 331 665 229 q 659 384 665 357 q 631 416 653 397 q 597 446 619 426 q 546 568 546 495 q 637 690 546 662 q 681 697 661 697 q 781 653 744 697 l 854 566 q 892 438 892 522 m 804 519 q 681 680 804 680 q 642 673 664 680 q 563 568 563 649 q 586 486 563 520 q 644 427 600 466 q 675 389 668 406 q 682 331 682 359 q 622 148 682 222 q 450 68 557 68 q 328 203 328 68 q 363 369 328 256 q 399 540 399 482 q 352 640 399 604 q 243 672 309 672 q 160 658 207 672 q 87 620 109 642 l 77 578 q 147 593 113 602 q 195 517 195 581 q 158 354 195 463 q 121 196 121 245 q 195 35 121 90 q 371 -14 260 -14 q 686 157 557 -14 q 804 519 804 313 z "},"w":{"ha":1284,"x_min":64,"x_max":1335,"o":"m 1335 438 q 1214 70 1335 227 q 886 -103 1082 -103 q 704 -47 768 -103 l 625 23 q 357 -101 501 -101 q 245 -62 290 -101 q 155 17 229 -48 q 102 152 102 64 q 166 418 102 193 q 180 490 176 452 q 156 484 173 490 l 64 551 l 84 632 q 248 689 156 689 q 389 632 341 689 q 465 543 408 610 q 492 456 492 510 q 471 325 492 397 l 432 193 q 416 103 418 144 q 555 188 486 110 q 567 278 555 227 l 656 677 l 878 687 l 962 587 l 875 199 q 865 111 865 157 l 865 89 q 895 87 878 87 q 1053 161 994 87 q 1107 331 1107 230 q 1101 384 1107 357 q 1039 446 1100 386 q 988 568 988 495 q 1027 661 988 625 q 1122 697 1065 697 q 1221 655 1185 697 q 1299 563 1263 608 q 1305 555 1301 560 q 1335 438 1335 511 m 1246 519 q 1122 680 1246 680 q 1038 649 1072 680 q 1004 568 1004 618 q 1027 486 1004 519 q 1086 427 1041 466 q 1117 389 1109 406 q 1124 331 1124 359 q 1065 149 1124 223 q 895 70 1000 70 q 777 192 777 70 q 787 282 777 240 l 873 667 l 871 669 l 669 661 l 583 274 q 571 184 571 219 l 571 181 q 406 86 489 86 q 348 114 370 86 q 328 177 328 140 q 383 409 328 218 q 404 538 404 479 q 357 639 404 603 q 248 672 315 672 q 98 620 161 672 l 88 578 q 139 597 117 597 q 158 593 149 597 q 195 566 187 582 q 200 517 200 555 q 137 254 200 477 q 119 152 119 191 q 162 34 119 79 q 277 -12 205 -12 q 570 145 431 -12 q 806 -14 618 -14 q 1127 157 997 -14 q 1246 519 1246 313 z "},"x":{"ha":803,"x_min":-5,"x_max":885,"o":"m 730 111 l 798 16 l 784 -45 q 614 -100 718 -100 q 488 -59 534 -100 q 404 15 458 -32 q 365 66 380 36 l 357 55 q 283 -46 308 -22 q 174 -97 233 -97 q 104 -68 134 -97 l 31 1 q -5 85 -5 36 q 29 185 -5 146 q 124 224 63 224 q 239 199 172 224 q 307 283 267 224 q 250 490 281 389 q 231 500 235 500 q 184 484 201 498 l 92 552 l 111 633 q 281 690 186 690 q 426 631 376 690 l 494 551 q 516 519 508 534 q 595 638 575 615 q 707 697 646 697 q 787 662 757 697 q 859 576 804 642 q 885 506 885 546 q 850 413 885 449 q 758 377 814 377 q 655 401 722 377 q 577 308 634 387 q 639 87 587 264 q 730 111 676 88 m 797 587 q 772 654 797 628 q 707 680 748 680 q 593 612 645 680 q 519 490 569 570 l 479 429 q 427 600 448 564 q 281 673 385 673 q 125 621 195 673 l 115 578 q 190 595 160 602 q 235 570 220 587 q 260 512 245 557 q 326 279 298 393 q 241 180 277 209 q 124 207 170 207 q 41 173 71 207 q 12 85 12 139 q 94 -7 12 -7 q 199 43 150 -7 q 271 141 227 72 l 334 240 q 367 109 342 203 q 534 -10 399 -10 q 697 42 621 -10 l 707 83 q 633 68 660 69 q 556 151 581 66 q 488 391 505 318 q 574 492 517 431 q 678 467 644 467 q 764 500 732 467 q 797 587 797 534 z "},"y":{"ha":921,"x_min":60,"x_max":957,"o":"m 195 -227 l 216 -162 q 447 -62 373 -128 q 341 -97 405 -97 q 231 -60 275 -97 q 144 17 222 -52 q 97 127 97 58 q 111 233 97 184 q 162 418 123 275 q 176 488 174 461 q 167 488 172 488 q 152 484 157 488 l 60 551 l 80 632 q 243 689 152 689 q 387 631 340 689 q 460 543 405 609 q 488 458 488 510 q 475 353 488 400 l 426 177 q 412 109 416 142 q 549 186 477 116 l 650 677 l 871 687 l 886 670 l 957 586 l 841 35 q 671 -239 799 -166 q 293 -304 556 -304 q 286 -304 289 -304 l 195 -227 m 214 -215 q 587 -159 485 -215 q 753 118 709 -92 l 868 665 l 864 669 l 664 661 l 564 178 q 399 91 477 91 q 323 168 323 91 q 352 316 323 212 q 384 427 368 371 q 399 540 399 488 q 352 640 399 604 q 243 672 309 672 q 94 620 152 672 l 84 578 q 154 593 125 602 q 191 566 182 585 q 196 517 196 553 q 128 229 196 480 q 114 127 114 176 q 157 28 114 64 q 261 -7 197 -7 q 536 117 402 -7 l 553 117 q 418 -106 524 -33 q 233 -176 355 -149 l 227 -178 l 214 -215 z "},"z":{"ha":711,"x_min":-20,"x_max":808,"o":"m 724 165 l 677 -81 l 70 -81 l -20 -9 l -6 60 l 383 526 q 340 514 366 524 q 236 372 287 494 l 189 372 l 99 445 l 143 677 l 739 677 l 808 587 l 798 538 l 402 65 q 455 69 434 66 q 520 122 494 77 q 593 255 555 182 l 654 255 l 724 165 m 711 624 l 718 661 l 157 661 l 119 462 l 151 462 q 237 596 197 570 q 387 621 275 621 l 483 621 l 9 52 l 0 9 l 591 9 l 635 238 l 603 238 q 534 114 574 181 q 484 61 511 73 q 413 50 465 52 q 352 47 377 47 q 230 49 296 47 l 711 624 z "},"{":{"ha":690,"x_min":47,"x_max":867,"o":"m 867 961 l 857 905 q 794 898 812 901 q 736 876 764 892 q 660 747 677 842 l 637 618 q 519 422 614 486 q 335 355 454 378 q 387 313 366 337 q 461 225 394 304 q 500 109 500 178 q 493 36 500 73 l 467 -93 q 463 -134 463 -109 l 463 -151 q 545 -161 490 -159 l 615 -251 l 607 -299 q 349 -275 406 -299 q 306 -248 334 -268 l 218 -170 q 165 -35 165 -124 q 172 33 165 -11 q 210 205 191 113 q 215 256 215 233 q 213 273 215 262 q 137 283 183 279 l 47 357 l 73 474 q 230 503 184 482 q 321 627 309 538 q 339 772 326 675 q 489 1004 363 941 q 787 1051 582 1051 l 797 1051 l 867 961 m 777 1034 q 510 995 600 1034 q 357 783 378 938 q 337 625 351 736 q 247 492 324 531 q 86 458 195 467 l 67 372 q 177 349 144 366 q 231 256 231 323 q 226 203 231 231 q 188 31 208 113 q 182 -35 182 -12 q 273 -186 182 -146 q 519 -217 345 -217 l 526 -178 q 375 -52 375 -166 q 394 69 375 -11 q 412 191 412 149 q 225 376 412 336 l 240 441 q 441 515 374 465 q 549 701 528 578 l 572 829 q 713 987 595 964 q 770 994 730 991 l 777 1034 z "},"|":{"ha":534,"x_min":220,"x_max":422,"o":"m 422 -281 l 308 -281 l 220 -208 l 220 1042 l 351 1042 l 422 951 l 422 -281 m 334 -191 l 334 1025 l 237 1025 l 237 -191 l 334 -191 z "},"}":{"ha":687,"x_min":-85,"x_max":735,"o":"m -72 -162 q 59 -130 20 -156 q 124 -11 109 -97 q 161 172 151 142 q 268 319 192 267 q 458 389 327 361 q 425 412 434 404 l 341 486 q 283 625 283 536 q 302 747 283 667 q 321 868 321 827 q 318 896 321 884 q 256 904 293 901 l 167 978 l 180 1050 l 186 1050 q 446 1017 368 1050 q 521 958 483 1000 q 583 884 552 921 q 618 769 618 841 q 594 621 618 714 q 569 478 569 526 l 569 471 q 665 460 596 463 l 735 370 l 712 269 q 628 260 655 264 q 463 109 481 235 q 443 -50 458 67 q 300 -262 420 -205 q -3 -300 220 -300 l -85 -235 l -72 -162 m 626 358 l 645 444 q 535 466 570 448 q 481 559 481 493 q 506 705 481 609 q 530 850 530 801 q 439 1002 530 962 q 193 1033 368 1033 l 186 993 q 292 966 260 986 q 337 868 337 937 q 318 747 337 827 q 300 625 300 667 q 487 440 300 480 l 472 374 q 271 300 334 346 q 163 115 184 239 l 140 -14 q 77 -138 125 -101 q -58 -178 34 -172 l -64 -218 q 217 -174 125 -218 q 320 -77 286 -141 q 357 52 347 -28 q 376 192 363 98 q 467 325 389 286 q 626 358 517 350 z "},"~":{"ha":968,"x_min":111,"x_max":966,"o":"m 966 417 q 881 271 935 331 q 723 187 806 187 q 550 247 661 187 q 410 306 440 306 q 271 171 328 306 l 201 199 l 111 276 q 205 438 143 370 q 364 519 279 519 q 539 460 429 519 q 678 401 649 401 q 812 538 753 401 l 897 503 l 966 417 m 876 494 l 821 516 q 678 384 762 384 q 534 443 642 384 q 364 503 425 503 q 220 429 289 503 q 132 286 161 368 l 186 263 q 330 396 245 396 q 473 337 363 396 q 644 277 584 277 q 795 357 724 277 q 876 494 845 414 z "},"¡":{"ha":519,"x_min":78,"x_max":587,"o":"m 587 774 q 550 685 587 722 q 459 648 512 648 q 376 680 415 648 q 286 758 347 703 q 243 856 243 797 q 283 951 243 912 q 380 990 323 990 q 485 941 444 990 l 559 852 q 587 774 587 819 m 442 567 q 435 294 435 422 l 435 134 q 427 23 435 57 q 271 -101 397 -101 q 197 -75 227 -101 l 111 1 q 78 77 78 30 q 119 215 78 123 q 305 657 183 358 l 371 657 l 442 567 m 499 856 q 464 939 499 905 q 380 973 429 973 q 295 939 330 973 q 260 856 260 905 q 296 772 260 807 q 380 738 331 738 q 464 772 429 738 q 499 856 499 807 m 353 640 l 317 640 q 134 208 267 507 q 95 77 95 120 q 122 13 95 37 q 191 -12 150 -12 q 339 106 311 -12 q 347 215 347 138 l 347 376 q 353 640 347 500 z "},"¢":{"ha":833,"x_min":77,"x_max":879,"o":"m 879 481 q 839 395 879 427 q 747 366 802 366 q 694 387 718 366 l 654 422 l 588 113 q 712 225 652 145 l 768 179 l 836 96 q 722 -26 777 13 q 543 -94 644 -80 l 502 -284 l 436 -284 l 346 -212 l 374 -82 q 256 -29 302 -66 q 248 -22 254 -28 q 159 56 214 6 q 77 262 77 129 q 220 576 77 453 q 543 701 351 690 l 581 874 l 663 874 l 732 784 l 709 677 q 783 627 758 658 l 857 540 q 879 481 879 513 m 791 562 q 726 652 791 618 q 614 684 673 680 l 605 684 l 642 857 l 594 857 l 556 684 q 233 564 363 675 q 94 262 94 445 q 408 -6 94 -1 l 367 -195 l 416 -195 l 456 -5 q 621 52 553 8 q 745 176 685 94 l 715 201 q 484 72 614 72 l 473 72 l 587 602 q 591 539 589 571 q 667 456 602 456 q 753 483 719 456 q 791 562 791 511 m 548 646 l 427 80 q 312 280 312 127 q 389 549 312 447 q 548 646 454 635 m 496 487 q 400 199 400 385 q 414 104 400 145 l 496 487 z "},"£":{"ha":949,"x_min":6,"x_max":1028,"o":"m 205 345 l 115 418 l 136 510 l 262 510 q 301 734 283 680 q 439 913 338 842 q 718 999 562 999 q 916 923 847 999 q 997 827 950 885 q 1028 734 1028 789 q 1000 643 1028 679 q 916 604 970 604 q 833 631 865 604 l 745 708 q 711 792 711 738 q 717 836 711 810 q 692 817 709 831 q 615 654 635 766 q 591 511 609 616 l 768 510 l 838 420 l 821 345 l 566 345 q 478 188 533 241 l 846 189 l 915 98 l 874 -81 l 96 -81 l 6 -9 l 39 134 q 239 345 204 187 l 205 345 m 689 939 q 762 926 732 939 q 728 792 728 830 q 759 719 728 745 q 836 694 788 694 q 915 730 886 694 q 940 816 940 764 q 865 943 940 897 q 718 982 802 982 q 450 901 566 982 q 300 665 323 812 q 276 493 288 592 l 149 493 l 136 435 l 268 435 q 215 238 257 306 q 53 121 165 159 l 27 9 l 788 9 l 825 172 l 272 172 l 272 196 q 406 291 361 240 q 480 435 450 341 l 734 435 l 747 493 l 486 493 q 527 737 506 616 q 576 869 540 812 q 689 939 622 939 z "},"¤":{"ha":968,"x_min":142,"x_max":932,"o":"m 932 24 l 862 -51 l 783 18 l 699 102 q 583 70 635 70 q 462 106 524 70 l 304 -52 l 224 17 l 142 107 l 296 267 q 264 387 264 323 q 297 510 264 450 l 142 672 l 227 758 l 384 598 q 503 633 441 633 q 621 600 564 633 l 779 758 l 865 672 l 932 591 l 779 430 q 814 306 814 366 q 783 191 814 250 l 865 106 l 932 24 m 841 106 l 689 264 q 726 387 726 328 q 689 513 726 446 l 841 672 l 779 734 l 624 578 q 503 616 563 616 q 381 576 441 616 l 227 734 l 165 672 l 317 513 q 280 387 280 448 q 318 264 280 323 l 165 107 l 224 41 l 381 198 q 503 160 447 160 q 627 197 556 160 l 782 43 l 841 106 m 646 387 q 605 283 646 326 q 503 239 564 239 q 401 283 443 239 q 359 387 359 326 q 400 493 359 449 q 503 536 442 536 q 605 492 564 536 q 646 387 646 448 m 630 387 q 618 441 630 416 q 583 446 602 446 q 486 405 526 446 q 447 306 447 364 q 452 267 447 287 q 503 256 477 256 q 593 295 557 256 q 630 387 630 334 z "},"¥":{"ha":997,"x_min":0,"x_max":0,"o":""},"¦":{"ha":534,"x_min":220,"x_max":422,"o":"m 422 409 l 308 409 l 220 482 l 220 960 l 351 960 l 422 870 l 422 409 m 422 -283 l 308 -283 l 220 -210 l 220 269 l 351 269 l 422 178 l 422 -283 m 334 499 l 334 943 l 237 943 l 237 499 l 334 499 m 334 -193 l 334 252 l 237 252 l 237 -193 l 334 -193 z "},"§":{"ha":776,"x_min":26,"x_max":852,"o":"m 444 488 q 355 340 355 429 q 357 317 355 329 q 449 269 396 294 q 531 410 531 327 q 522 450 531 431 q 444 488 510 456 m 65 -111 q 26 -21 26 -76 q 53 47 26 21 q 121 73 79 73 q 196 37 165 73 l 269 -50 q 294 -91 284 -68 q 415 21 415 -81 q 410 46 415 33 q 323 88 367 67 q 242 140 273 114 q 149 221 215 163 q 87 357 87 277 q 286 591 87 515 l 247 625 q 193 750 193 672 q 319 941 193 873 q 551 995 420 995 q 751 930 694 995 q 829 838 786 890 q 852 768 852 809 q 766 683 852 683 q 707 705 733 683 l 623 779 q 593 817 602 798 q 581 845 590 821 q 518 823 545 839 q 465 728 465 790 q 465 720 465 724 l 579 665 q 680 591 644 632 q 755 503 691 578 q 798 391 798 452 q 604 164 798 240 l 654 102 q 688 3 688 60 q 566 -186 688 -120 q 336 -239 467 -239 q 151 -186 218 -239 q 65 -111 130 -170 m 495 507 q 547 410 547 466 q 451 250 547 316 q 321 321 355 294 q 267 422 267 363 q 363 579 267 515 q 495 507 413 555 m 242 -110 q 199 3 229 -68 q 121 56 169 56 q 43 -21 43 56 q 149 -136 43 -104 q 256 -149 191 -149 q 479 -99 384 -149 q 600 84 600 -36 q 477 237 600 183 q 709 472 709 319 q 623 619 709 561 l 463 701 q 376 809 376 746 q 431 910 376 876 q 548 939 477 939 l 553 939 q 565 937 557 939 q 608 825 579 893 q 686 773 638 773 q 764 850 764 773 q 551 978 764 978 q 331 928 427 978 q 209 750 209 866 q 336 591 209 650 q 177 513 225 553 q 104 357 104 454 q 189 211 104 269 q 347 129 242 184 q 432 21 432 83 q 259 -111 432 -111 l 254 -111 l 242 -110 z "},"¨":{"ha":690,"x_min":153,"x_max":796,"o":"m 464 844 q 430 761 464 795 q 348 726 396 726 q 268 759 305 726 l 195 823 q 153 916 153 859 q 190 1005 153 968 q 277 1042 226 1042 q 372 996 334 1042 q 436 920 388 977 q 464 844 464 887 m 386 916 q 354 994 386 961 q 277 1026 322 1026 q 200 994 232 1026 q 168 916 168 961 q 200 838 168 870 q 277 806 232 806 q 354 838 322 806 q 386 916 386 870 m 796 844 q 762 761 796 795 q 680 726 728 726 q 600 759 637 726 l 527 823 q 486 916 486 859 q 522 1005 486 968 q 610 1042 558 1042 q 704 996 666 1042 q 768 920 720 977 q 796 844 796 887 m 718 916 q 686 994 718 961 q 610 1026 654 1026 q 532 994 564 1026 q 500 916 500 961 q 532 838 500 870 q 610 806 564 806 q 686 838 654 806 q 718 916 718 870 z "},"©":{"ha":1296,"x_min":73,"x_max":1336,"o":"m 1336 327 q 1167 -98 1336 77 q 749 -272 998 -272 q 382 -143 543 -272 q 272 -47 363 -128 q 73 408 73 134 q 243 838 73 663 q 669 1016 415 1016 q 1091 838 918 1016 q 1203 708 1114 814 q 1336 327 1336 549 m 1248 408 q 1082 826 1248 655 q 669 999 915 999 q 256 827 422 999 q 90 408 90 655 q 255 -9 90 161 q 669 -182 422 -182 q 1082 -9 915 -182 q 1248 408 1248 161 m 1200 408 q 1050 20 1200 178 q 669 -140 897 -140 q 288 20 439 -140 q 138 408 138 178 q 288 796 138 639 q 669 957 439 957 q 1050 796 897 957 q 1200 408 1200 638 m 1183 408 q 1040 779 1183 625 q 749 867 914 867 q 373 709 523 867 q 226 327 226 553 q 320 15 226 151 q 669 -123 464 -123 q 1038 33 890 -123 q 1183 408 1183 186 m 1033 177 q 756 -3 957 -3 q 529 75 624 -3 q 428 164 505 94 q 336 401 336 252 q 436 654 336 557 q 691 752 536 752 q 852 712 775 752 l 873 745 l 930 745 l 1001 654 l 1004 404 l 958 404 l 872 477 q 821 601 844 562 q 777 608 800 608 q 645 512 686 608 q 615 336 615 443 q 639 176 615 239 q 713 161 671 161 q 906 294 831 161 l 964 262 l 1033 177 m 943 255 l 912 271 q 713 144 838 144 q 527 418 527 144 q 558 600 527 528 q 697 699 602 699 q 822 630 773 699 q 884 494 854 585 l 916 494 l 913 728 l 882 728 l 857 690 q 691 735 774 735 q 448 642 543 735 q 353 401 353 549 q 443 173 353 258 q 677 87 533 87 q 943 255 868 87 z "},"ª":{"ha":761,"x_min":107,"x_max":893,"o":"m 893 435 l 880 382 q 715 338 766 338 q 606 372 642 338 q 562 408 591 385 q 387 332 475 332 q 255 373 300 332 q 146 476 154 465 q 107 624 107 528 q 202 883 107 774 q 450 997 301 997 q 596 954 541 997 l 769 989 l 782 973 l 852 890 l 774 555 q 766 510 772 542 q 826 530 788 514 l 893 435 m 802 502 q 745 492 771 492 q 671 555 671 492 q 686 638 671 574 l 764 969 l 762 970 l 592 937 q 450 980 538 980 q 214 871 308 980 q 124 624 124 768 q 308 422 124 422 q 488 507 396 422 l 502 507 q 635 428 531 428 q 793 469 684 428 l 802 502 m 567 844 l 499 551 q 400 492 448 492 q 308 625 308 492 q 345 819 308 730 q 482 939 393 939 q 567 844 567 939 l 567 844 m 550 848 q 431 732 475 840 q 396 543 396 644 q 400 509 397 537 q 484 559 439 509 l 550 848 z "},"«":{"ha":841,"x_min":104,"x_max":905,"o":"m 905 564 l 646 280 l 793 13 l 753 -16 l 610 105 q 542 166 591 124 l 525 180 q 429 266 484 213 q 397 328 401 293 l 353 280 l 501 13 l 460 -16 l 318 105 q 249 166 298 123 l 233 180 q 151 250 162 238 q 104 340 104 298 q 182 475 104 422 q 507 686 327 574 l 545 646 l 613 564 q 800 686 675 606 l 837 646 l 905 564 m 814 646 l 797 664 q 484 461 619 553 q 413 340 413 413 q 441 278 413 305 q 674 76 476 244 l 703 97 l 555 363 l 814 646 m 522 646 l 505 664 q 191 461 319 549 q 121 340 121 414 q 148 278 121 304 q 381 76 178 249 l 410 97 l 263 363 l 522 646 z "},"¬":{"ha":968,"x_min":126,"x_max":947,"o":"m 947 -47 l 833 -47 l 745 26 l 744 273 l 214 273 l 126 347 l 126 474 l 875 474 l 947 384 l 947 -47 m 859 43 l 859 457 l 142 457 l 142 363 l 762 363 l 762 43 l 859 43 z "},"®":{"ha":1296,"x_min":73,"x_max":1336,"o":"m 1336 327 q 1167 -98 1336 77 q 749 -272 998 -272 q 382 -143 543 -272 q 272 -47 363 -128 q 73 408 73 134 q 243 838 73 663 q 669 1016 415 1016 q 1091 838 918 1016 q 1203 708 1114 814 q 1336 327 1336 549 m 1248 408 q 1082 826 1248 655 q 669 999 915 999 q 256 827 422 999 q 90 408 90 655 q 255 -9 90 161 q 669 -182 422 -182 q 1082 -9 915 -182 q 1248 408 1248 161 m 1200 408 q 1050 20 1200 178 q 669 -140 897 -140 q 288 20 439 -140 q 138 408 138 178 q 288 796 138 639 q 669 957 439 957 q 1050 796 897 957 q 1200 408 1200 638 m 1183 408 q 1040 779 1183 625 q 749 867 914 867 q 407 738 550 867 l 710 738 q 924 671 868 738 l 998 583 q 1026 498 1026 549 q 877 329 1026 373 q 987 184 913 281 q 1028 155 1013 161 q 1074 146 1053 146 l 1082 146 l 1103 119 q 1183 408 1183 246 m 1065 107 l 1065 130 q 979 170 1014 136 q 941 209 954 193 q 783 415 897 267 q 892 469 857 437 q 938 580 938 510 q 710 721 938 721 l 376 721 l 376 696 q 457 656 448 680 q 462 627 462 645 l 462 195 q 435 144 462 159 q 376 130 418 136 l 376 107 l 680 107 l 680 130 q 606 167 618 139 q 600 198 600 178 l 600 389 l 635 389 q 838 107 736 264 l 1065 107 m 1018 17 l 913 17 l 829 90 q 688 294 754 206 l 687 146 q 696 146 690 146 l 768 56 l 768 17 l 448 17 l 359 90 l 359 145 q 404 152 387 148 q 441 172 435 159 q 445 195 445 180 l 445 610 l 359 683 l 359 690 q 226 327 226 538 q 320 15 226 151 q 669 -123 464 -123 q 1018 17 873 -123 m 783 567 q 640 418 783 418 l 600 418 l 600 690 l 642 690 q 783 567 783 690 m 766 567 q 764 597 766 586 q 721 600 745 600 l 688 600 l 687 440 q 766 567 766 461 z "},"¯":{"ha":957,"x_min":0,"x_max":0,"o":""},"°":{"ha":579,"x_min":111,"x_max":656,"o":"m 656 684 q 591 522 656 585 q 427 460 527 460 q 276 512 338 460 q 185 593 258 526 q 111 766 111 660 q 178 934 111 869 q 347 999 244 999 q 532 918 464 999 l 609 826 q 656 684 656 770 m 568 766 q 506 922 568 862 q 347 982 444 982 q 190 922 252 982 q 127 766 127 861 q 190 610 127 670 q 347 550 252 550 q 506 610 444 550 q 568 766 568 669 m 465 760 q 439 650 465 696 q 349 594 409 594 q 231 768 231 594 q 255 880 231 834 q 347 937 286 937 q 465 760 465 937 m 448 760 q 438 846 448 811 q 427 847 423 847 q 341 792 370 847 q 319 686 319 749 q 326 613 319 644 q 349 611 337 611 q 427 663 401 611 q 448 760 448 703 z "},"±":{"ha":968,"x_min":126,"x_max":953,"o":"m 214 297 l 126 370 l 126 498 l 440 498 l 440 819 l 567 819 l 638 728 l 639 498 l 881 498 l 953 408 l 953 297 l 638 297 l 638 118 l 881 119 l 953 29 l 953 -81 l 214 -81 l 126 -9 l 126 119 l 440 119 l 440 298 l 214 297 m 142 9 l 865 9 l 865 102 l 550 102 l 550 387 l 865 387 l 865 481 l 550 481 l 550 802 l 457 802 l 457 481 l 142 481 l 142 387 l 457 387 l 457 102 l 142 102 l 142 9 z "},"²":{"ha":760,"x_min":99,"x_max":810,"o":"m 810 744 q 718 558 810 629 q 563 478 667 519 l 699 479 l 768 389 l 737 251 l 189 251 l 99 324 l 125 439 q 252 525 172 479 q 382 602 359 587 q 532 835 532 699 q 530 852 532 840 q 511 852 522 852 q 450 839 486 852 l 465 798 q 471 746 471 780 q 446 687 471 709 q 383 665 421 665 q 330 684 351 665 q 243 761 314 698 q 212 836 212 788 q 306 961 212 916 q 467 997 380 997 q 705 919 639 997 q 783 827 725 897 q 810 744 810 794 m 722 825 q 630 951 722 912 q 467 980 564 980 q 318 948 388 980 q 229 836 229 907 q 249 779 229 802 q 304 755 270 755 q 384 827 384 755 q 359 925 384 858 l 367 928 q 432 943 398 943 q 549 835 549 943 q 392 587 549 688 q 263 513 385 583 q 140 430 185 468 l 120 341 l 650 341 l 678 462 l 260 462 l 265 484 q 463 562 363 524 q 639 651 585 607 q 722 825 722 719 z "},"³":{"ha":760,"x_min":119,"x_max":805,"o":"m 338 690 l 254 764 q 223 840 223 791 q 321 960 223 915 q 481 997 399 997 q 706 924 644 997 l 781 836 q 805 769 805 806 q 677 610 805 659 l 749 527 q 773 453 773 498 q 667 278 773 341 q 460 225 577 225 q 300 256 371 225 q 245 290 266 271 q 162 363 224 309 q 119 456 119 401 q 143 527 119 500 q 210 555 168 555 q 288 520 259 555 l 361 435 q 378 383 378 415 q 377 372 378 379 q 498 545 498 389 l 498 548 q 486 549 490 549 l 427 549 l 337 622 l 351 681 q 338 690 347 682 m 537 852 l 526 852 q 457 840 492 852 l 471 800 q 478 749 478 781 q 476 724 478 735 q 537 852 537 761 m 515 545 q 345 353 515 353 q 266 374 308 353 q 290 465 290 433 q 210 538 290 538 q 135 456 135 538 q 227 343 135 381 q 380 315 295 315 q 581 365 494 315 q 685 534 685 425 q 524 659 685 645 l 524 681 q 717 850 717 718 q 629 956 717 922 q 481 980 568 980 q 333 947 407 980 q 239 840 239 906 q 260 783 239 806 q 314 760 280 760 q 391 830 391 760 q 367 926 391 859 q 446 943 410 943 q 521 920 490 943 q 554 852 554 895 q 517 734 554 777 q 404 687 478 687 l 370 687 l 358 639 l 406 639 q 515 545 515 639 z "},"´":{"ha":690,"x_min":278,"x_max":716,"o":"m 716 909 q 581 768 716 849 q 397 665 581 768 l 278 771 l 428 984 q 553 1059 480 1059 q 631 1026 604 1059 q 705 939 646 1008 q 716 909 716 926 m 629 990 q 602 1029 629 1014 q 553 1042 579 1042 q 441 975 488 1042 q 300 774 339 827 l 318 757 l 575 910 q 629 990 629 942 z "},"µ":{"ha":921,"x_min":0,"x_max":0,"o":""},"¶":{"ha":859,"x_min":134,"x_max":1031,"o":"m 681 816 l 438 -241 l 366 -241 l 275 -169 l 403 379 q 352 391 370 384 q 288 431 314 408 q 198 510 271 446 q 134 680 134 569 q 189 844 134 772 q 332 946 242 911 q 473 971 397 971 l 961 971 l 1031 881 l 1015 816 l 868 816 l 626 -241 l 553 -241 l 463 -169 l 689 817 l 681 816 m 929 906 l 940 954 l 473 954 q 296 911 375 954 q 172 781 210 865 q 150 680 150 734 q 222 511 150 568 q 402 459 288 459 l 438 459 l 296 -152 l 352 -152 l 595 906 l 726 906 l 484 -152 l 539 -152 l 782 906 l 929 906 z "},"·":{"ha":466,"x_min":130,"x_max":481,"o":"m 481 289 q 443 196 481 235 q 350 157 404 157 q 259 193 301 157 l 176 265 q 130 370 130 305 q 171 471 130 429 q 270 513 212 513 q 376 462 334 513 q 449 375 395 439 q 481 289 481 337 m 393 370 q 357 458 393 421 q 270 496 321 496 q 182 459 218 496 q 146 370 146 422 q 182 283 146 319 q 270 247 218 247 q 357 283 321 247 q 393 370 393 319 z "},"¸":{"ha":688,"x_min":149,"x_max":566,"o":"m 476 -18 l 551 -106 q 566 -153 566 -125 q 381 -294 566 -273 q 239 -301 323 -301 l 149 -229 l 164 -159 l 171 -159 q 327 -138 301 -159 l 256 -78 l 295 102 l 369 102 l 439 12 l 437 7 q 476 -18 464 -4 m 357 -106 q 239 -174 357 -172 q 177 -175 201 -175 l 169 -211 q 300 -205 248 -211 q 478 -71 478 -184 q 342 7 478 7 l 332 7 l 349 85 l 309 85 l 277 -61 q 357 -106 357 -63 z "},"¹":{"ha":759,"x_min":135,"x_max":675,"o":"m 334 758 l 244 831 l 260 904 l 294 904 q 503 991 420 904 l 606 991 l 675 901 q 635 748 654 827 l 557 405 q 555 390 557 399 q 584 389 561 390 l 654 299 l 642 251 l 225 251 l 135 324 l 151 389 q 233 395 216 392 q 290 445 281 407 l 359 758 l 334 758 m 156 341 l 556 341 l 564 372 q 459 433 459 380 q 470 488 459 437 q 584 975 509 668 l 509 975 q 294 887 425 887 l 274 887 l 265 848 l 396 848 l 306 441 q 257 385 296 397 q 163 372 227 376 l 156 341 z "},"º":{"ha":760,"x_min":111,"x_max":841,"o":"m 841 677 q 727 422 841 519 q 460 330 620 330 q 271 393 343 330 l 179 473 q 111 644 111 532 q 224 903 111 804 q 494 997 332 997 q 718 911 646 997 l 792 823 q 841 677 841 766 m 753 758 q 677 928 753 870 q 494 980 609 980 q 236 890 339 980 q 128 644 128 796 q 202 475 128 535 q 380 420 270 420 q 642 509 537 420 q 753 758 753 604 m 575 817 q 566 696 575 760 q 519 542 551 604 q 399 454 473 454 q 307 584 307 454 q 340 806 307 707 q 483 946 386 946 q 575 817 575 946 m 558 817 q 557 856 558 844 q 444 764 486 852 q 403 614 414 702 q 395 503 395 547 q 397 471 395 488 l 399 471 q 549 699 515 471 q 558 817 558 759 z "},"»":{"ha":840,"x_min":28,"x_max":832,"o":"m 832 319 q 758 191 832 240 q 439 -16 562 60 l 357 54 l 320 94 l 146 -16 l 65 54 l 28 94 l 289 380 l 140 648 l 192 686 l 322 579 q 443 467 401 514 q 517 379 446 463 q 538 333 535 357 l 581 380 l 432 648 l 484 686 l 614 579 q 735 467 694 514 q 809 379 753 446 q 832 319 832 352 m 744 400 q 717 462 744 435 q 484 664 684 494 l 454 643 l 602 377 l 343 94 l 360 76 q 674 279 484 152 q 744 400 744 326 m 452 400 q 425 462 452 435 q 191 664 391 494 l 162 643 l 309 377 l 51 94 l 68 76 q 382 279 191 152 q 452 400 452 326 z "},"¼":{"ha":1474,"x_min":102,"x_max":1474,"o":"m 193 251 l 102 324 l 117 389 q 200 395 184 392 q 257 445 249 407 l 326 758 l 302 758 l 212 831 l 228 904 l 261 904 q 469 991 388 904 l 573 991 l 642 901 q 603 748 621 828 l 525 405 q 523 390 524 399 q 551 389 528 390 l 587 342 l 1061 978 l 1186 978 l 1249 888 l 525 -81 l 421 -81 l 325 -9 l 518 251 l 193 251 m 123 341 l 523 341 l 530 372 q 426 433 426 380 q 437 488 426 439 q 551 975 475 665 l 477 975 q 261 887 392 887 l 241 887 l 232 848 l 363 848 l 273 441 q 224 385 264 397 q 131 372 194 376 l 123 341 m 441 9 l 1153 961 l 1069 961 l 358 9 l 441 9 m 1474 172 l 1451 72 l 1348 72 l 1310 -95 l 1157 -95 l 1067 -22 l 1088 72 l 863 72 l 773 145 l 798 256 l 1236 663 l 1392 663 l 1461 573 l 1391 262 l 1404 262 l 1474 172 m 1383 245 l 1280 245 l 1371 646 l 1242 646 l 813 247 l 793 162 l 1126 162 l 1088 -5 l 1224 -5 l 1262 162 l 1365 162 l 1383 245 m 1217 565 l 1144 245 l 866 245 l 1217 565 m 1149 338 l 1066 262 l 1131 262 l 1149 338 z "},"½":{"ha":1474,"x_min":96,"x_max":1526,"o":"m 512 -81 l 408 -81 l 312 -9 l 505 251 l 186 251 l 96 324 l 111 389 q 194 395 178 392 q 251 445 243 407 l 320 758 l 296 758 l 205 831 l 222 904 l 255 904 q 463 991 382 904 l 567 991 l 635 901 q 596 748 611 813 l 519 405 q 517 390 518 399 q 545 389 522 390 l 577 347 l 1048 978 l 1173 978 l 1236 888 l 1053 642 q 1183 665 1115 665 q 1422 587 1356 665 q 1499 495 1460 542 q 1526 412 1526 462 q 1434 226 1526 296 q 1279 146 1383 186 l 1415 146 l 1485 56 l 1453 -81 l 905 -81 l 815 -9 l 842 107 q 968 193 888 146 q 1099 270 1081 258 q 1248 503 1248 367 q 1246 519 1248 508 q 1227 520 1238 520 q 1166 507 1202 520 l 1181 466 q 1188 414 1188 446 q 1163 355 1188 376 q 1099 333 1137 333 q 1046 352 1067 333 q 959 429 1030 366 q 931 479 938 447 l 512 -81 m 117 341 l 517 341 l 524 372 q 420 433 420 380 q 431 488 420 439 q 545 975 469 665 l 471 975 q 255 887 386 887 l 235 887 l 226 848 l 357 848 l 267 441 q 218 385 258 398 q 125 372 187 376 l 117 341 m 428 9 l 1140 961 l 1056 961 l 345 9 l 428 9 m 1438 493 q 1346 619 1438 580 q 1183 648 1280 648 q 1034 616 1104 648 q 945 504 945 575 q 965 446 945 469 q 1020 423 986 423 q 1100 495 1100 423 q 1076 593 1100 526 l 1084 596 q 1148 610 1118 610 q 1265 503 1265 610 q 1108 255 1265 356 q 980 180 1099 249 q 857 98 901 135 l 836 9 l 1367 9 l 1394 130 l 976 130 l 981 152 q 1180 229 1073 189 q 1355 319 1300 274 q 1438 493 1438 387 z "},"¾":{"ha":1474,"x_min":106,"x_max":1508,"o":"m 610 -81 l 506 -81 l 410 -9 l 606 255 q 447 225 533 225 q 288 256 358 225 q 232 289 254 270 q 149 363 211 309 q 106 456 106 401 q 130 527 106 500 q 197 555 154 555 q 275 520 246 555 l 347 435 q 364 383 364 414 q 363 372 364 379 q 486 545 486 389 l 486 548 q 473 549 477 549 l 414 549 l 324 622 l 338 681 q 326 690 335 682 l 241 764 q 210 840 210 792 q 307 960 210 915 q 469 997 386 997 q 693 924 631 997 q 768 836 711 903 q 791 769 791 807 q 663 610 791 659 l 736 527 q 760 460 758 502 l 1145 978 l 1271 978 l 1334 888 l 933 351 l 1270 663 l 1426 663 l 1495 573 l 1425 262 l 1438 262 l 1508 172 l 1485 72 l 1382 72 l 1344 -95 l 1190 -95 l 1100 -22 l 1122 72 l 897 72 l 806 145 l 819 198 l 610 -81 m 524 852 l 513 852 q 444 840 479 852 l 458 800 q 465 749 465 779 q 463 724 465 735 q 524 852 524 761 m 503 545 q 332 353 503 353 q 253 374 295 353 q 276 465 276 433 q 197 538 276 538 q 122 456 122 538 q 214 343 122 381 q 367 315 281 315 q 567 365 481 315 q 672 534 672 425 q 510 659 672 645 l 510 681 q 704 850 704 718 q 616 956 704 922 q 469 980 554 980 q 319 947 393 980 q 227 840 227 907 q 247 783 227 805 q 301 760 267 760 q 377 830 377 760 q 354 926 377 859 q 433 943 397 943 q 507 920 477 943 q 541 852 541 895 q 504 734 541 778 q 391 687 465 687 l 356 687 l 345 639 l 393 639 q 503 545 503 639 m 526 9 l 1238 961 l 1154 961 l 443 9 l 526 9 m 1417 245 l 1314 245 l 1404 646 l 1276 646 l 846 247 l 827 162 l 1159 162 l 1121 -5 l 1257 -5 l 1295 162 l 1398 162 l 1417 245 m 1251 565 l 1178 245 l 899 245 l 1251 565 m 1183 338 l 1099 262 l 1164 262 l 1183 338 z "},"¿":{"ha":754,"x_min":34,"x_max":747,"o":"m 730 94 q 610 -58 730 -3 q 409 -101 516 -101 q 195 -28 277 -101 l 96 59 q 34 223 34 125 q 167 490 34 391 q 453 588 281 574 l 472 681 l 538 680 q 444 763 506 707 q 403 859 403 802 q 443 955 403 916 q 539 994 483 994 q 645 943 604 994 q 718 857 664 920 q 747 778 747 823 q 709 688 747 726 q 618 651 671 651 q 558 667 585 651 l 616 591 l 565 327 q 383 264 450 318 q 307 94 307 204 q 309 52 307 69 q 356 47 330 47 q 441 71 399 47 q 422 174 422 135 q 456 258 422 229 q 544 288 489 288 q 629 254 597 288 q 701 170 646 238 q 730 94 730 140 m 659 859 q 624 942 659 908 q 539 977 589 977 q 455 942 490 977 q 420 859 420 908 q 455 776 420 810 q 539 741 490 741 q 624 776 589 741 q 659 859 659 810 m 528 31 q 642 176 642 84 q 615 245 642 219 q 544 271 587 271 q 438 174 438 271 q 460 63 438 136 q 356 30 406 30 q 218 176 218 30 q 295 350 218 287 q 478 416 362 406 l 526 664 l 486 664 l 467 572 q 180 478 291 559 q 51 223 51 384 q 136 46 51 110 q 330 -12 213 -12 q 528 31 435 -12 z "},"À":{"ha":1042,"x_min":-117,"x_max":1092,"o":"m 823 895 l 964 66 q 1022 58 987 60 l 1092 -32 l 1080 -81 l 576 -81 l 486 -9 l 501 58 q 644 93 644 69 q 640 133 644 106 l 621 242 l 370 242 q 288 106 329 178 q 267 62 278 87 q 302 58 279 60 l 312 57 l 381 -32 l 370 -81 l -26 -81 l -117 -9 l -101 58 q 14 89 -30 63 q 94 174 57 114 l 607 985 l 736 985 l 610 1039 q 567 1067 587 1049 l 484 1140 q 460 1180 460 1160 q 569 1269 460 1269 q 666 1214 621 1269 q 829 1035 709 1171 l 898 954 l 871 926 q 758 975 819 948 l 823 895 m 1002 42 q 878 140 895 52 q 736 968 852 279 l 616 968 l 109 164 q -88 41 38 52 l -96 9 l 283 9 l 292 42 q 166 102 166 56 q 285 332 166 144 l 621 332 l 656 136 q 661 93 661 109 q 514 41 661 54 l 507 9 l 994 9 l 1002 42 m 612 379 l 315 379 l 549 762 l 612 379 m 593 396 l 566 560 l 465 396 l 593 396 m 806 1035 q 654 1202 744 1102 q 569 1252 613 1252 q 477 1180 477 1252 q 534 1128 477 1154 q 790 1017 664 1070 l 806 1035 z "},"Á":{"ha":1042,"x_min":-117,"x_max":1092,"o":"m 1092 -32 l 1080 -81 l 576 -81 l 486 -9 l 501 58 q 644 93 644 69 q 640 133 644 106 l 621 242 l 370 242 q 288 106 329 178 q 267 62 278 87 q 302 58 279 60 l 312 57 l 381 -32 l 370 -81 l -26 -81 l -117 -9 l -101 58 q 14 89 -30 63 q 94 174 57 114 l 590 960 l 547 997 l 516 1036 q 700 1214 568 1082 q 804 1269 751 1269 q 896 1233 868 1269 q 970 1145 911 1215 q 981 1118 981 1133 q 913 1039 981 1065 l 756 977 l 823 895 l 964 66 q 1022 58 987 60 l 1092 -32 m 892 1192 q 804 1252 892 1252 q 712 1203 755 1252 q 538 1034 669 1162 l 552 1017 q 831 1128 608 1040 q 892 1192 892 1153 m 1002 42 q 878 140 895 52 q 736 968 852 279 l 616 968 l 109 164 q -88 41 38 52 l -96 9 l 283 9 l 292 42 q 166 102 166 56 q 285 332 166 144 l 621 332 l 656 136 q 661 93 661 109 q 514 41 661 54 l 507 9 l 994 9 l 1002 42 m 612 379 l 315 379 l 549 762 l 612 379 m 593 396 l 566 560 l 465 396 l 593 396 z "},"Â":{"ha":1042,"x_min":-117,"x_max":1092,"o":"m 1092 -32 l 1080 -81 l 576 -81 l 486 -9 l 501 58 q 644 93 644 69 q 640 133 644 106 l 621 242 l 370 242 q 288 106 329 178 q 267 62 278 87 q 302 58 279 60 l 312 57 l 381 -32 l 370 -81 l -26 -81 l -117 -9 l -101 58 q 14 89 -30 63 q 94 174 57 114 l 591 960 l 503 911 l 389 1013 q 564 1190 477 1099 l 590 1218 q 694 1262 631 1262 q 778 1227 749 1262 l 850 1142 q 922 1039 880 1107 l 987 931 l 964 911 l 758 1049 l 637 985 l 750 985 l 823 895 l 964 66 q 1022 58 987 60 l 1092 -32 m 897 1014 l 771 1210 q 696 1245 749 1245 q 603 1206 640 1245 q 414 1013 518 1116 l 424 1003 l 679 1140 l 885 1004 l 897 1014 m 1002 42 q 878 140 895 52 q 736 968 852 279 l 616 968 l 109 164 q -88 41 38 52 l -96 9 l 283 9 l 292 42 q 166 102 166 56 q 285 332 166 144 l 621 332 l 656 136 q 661 93 661 109 q 514 41 661 54 l 507 9 l 994 9 l 1002 42 m 612 379 l 315 379 l 549 762 l 612 379 m 593 396 l 566 560 l 465 396 l 593 396 z "},"Ã":{"ha":1042,"x_min":-117,"x_max":1092,"o":"m 1092 -32 l 1080 -81 l 576 -81 l 486 -9 l 501 58 q 644 93 644 69 q 640 133 644 106 l 621 242 l 370 242 q 288 106 329 178 q 267 62 278 87 q 302 58 279 60 l 312 57 l 381 -32 l 370 -81 l -26 -81 l -117 -9 l -101 58 q 14 89 -30 63 q 94 174 57 114 l 607 985 l 750 985 l 823 895 l 964 66 q 1022 58 987 60 l 1092 -32 m 1002 42 q 878 140 895 52 q 736 968 852 279 l 616 968 l 109 164 q -88 41 38 52 l -96 9 l 283 9 l 292 42 q 166 102 166 56 q 285 332 166 144 l 621 332 l 656 136 q 661 93 661 109 q 514 41 661 54 l 507 9 l 994 9 l 1002 42 m 612 379 l 315 379 l 549 762 l 612 379 m 593 396 l 566 560 l 465 396 l 593 396 m 1090 1166 q 937 989 1041 1051 q 864 968 903 968 q 732 1008 804 968 q 629 1044 667 1044 q 568 1007 595 1044 q 524 943 558 994 l 477 964 l 386 1041 q 478 1180 425 1122 q 618 1256 548 1256 q 800 1192 671 1256 q 847 1182 819 1182 q 911 1202 894 1182 q 956 1274 928 1223 l 1022 1253 l 1090 1166 m 999 1242 l 964 1253 q 920 1188 935 1202 q 847 1165 895 1165 q 740 1203 817 1165 q 618 1239 668 1239 q 493 1172 557 1239 q 408 1049 444 1120 l 441 1036 q 485 1099 477 1089 q 549 1134 515 1134 q 660 1096 581 1134 q 784 1059 738 1059 q 854 1078 822 1059 q 999 1242 951 1136 z "},"Ä":{"ha":1042,"x_min":-117,"x_max":1092,"o":"m 1044 1067 q 1011 985 1044 1019 q 931 950 979 950 q 852 983 889 950 l 781 1046 q 741 1139 741 1082 q 775 1228 741 1191 q 862 1265 810 1265 q 954 1220 918 1265 q 1017 1143 974 1195 q 1044 1067 1044 1111 m 1092 -32 l 1080 -81 l 576 -81 l 486 -9 l 501 58 q 644 93 644 69 q 640 133 644 106 l 621 242 l 370 242 q 288 106 329 178 q 267 62 278 87 q 302 58 279 60 l 312 57 l 381 -32 l 370 -81 l -26 -81 l -117 -9 l -101 58 q 13 89 -30 63 q 94 174 56 114 l 596 966 q 572 964 585 964 q 494 983 515 964 l 422 1046 q 381 1139 381 1082 q 416 1228 381 1191 q 503 1265 452 1265 q 595 1220 557 1265 q 659 1143 595 1219 q 686 1067 685 1112 q 635 985 686 1021 l 750 985 l 823 895 l 964 66 q 1022 58 987 60 l 1092 -32 m 968 1139 q 938 1217 968 1184 q 862 1250 907 1250 q 786 1217 817 1250 q 755 1139 755 1185 q 786 1062 755 1094 q 862 1029 817 1029 q 938 1062 907 1029 q 968 1139 968 1095 m 610 1139 q 579 1217 610 1184 q 503 1250 548 1250 q 427 1217 458 1250 q 396 1139 396 1185 q 427 1062 396 1094 q 503 1029 458 1029 q 579 1062 548 1029 q 610 1139 610 1095 m 1002 42 q 878 140 895 52 q 736 968 852 279 l 616 968 l 109 164 q -88 41 38 52 l -96 9 l 283 9 l 292 42 q 166 102 166 56 q 285 332 166 144 l 621 332 l 656 136 q 661 93 661 109 q 514 41 661 54 l 507 9 l 994 9 l 1002 42 m 612 379 l 315 379 l 549 762 l 612 379 m 593 396 l 566 560 l 465 396 l 593 396 z "},"Å":{"ha":1042,"x_min":-117,"x_max":1092,"o":"m 964 66 q 1022 58 987 60 l 1092 -32 l 1080 -81 l 576 -81 l 486 -9 l 501 58 q 644 93 644 69 q 640 133 644 106 l 621 242 l 370 242 q 288 106 329 178 q 267 62 278 87 q 302 58 279 60 l 312 57 l 381 -32 l 370 -81 l -26 -81 l -117 -9 l -101 58 q 14 89 -30 63 q 94 174 57 114 l 574 932 l 512 989 q 473 1084 473 1024 q 545 1219 473 1165 q 700 1269 611 1269 q 844 1211 795 1269 l 918 1124 q 944 1055 944 1093 q 823 889 944 935 l 964 66 m 692 1101 q 663 1009 664 1065 q 734 1052 709 1012 q 755 1131 755 1086 q 692 1101 711 1126 m 755 975 q 856 1130 856 1014 q 806 1223 856 1190 q 700 1252 763 1252 q 557 1207 618 1252 q 490 1084 490 1158 q 534 1001 490 1038 q 595 966 568 972 q 613 964 600 966 l 109 164 q -88 41 38 52 l -96 9 l 283 9 l 292 42 q 166 102 166 56 q 285 332 166 144 l 621 332 l 656 136 q 661 93 661 109 q 514 41 661 54 l 507 9 l 994 9 l 1002 42 q 878 140 893 52 l 736 967 q 755 975 739 968 m 772 1131 q 744 1038 772 1078 q 656 992 713 992 q 574 1084 574 992 q 603 1177 574 1137 q 690 1221 635 1221 q 772 1131 772 1221 m 612 379 l 315 379 l 549 762 l 612 379 m 593 396 l 566 560 l 465 396 l 593 396 z "},"Æ":{"ha":1477,"x_min":-141,"x_max":1586,"o":"m 1586 881 l 1531 635 l 1480 635 l 1393 709 q 1358 818 1387 767 q 1248 823 1331 823 l 1124 823 l 1059 537 q 1248 705 1188 545 l 1314 705 l 1383 614 l 1293 213 l 1242 213 l 1154 286 q 1154 313 1154 304 q 1147 386 1154 349 q 1109 389 1130 389 l 1026 389 l 962 106 q 954 67 959 91 l 1001 67 q 1199 103 1156 67 q 1370 309 1287 176 l 1434 309 l 1503 218 l 1417 -81 l 546 -81 l 456 -9 l 471 58 q 574 73 510 60 q 627 136 616 89 l 669 321 l 450 321 q 340 178 446 317 l 283 104 q 254 60 277 96 q 283 57 264 59 l 352 -32 l 340 -81 l -51 -81 l -141 -9 l -126 58 q -29 80 -64 62 q 82 174 33 112 l 608 836 l 524 905 l 539 971 l 1517 971 l 1586 881 m 1496 954 l 552 954 l 545 920 q 669 885 627 913 l 95 163 q -113 41 7 53 l -120 9 l 254 9 l 262 42 q 145 98 145 55 q 253 264 145 123 q 367 412 300 326 l 706 412 l 644 132 q 582 58 631 78 q 484 41 555 47 l 477 9 l 1331 9 l 1412 292 l 1379 292 q 1209 90 1298 163 q 1001 50 1162 50 q 914 56 935 50 q 863 117 863 69 q 874 189 863 142 l 940 479 l 1030 479 q 1147 431 1114 479 q 1171 313 1171 397 l 1171 303 l 1206 303 l 1293 688 l 1259 688 q 1042 520 1194 520 l 948 520 l 1038 913 l 1168 913 q 1282 906 1252 913 q 1368 834 1331 895 q 1408 726 1400 781 l 1444 726 l 1496 954 m 820 913 l 717 458 l 404 458 l 760 913 l 820 913 m 758 713 l 572 475 l 704 475 l 758 713 z "},"Ç":{"ha":985,"x_min":62,"x_max":1136,"o":"m 503 -138 q 347 -159 477 -159 l 340 -159 l 325 -229 l 415 -301 q 557 -294 500 -301 q 743 -153 743 -273 q 727 -106 743 -125 l 712 -89 q 1030 160 905 -38 l 962 244 l 897 288 q 567 75 740 75 q 442 109 494 75 q 410 271 410 175 q 494 654 410 492 q 751 844 593 844 q 848 825 805 844 q 916 603 904 743 l 1004 530 l 1062 530 l 1136 881 l 1066 971 l 996 971 l 948 935 q 674 997 846 997 q 238 816 414 997 q 62 374 62 635 q 182 75 62 181 l 268 -1 q 450 -94 347 -70 l 503 -138 m 654 -71 q 477 -205 654 -184 q 345 -211 425 -211 l 353 -175 q 415 -174 377 -175 q 534 -106 534 -172 q 453 -61 534 -63 l 463 -16 q 184 95 288 -8 q 78 374 78 200 q 250 804 78 628 q 674 980 421 980 q 949 915 848 980 l 1001 954 l 1046 954 l 976 620 l 931 620 q 863 834 919 752 q 672 935 794 935 q 407 739 508 935 q 321 352 321 574 q 379 146 321 225 q 567 58 444 58 q 901 265 746 58 l 939 239 q 606 -6 808 37 q 654 -71 654 -25 z "},"È":{"ha":992,"x_min":-37,"x_max":1101,"o":"m 1031 971 l 1101 881 l 1046 635 l 995 635 l 908 709 q 871 817 900 764 q 763 823 841 823 l 633 823 l 568 537 q 762 705 702 541 l 829 705 l 899 614 l 808 213 l 757 213 l 669 286 l 669 319 q 662 386 669 355 q 625 389 645 389 l 534 389 l 474 121 q 464 68 466 86 q 513 67 491 67 q 713 100 674 67 q 884 309 805 177 l 949 309 l 1017 218 l 932 -81 l 54 -81 l -37 -9 l -21 58 q 81 71 50 60 q 134 134 123 85 l 286 807 q 290 826 288 814 q 260 831 281 829 l 170 906 l 185 971 l 687 971 q 532 1039 634 994 q 488 1067 513 1047 l 404 1133 q 382 1180 382 1151 q 490 1269 382 1269 q 587 1214 542 1269 q 751 1035 630 1171 l 804 970 l 1031 971 m 959 726 l 1010 954 l 198 954 l 191 920 q 309 843 309 901 q 302 803 309 830 l 151 130 q 90 56 138 76 q -8 41 61 45 l -16 9 l 846 9 l 926 292 l 894 292 q 723 86 814 163 q 513 50 680 50 q 422 56 444 50 q 373 124 373 71 q 386 204 373 147 l 448 479 l 545 479 q 658 438 626 479 q 686 319 686 402 l 686 303 l 721 303 l 808 688 l 774 688 q 558 520 709 520 l 458 520 l 547 913 l 683 913 q 798 906 766 913 q 882 834 845 895 q 922 726 913 783 l 959 726 m 728 1035 q 576 1202 665 1102 q 490 1252 534 1252 q 399 1180 399 1252 q 455 1121 399 1146 q 711 1017 545 1085 l 728 1035 z "},"É":{"ha":992,"x_min":-37,"x_max":1101,"o":"m 1031 971 l 1101 881 l 1046 635 l 995 635 l 908 709 q 871 817 900 764 q 763 823 841 823 l 633 823 l 568 537 q 762 705 702 541 l 829 705 l 899 614 l 808 213 l 757 213 l 669 286 l 669 319 q 662 386 669 355 q 625 389 645 389 l 534 389 l 474 121 q 464 68 466 86 q 513 67 491 67 q 713 100 674 67 q 884 309 805 177 l 949 309 l 1017 218 l 932 -81 l 54 -81 l -37 -9 l -21 58 q 81 71 50 60 q 134 134 123 85 l 286 807 q 290 826 288 814 q 260 831 281 829 l 170 906 l 185 971 l 538 971 l 508 997 l 477 1036 q 661 1214 530 1082 q 765 1269 713 1269 q 857 1233 829 1269 q 930 1145 871 1215 q 942 1118 942 1132 q 875 1039 942 1065 l 704 971 l 1031 971 m 959 726 l 1010 954 l 198 954 l 191 920 q 309 843 309 901 q 302 803 309 830 l 151 130 q 90 56 138 76 q -8 41 61 45 l -16 9 l 846 9 l 926 292 l 894 292 q 723 86 814 163 q 513 50 680 50 q 422 56 444 50 q 373 124 373 71 q 386 204 373 147 l 448 479 l 545 479 q 658 438 626 479 q 686 319 686 402 l 686 303 l 721 303 l 808 688 l 774 688 q 558 520 709 520 l 458 520 l 547 913 l 683 913 q 798 906 766 913 q 882 834 845 895 q 922 726 913 783 l 959 726 m 854 1192 q 765 1252 854 1252 q 674 1204 717 1252 q 500 1034 631 1162 l 513 1017 q 792 1128 570 1040 q 854 1192 854 1153 z "},"Ê":{"ha":992,"x_min":-37,"x_max":1101,"o":"m 1101 881 l 1046 635 l 995 635 l 908 709 q 871 817 900 764 q 763 823 841 823 l 633 823 l 568 537 q 762 705 702 541 l 829 705 l 899 614 l 808 213 l 757 213 l 669 286 l 669 319 q 662 386 669 355 q 625 389 645 389 l 534 389 l 474 121 q 464 68 466 86 q 513 67 491 67 q 713 100 674 67 q 884 309 805 177 l 949 309 l 1017 218 l 932 -81 l 54 -81 l -37 -9 l -21 58 q 81 71 50 60 q 134 134 123 85 l 286 807 q 290 826 288 814 q 260 831 281 829 l 170 906 l 185 971 l 423 971 l 395 996 l 363 1026 q 536 1204 450 1113 l 563 1232 q 668 1276 604 1276 q 751 1241 722 1276 l 823 1156 q 886 1065 854 1119 l 943 971 l 1031 971 l 1101 881 m 869 1027 l 743 1223 q 668 1259 721 1259 q 575 1219 612 1259 q 387 1026 485 1124 l 397 1017 l 652 1154 l 857 1017 l 869 1027 m 868 971 l 731 1063 l 562 971 l 868 971 m 1010 954 l 198 954 l 191 920 q 309 843 309 901 q 302 803 309 830 l 151 130 q 90 56 138 76 q -8 41 61 45 l -16 9 l 846 9 l 926 292 l 894 292 q 723 86 814 163 q 513 50 680 50 q 422 56 444 50 q 373 124 373 71 q 386 204 373 147 l 448 479 l 545 479 q 658 438 626 479 q 686 319 686 402 l 686 303 l 721 303 l 808 688 l 774 688 q 558 520 709 520 l 458 520 l 547 913 l 683 913 q 798 906 766 913 q 882 834 845 895 q 922 726 913 783 l 959 726 l 1010 954 z "},"Ë":{"ha":992,"x_min":-37,"x_max":1101,"o":"m 797 996 l 725 1053 q 685 1146 685 1085 q 720 1235 685 1198 q 806 1272 755 1272 q 899 1227 862 1272 q 962 1150 918 1202 q 989 1074 989 1118 q 956 998 989 1033 q 915 971 937 979 l 1031 971 l 1101 881 l 1046 635 l 995 635 l 908 709 q 871 817 900 764 q 763 823 841 823 l 633 823 l 568 537 q 762 705 702 541 l 829 705 l 899 614 l 808 213 l 757 213 l 669 286 l 669 319 q 662 386 669 355 q 625 389 645 389 l 534 389 l 474 121 q 464 68 466 86 q 513 67 491 67 q 713 100 674 67 q 884 309 805 177 l 949 309 l 1017 218 l 932 -81 l 54 -81 l -37 -9 l -21 58 q 81 71 50 60 q 134 134 123 85 l 286 807 q 290 826 288 814 q 260 831 281 829 l 170 906 l 185 971 l 479 971 q 438 996 462 977 l 366 1053 q 326 1146 326 1086 q 361 1235 326 1198 q 448 1272 396 1272 q 539 1227 502 1272 q 603 1150 540 1226 q 630 1074 630 1118 q 596 998 630 1033 q 555 970 578 979 l 837 971 q 797 996 822 977 m 959 726 l 1010 954 l 198 954 l 191 920 q 309 843 309 901 q 302 803 309 830 l 151 130 q 90 56 138 76 q -8 41 61 45 l -16 9 l 846 9 l 926 292 l 894 292 q 723 86 814 163 q 513 50 680 50 q 422 56 444 50 q 373 124 373 71 q 386 204 373 147 l 448 479 l 545 479 q 658 438 626 479 q 686 319 686 402 l 686 303 l 721 303 l 808 688 l 774 688 q 558 520 709 520 l 458 520 l 547 913 l 683 913 q 798 906 766 913 q 882 834 845 895 q 922 726 913 783 l 959 726 m 554 1146 q 523 1224 554 1191 q 448 1257 492 1257 q 371 1224 402 1257 q 340 1146 340 1192 q 371 1068 340 1101 q 448 1036 402 1036 q 523 1069 492 1036 q 554 1146 554 1101 m 913 1146 q 882 1224 913 1191 q 806 1257 851 1257 q 730 1224 761 1257 q 699 1146 699 1192 q 730 1068 699 1101 q 806 1036 761 1036 q 882 1069 851 1036 q 913 1146 913 1101 z "},"Ì":{"ha":614,"x_min":-43,"x_max":787,"o":"m 718 971 l 787 881 l 776 831 q 676 817 704 827 q 613 745 625 798 l 460 72 q 458 62 460 66 q 511 57 467 61 l 581 -32 l 570 -81 l 47 -81 l -43 -9 l -28 58 q 79 72 45 60 q 132 134 121 86 l 284 807 q 288 827 286 814 q 253 831 277 828 l 163 906 l 178 971 l 567 971 q 412 1039 517 993 q 368 1067 393 1047 l 284 1133 q 262 1180 262 1151 q 370 1269 262 1269 q 467 1214 422 1269 q 630 1035 510 1171 l 684 970 l 718 971 m -15 41 l -22 9 l 484 9 l 491 42 q 367 116 367 55 q 373 155 367 128 l 525 829 q 588 903 537 883 q 689 921 619 916 l 696 954 l 191 954 l 183 920 q 307 843 307 899 q 300 803 307 830 l 149 130 q 85 56 136 75 q -15 41 54 45 m 608 1035 q 455 1202 545 1102 q 370 1252 414 1252 q 278 1180 278 1252 q 335 1121 278 1147 q 591 1017 425 1085 l 608 1035 z "},"Í":{"ha":614,"x_min":-43,"x_max":787,"o":"m 718 971 l 787 881 l 776 831 q 676 817 704 827 q 613 745 625 798 l 460 72 q 458 62 460 66 q 511 57 467 61 l 581 -32 l 570 -81 l 47 -81 l -43 -9 l -28 58 q 79 72 45 60 q 132 134 121 86 l 284 807 q 288 827 286 814 q 253 831 277 828 l 163 906 l 178 971 l 356 971 l 325 997 l 294 1036 q 479 1214 347 1082 q 583 1269 530 1269 q 674 1233 646 1269 q 748 1145 689 1215 q 759 1118 759 1133 q 692 1039 759 1065 l 521 971 l 718 971 m -15 41 l -22 9 l 484 9 l 491 42 q 367 116 367 55 q 373 155 367 128 l 525 829 q 588 903 537 883 q 689 921 619 916 l 696 954 l 191 954 l 183 920 q 307 843 307 899 q 300 803 307 830 l 149 130 q 85 56 136 75 q -15 41 54 45 m 671 1192 q 583 1252 671 1252 q 492 1204 534 1252 q 317 1034 448 1162 l 330 1017 q 609 1128 334 1019 q 671 1192 671 1153 z "},"Î":{"ha":614,"x_min":-43,"x_max":787,"o":"m 787 881 l 776 831 q 676 817 704 827 q 613 745 625 798 l 460 72 q 458 62 460 66 q 511 57 467 61 l 581 -32 l 570 -81 l 47 -81 l -43 -9 l -28 58 q 79 72 45 60 q 132 134 121 86 l 284 807 q 288 827 286 814 q 253 831 277 828 l 163 906 l 178 971 l 235 971 l 208 996 l 176 1026 q 349 1204 262 1113 l 376 1232 q 481 1276 417 1276 q 564 1241 534 1276 l 636 1156 q 708 1053 668 1118 q 773 945 732 1013 l 751 925 l 787 881 m 682 971 l 544 1063 l 373 970 l 682 971 m -15 41 l -22 9 l 484 9 l 491 42 q 367 116 367 55 q 373 155 367 128 l 525 829 q 588 903 537 883 q 689 921 619 916 l 696 954 l 191 954 l 183 920 q 307 843 307 899 q 300 803 307 830 l 149 130 q 85 56 136 75 q -15 41 54 45 m 682 1027 l 556 1223 q 481 1259 534 1259 q 388 1219 425 1259 q 199 1026 303 1129 l 210 1017 l 465 1154 l 670 1017 l 682 1027 z "},"Ï":{"ha":621,"x_min":-43,"x_max":824,"o":"m 787 881 l 776 831 q 676 817 704 827 q 613 745 625 798 l 461 72 q 459 62 460 68 q 512 57 467 61 l 581 -32 l 570 -81 l 47 -81 l -43 -9 l -28 58 q 79 72 45 60 q 133 134 122 87 l 285 807 q 289 827 286 814 q 253 831 277 828 l 163 906 l 178 971 l 340 971 q 295 997 319 978 l 222 1054 q 181 1147 181 1086 q 217 1236 181 1199 q 305 1273 253 1273 q 399 1227 361 1273 q 464 1151 410 1214 q 492 1075 492 1118 q 457 999 492 1034 q 413 970 437 979 l 671 971 q 627 997 652 978 l 555 1054 q 513 1147 513 1086 q 549 1236 513 1199 q 637 1273 585 1273 q 731 1227 694 1273 q 796 1151 743 1214 q 824 1075 824 1118 q 794 1004 824 1038 q 721 965 764 970 l 787 881 m -15 41 l -22 9 l 484 9 l 492 42 q 367 116 367 55 q 373 155 367 128 l 526 829 q 588 904 538 883 q 690 921 619 916 l 697 954 l 191 954 l 183 920 q 307 843 307 899 q 301 803 307 830 l 149 130 q 85 56 136 75 q -15 41 55 45 m 414 1147 q 382 1225 414 1192 q 305 1257 350 1257 q 228 1225 259 1257 q 196 1147 196 1193 q 228 1069 196 1101 q 305 1037 259 1037 q 382 1069 350 1037 q 414 1147 414 1101 m 746 1147 q 714 1225 746 1192 q 637 1257 682 1257 q 560 1225 591 1257 q 528 1147 528 1193 q 560 1069 528 1101 q 637 1037 591 1037 q 714 1069 682 1037 q 746 1147 746 1101 z "},"Ð":{"ha":1147,"x_min":-35,"x_max":1211,"o":"m 1211 502 q 1010 68 1211 231 q 547 -81 825 -81 l 55 -81 l -35 -9 l -20 58 q 82 71 50 60 q 135 134 124 85 l 193 387 l 163 387 l 79 459 l 98 544 l 228 544 l 288 807 q 292 826 289 812 q 261 831 277 829 l 171 906 l 186 971 l 675 971 q 1053 829 927 971 q 1131 736 1076 804 q 1211 502 1211 639 m 1123 583 q 986 867 1123 768 q 675 954 865 954 l 199 954 l 191 920 q 310 843 310 901 q 304 803 310 829 l 241 527 l 111 527 l 100 476 l 230 476 l 151 130 q 91 56 139 75 q -7 41 62 45 l -14 9 l 467 9 q 925 156 742 9 q 1123 583 1123 315 m 878 617 q 785 233 878 396 q 501 50 680 50 q 375 134 375 50 q 382 181 375 151 l 448 476 l 650 476 l 662 527 l 460 527 l 546 909 q 635 913 602 913 q 824 825 761 913 q 878 617 878 747 m 861 617 q 817 803 861 732 q 715 823 773 823 q 669 822 682 823 l 633 820 l 570 543 l 683 544 l 752 454 l 737 386 l 535 386 l 470 98 q 465 69 469 93 q 501 67 481 67 q 770 241 671 67 q 861 617 861 400 z "},"Ñ":{"ha":1142,"x_min":-57,"x_max":1344,"o":"m 1344 881 l 1333 831 q 1269 823 1286 827 q 1209 798 1236 815 q 1120 604 1157 764 l 964 -87 l 852 -87 l 768 -14 l 431 623 l 337 203 q 319 79 319 124 q 320 70 319 85 q 380 56 342 63 l 450 -32 l 439 -81 l 33 -81 l -57 -9 l -42 57 q 23 68 4 64 q 84 91 61 76 q 169 279 134 123 l 271 732 q 279 785 279 765 q 274 822 279 804 q 235 831 256 827 l 146 906 l 161 971 l 485 971 l 401 1041 q 494 1180 441 1122 q 633 1256 564 1256 q 816 1192 686 1256 q 863 1182 835 1182 q 926 1202 909 1182 q 971 1274 943 1223 l 1038 1253 l 1106 1173 q 954 989 1053 1048 q 905 971 931 975 l 1275 971 l 1344 881 m 1015 1242 l 979 1253 q 936 1188 951 1202 q 863 1165 911 1165 q 755 1203 832 1165 q 633 1239 684 1239 q 509 1172 572 1239 q 425 1049 460 1121 l 457 1036 q 500 1099 495 1093 q 564 1134 530 1134 q 676 1096 597 1134 q 800 1059 754 1059 q 869 1078 838 1059 q 1015 1242 967 1136 m 970 800 q 969 822 970 812 q 928 831 946 829 l 838 906 l 853 970 q 748 1008 804 977 q 644 1044 684 1044 q 583 1007 611 1044 q 543 947 576 997 l 595 881 l 878 346 l 953 680 q 970 800 970 758 m 1254 954 l 866 954 l 859 920 q 951 887 924 907 q 987 800 987 860 q 968 676 987 758 l 876 260 l 511 954 l 174 954 l 166 920 q 296 785 296 892 q 288 728 296 764 l 185 275 q 93 76 148 111 q -28 42 61 56 l -36 9 l 353 9 l 360 43 q 267 75 292 56 q 231 160 231 101 q 250 286 231 204 l 362 789 l 777 3 l 878 3 l 1032 687 q 1125 886 1069 850 q 1246 921 1165 912 l 1254 954 z "},"Ò":{"ha":1128,"x_min":62,"x_max":1196,"o":"m 1196 512 q 1025 79 1196 256 q 576 -108 846 -108 q 275 -4 393 -108 q 271 0 273 -3 q 182 78 256 9 q 62 370 62 189 q 244 814 62 631 q 687 998 425 998 q 758 993 722 998 l 653 1039 q 610 1067 634 1047 l 526 1133 q 503 1180 503 1152 q 612 1269 503 1269 q 709 1214 663 1269 q 872 1035 751 1171 l 941 954 l 928 941 q 1035 855 992 906 l 1114 762 q 1196 512 1196 663 m 849 1035 q 697 1202 787 1102 q 612 1252 656 1252 q 520 1180 520 1252 q 577 1128 520 1154 q 833 1017 707 1070 l 849 1035 m 1108 593 q 987 881 1108 775 q 687 981 871 981 q 255 803 432 981 q 79 370 79 625 q 199 84 79 191 q 496 -18 315 -18 q 940 166 762 -18 q 1108 593 1108 340 m 866 659 q 822 349 866 494 q 667 87 769 176 q 515 28 600 28 q 360 118 410 28 q 321 302 321 190 q 395 694 321 512 q 673 935 494 935 q 866 659 866 935 m 850 659 q 816 835 850 771 q 752 844 787 844 q 499 644 598 844 q 409 221 409 462 q 435 64 409 127 q 515 45 470 45 q 656 100 593 45 q 807 357 755 187 q 850 659 850 498 z "},"Ó":{"ha":1128,"x_min":62,"x_max":1196,"o":"m 1035 855 l 1114 762 q 1196 512 1196 663 q 1025 79 1196 256 q 576 -108 846 -108 q 275 -4 393 -108 q 271 0 273 -3 q 182 78 256 9 q 62 370 62 189 q 196 759 62 589 q 542 980 329 929 l 523 997 l 492 1036 q 676 1214 545 1082 q 780 1269 728 1269 q 872 1233 844 1269 q 946 1145 887 1215 q 957 1111 957 1133 q 890 1032 957 1055 l 771 992 q 1035 855 941 966 m 1108 593 q 987 881 1108 775 q 687 981 871 981 q 255 803 432 981 q 79 370 79 625 q 199 84 79 191 q 496 -18 315 -18 q 940 166 762 -18 q 1108 593 1108 340 m 866 659 q 822 349 866 494 q 667 87 769 176 q 515 28 600 28 q 360 118 410 28 q 321 302 321 190 q 395 694 321 512 q 673 935 494 935 q 866 659 866 935 m 850 659 q 816 835 850 771 q 752 844 787 844 q 499 644 598 844 q 409 221 409 462 q 435 64 409 127 q 515 45 470 45 q 656 100 593 45 q 807 357 755 187 q 850 659 850 498 m 869 1192 q 780 1252 869 1252 q 688 1203 732 1252 q 515 1034 646 1162 l 528 1017 q 807 1122 585 1036 q 869 1192 869 1146 z "},"Ô":{"ha":1128,"x_min":62,"x_max":1196,"o":"m 1196 512 q 1025 79 1196 256 q 576 -108 846 -108 q 275 -4 393 -108 q 271 0 273 -3 q 182 78 256 9 q 62 370 62 189 q 176 734 62 572 q 480 963 290 897 l 443 996 l 410 1026 q 585 1204 498 1112 l 611 1232 q 715 1276 652 1276 q 799 1241 770 1276 l 871 1156 q 1008 945 899 1122 l 985 925 l 779 1063 l 656 996 q 687 998 672 998 q 1035 855 915 998 l 1114 762 q 1196 512 1196 663 m 918 1027 l 791 1223 q 715 1259 769 1259 q 623 1219 660 1259 q 435 1026 532 1124 l 445 1017 l 700 1154 l 905 1017 l 918 1027 m 1108 593 q 987 881 1108 775 q 687 981 871 981 q 255 803 432 981 q 79 370 79 625 q 199 84 79 191 q 496 -18 315 -18 q 940 166 762 -18 q 1108 593 1108 340 m 866 659 q 822 349 866 494 q 667 87 769 176 q 515 28 600 28 q 360 118 410 28 q 321 302 321 190 q 395 694 321 512 q 673 935 494 935 q 866 659 866 935 m 850 659 q 816 835 850 771 q 752 844 787 844 q 499 644 598 844 q 409 221 409 462 q 435 64 409 127 q 515 45 470 45 q 656 100 593 45 q 807 357 755 187 q 850 659 850 498 z "},"Õ":{"ha":1128,"x_min":62,"x_max":1196,"o":"m 1035 855 l 1114 762 q 1196 512 1196 663 q 1025 79 1196 256 q 576 -108 846 -108 q 275 -4 393 -108 q 271 0 273 -3 q 182 78 256 9 q 62 370 62 189 q 177 734 62 572 q 483 963 292 897 l 479 964 l 388 1041 q 480 1180 427 1122 q 620 1256 550 1256 q 802 1192 673 1256 q 849 1182 821 1182 q 913 1202 896 1182 q 958 1274 930 1223 l 1024 1253 l 1093 1166 q 940 989 1043 1050 q 866 968 906 968 l 863 968 q 1035 855 971 931 m 734 1008 q 631 1044 669 1044 q 570 1007 597 1044 q 553 984 564 1000 q 687 998 614 998 q 764 992 726 998 q 734 1008 758 995 m 1108 593 q 987 881 1108 775 q 687 981 871 981 q 255 803 432 981 q 79 370 79 625 q 199 84 79 191 q 496 -18 315 -18 q 940 166 762 -18 q 1108 593 1108 340 m 866 659 q 822 349 866 494 q 667 87 769 176 q 515 28 600 28 q 360 118 410 28 q 321 302 321 190 q 395 694 321 512 q 673 935 494 935 q 866 659 866 935 m 850 659 q 816 835 850 771 q 752 844 787 844 q 499 644 598 844 q 409 221 409 462 q 435 64 409 127 q 515 45 470 45 q 656 100 593 45 q 807 357 755 187 q 850 659 850 498 m 1002 1242 l 966 1253 q 922 1188 937 1202 q 849 1165 897 1165 q 742 1203 819 1165 q 620 1239 670 1239 q 495 1172 559 1239 q 411 1049 447 1121 l 444 1036 q 487 1099 481 1093 q 551 1134 517 1134 q 662 1096 583 1134 q 786 1059 741 1059 q 856 1078 824 1059 q 1002 1242 954 1136 z "},"Ö":{"ha":1128,"x_min":62,"x_max":1196,"o":"m 687 998 q 1035 855 915 998 l 1114 762 q 1196 512 1196 663 q 1025 79 1196 256 q 576 -108 846 -108 q 275 -4 393 -108 q 271 0 273 -3 q 182 78 256 9 q 62 370 62 189 q 192 754 62 585 q 529 977 321 923 q 503 996 524 980 l 431 1053 q 391 1146 391 1086 q 426 1235 391 1198 q 513 1272 461 1272 q 604 1227 567 1272 q 668 1150 605 1226 q 695 1074 695 1118 q 661 998 695 1033 q 674 998 667 998 l 687 998 m 1108 593 q 987 881 1108 775 q 687 981 871 981 q 255 803 432 981 q 79 370 79 625 q 199 84 79 191 q 496 -18 315 -18 q 940 166 762 -18 q 1108 593 1108 340 m 866 659 q 822 349 866 494 q 667 87 769 176 q 515 28 600 28 q 360 118 410 28 q 321 302 321 190 q 395 694 321 512 q 673 935 494 935 q 866 659 866 935 m 850 659 q 816 835 850 771 q 752 844 787 844 q 499 644 598 844 q 409 221 409 462 q 435 64 409 127 q 515 45 470 45 q 656 100 593 45 q 807 357 755 187 q 850 659 850 498 m 618 1146 q 588 1224 618 1191 q 513 1257 557 1257 q 436 1224 467 1257 q 406 1146 406 1192 q 436 1068 406 1101 q 513 1036 467 1036 q 588 1069 557 1036 q 618 1146 618 1101 m 1054 1074 q 1021 991 1054 1026 q 941 957 988 957 q 862 989 899 957 l 790 1053 q 750 1146 750 1088 q 785 1235 750 1198 q 871 1272 820 1272 q 964 1227 927 1272 q 1027 1150 983 1202 q 1054 1074 1054 1118 m 978 1146 q 947 1224 978 1191 q 871 1257 916 1257 q 795 1224 826 1257 q 764 1146 764 1192 q 795 1068 764 1101 q 871 1036 826 1036 q 947 1069 916 1036 q 978 1146 978 1101 z "},"×":{"ha":968,"x_min":161,"x_max":914,"o":"m 914 49 l 838 -29 l 758 40 l 577 225 l 328 -29 l 249 40 l 161 130 l 416 390 l 161 649 l 249 740 l 503 479 l 758 740 l 846 649 l 914 568 l 664 315 l 846 130 l 914 49 m 823 649 l 758 715 l 503 454 l 249 715 l 184 649 l 440 390 l 184 130 l 249 64 l 503 325 l 758 64 l 823 130 l 566 390 l 823 649 z "},"Ø":{"ha":1128,"x_min":60,"x_max":1196,"o":"m 1196 512 q 1025 79 1196 256 q 576 -108 846 -108 q 311 -30 421 -108 l 201 -146 l 121 -76 l 60 -19 l 168 95 q 62 370 62 204 q 244 814 62 631 q 687 998 425 998 q 951 922 838 998 l 1059 1035 l 1120 977 l 1188 896 l 1084 787 q 1196 512 1196 677 m 1108 593 q 993 869 1108 755 l 1097 977 l 1060 1012 l 954 901 q 687 981 837 981 q 256 803 433 981 q 79 370 79 625 q 191 95 79 207 l 83 -18 l 121 -53 l 229 62 q 496 -18 344 -18 q 940 166 762 -18 q 1108 593 1108 340 m 852 793 l 319 227 l 319 248 q 318 275 319 257 q 317 302 317 294 q 393 695 317 513 q 673 935 492 935 q 852 793 804 935 m 869 659 q 794 267 869 449 q 515 28 696 28 q 334 172 379 28 l 867 738 q 869 659 869 672 m 833 797 q 817 834 825 819 q 752 844 788 844 q 497 646 598 844 q 413 352 432 519 l 833 797 m 847 538 l 423 89 q 433 63 427 75 q 515 45 467 45 q 763 239 666 45 q 847 538 829 372 z "},"Ù":{"ha":1149,"x_min":152,"x_max":1362,"o":"m 1293 971 l 1362 881 l 1351 831 q 1227 798 1270 823 q 1137 604 1174 766 l 1055 243 q 892 -18 1017 74 q 597 -108 772 -108 q 355 -55 448 -108 q 222 56 319 -34 q 152 234 152 121 q 163 328 152 279 l 271 808 q 275 827 273 815 q 246 831 271 828 l 157 906 l 172 971 l 694 971 l 763 881 l 751 831 q 659 816 685 827 q 602 747 614 798 l 494 273 q 479 155 479 207 q 488 93 479 120 q 593 75 529 75 q 793 157 710 75 q 895 351 867 231 l 968 681 q 987 801 987 762 q 985 823 987 812 q 942 831 964 828 l 852 906 l 864 958 q 678 1039 784 992 q 635 1067 659 1048 l 551 1133 q 528 1180 528 1152 q 637 1269 528 1269 q 734 1214 688 1269 q 897 1035 777 1171 l 951 970 l 1293 971 m 1272 954 l 880 954 l 873 920 q 966 887 939 908 q 1003 801 1003 860 q 985 677 1003 758 l 911 347 q 803 143 882 221 q 593 58 716 58 q 391 237 391 58 q 406 356 391 290 l 514 830 q 578 905 528 890 q 665 921 616 917 l 673 954 l 184 954 l 177 920 q 294 843 294 900 q 288 804 294 831 l 179 323 q 168 234 168 275 q 280 34 168 98 q 517 -18 371 -18 q 808 69 690 -18 q 967 326 929 159 l 1049 688 q 1143 886 1086 853 q 1265 921 1186 912 l 1272 954 m 874 1035 q 722 1202 812 1102 q 637 1252 681 1252 q 545 1180 545 1252 q 602 1121 545 1147 q 858 1017 692 1085 l 874 1035 z "},"Ú":{"ha":1149,"x_min":152,"x_max":1362,"o":"m 763 881 l 751 831 q 659 816 685 827 q 602 747 614 798 l 494 273 q 479 155 479 207 q 488 93 479 120 q 593 75 529 75 q 793 157 710 75 q 895 351 867 231 l 968 681 q 987 801 987 762 q 985 823 987 812 q 942 831 964 828 l 852 906 l 867 971 l 1293 971 l 1362 881 l 1351 831 q 1227 798 1270 823 q 1137 604 1174 766 l 1055 243 q 892 -18 1017 74 q 597 -108 772 -108 q 355 -55 448 -108 q 222 56 319 -34 q 152 234 152 121 q 163 328 152 279 l 271 808 q 275 827 273 815 q 246 831 271 828 l 157 906 l 172 971 l 629 971 l 599 997 l 568 1036 q 752 1214 621 1082 q 856 1269 804 1269 q 947 1233 920 1269 q 1021 1145 962 1215 q 1033 1111 1033 1132 q 966 1032 1033 1057 l 718 940 l 763 881 m 1272 954 l 880 954 l 873 920 q 966 887 939 908 q 1003 801 1003 860 q 985 677 1003 758 l 911 347 q 803 143 882 221 q 593 58 716 58 q 391 237 391 58 q 406 356 391 290 l 514 830 q 578 905 528 890 q 665 921 616 917 l 673 954 l 184 954 l 177 920 q 294 843 294 900 q 288 804 294 831 l 179 323 q 168 234 168 275 q 280 34 168 98 q 517 -18 371 -18 q 808 69 690 -18 q 967 326 929 159 l 1049 688 q 1143 886 1086 853 q 1265 921 1186 912 l 1272 954 m 945 1192 q 856 1252 945 1252 q 766 1204 808 1252 q 591 1034 722 1162 l 604 1017 q 883 1122 661 1036 q 945 1192 945 1146 z "},"Û":{"ha":1149,"x_min":152,"x_max":1362,"o":"m 1362 881 l 1351 831 q 1227 798 1270 823 q 1137 604 1174 766 l 1055 243 q 892 -18 1017 74 q 597 -108 772 -108 q 355 -55 448 -108 q 222 56 319 -34 q 152 234 152 121 q 163 328 152 279 l 271 808 q 275 827 273 815 q 246 831 271 828 l 157 906 l 172 971 l 556 971 l 528 996 l 496 1026 q 669 1204 583 1113 l 696 1232 q 801 1276 737 1276 q 884 1241 854 1276 l 956 1156 q 1019 1066 986 1120 q 1077 971 1051 1012 l 1293 971 l 1362 881 m 1002 1027 l 876 1223 q 801 1259 854 1259 q 707 1219 744 1259 q 519 1026 613 1119 l 530 1017 l 785 1154 l 990 1017 l 1002 1027 m 1001 971 l 864 1063 l 694 971 l 763 881 l 751 831 q 659 816 685 827 q 602 747 614 798 l 494 273 q 479 155 479 207 q 488 93 479 120 q 593 75 529 75 q 793 157 710 75 q 895 351 867 231 l 968 681 q 987 801 987 762 q 985 823 987 812 q 942 831 964 828 l 852 906 l 867 971 l 1001 971 m 1272 954 l 880 954 l 873 920 q 966 887 939 908 q 1003 801 1003 860 q 985 677 1003 758 l 911 347 q 803 143 882 221 q 593 58 716 58 q 391 237 391 58 q 406 356 391 290 l 514 830 q 578 905 528 890 q 665 921 616 917 l 673 954 l 184 954 l 177 920 q 294 843 294 900 q 288 804 294 831 l 179 323 q 168 234 168 275 q 280 34 168 98 q 517 -18 371 -18 q 808 69 690 -18 q 967 326 929 159 l 1049 688 q 1143 886 1086 853 q 1265 921 1186 912 l 1272 954 z "},"Ü":{"ha":1149,"x_min":152,"x_max":1362,"o":"m 1272 954 l 880 954 l 873 920 q 966 887 939 908 q 1003 801 1003 860 q 985 677 1003 758 l 911 347 q 803 143 882 221 q 593 58 716 58 q 391 237 391 58 q 406 356 391 290 l 514 830 q 578 905 528 890 q 665 921 616 917 l 673 954 l 184 954 l 177 920 q 294 843 294 900 q 288 804 294 831 l 179 323 q 168 234 168 275 q 280 34 168 98 q 517 -18 371 -18 q 808 69 690 -18 q 967 326 929 159 l 1049 688 q 1143 886 1086 853 q 1265 921 1186 912 l 1272 954 m 713 1146 q 683 1224 713 1191 q 607 1257 652 1257 q 531 1224 562 1257 q 500 1146 500 1192 q 531 1068 500 1101 q 607 1036 562 1036 q 683 1069 652 1036 q 713 1146 713 1101 m 1148 1074 q 1115 998 1148 1033 q 1074 971 1097 979 l 1293 971 l 1362 881 l 1351 831 q 1227 798 1270 823 q 1137 604 1174 766 l 1055 243 q 892 -18 1017 74 q 597 -108 772 -108 q 355 -55 448 -108 q 222 56 319 -34 q 152 234 152 121 q 163 328 152 279 l 271 808 q 275 827 273 815 q 246 831 271 828 l 157 906 l 172 971 l 639 971 q 597 996 621 977 l 526 1053 q 485 1146 485 1086 q 520 1235 485 1198 q 607 1272 555 1272 q 699 1227 661 1272 q 762 1150 715 1207 q 789 1074 789 1118 q 755 998 789 1034 q 697 966 730 972 l 763 881 l 751 831 q 659 816 685 827 q 602 747 614 798 l 494 273 q 479 155 479 207 q 488 93 479 120 q 593 75 529 75 q 793 157 710 75 q 895 351 867 231 l 968 681 q 987 801 987 762 q 985 823 987 812 q 942 831 964 828 l 852 906 l 867 971 l 998 971 q 956 996 980 978 l 884 1053 q 844 1146 844 1085 q 879 1235 844 1198 q 966 1272 914 1272 q 1058 1227 1021 1272 q 1121 1150 1066 1217 q 1148 1074 1148 1118 m 1072 1146 q 1041 1224 1072 1191 q 966 1257 1010 1257 q 889 1224 920 1257 q 859 1146 859 1192 q 889 1068 859 1101 q 966 1036 920 1036 q 1041 1069 1010 1036 q 1072 1146 1072 1101 z "},"Ý":{"ha":1010,"x_min":86,"x_max":1270,"o":"m 715 881 l 703 831 q 568 792 568 827 q 597 671 568 768 q 647 523 610 628 q 898 831 845 755 q 810 905 855 868 l 825 971 l 1200 971 l 1270 881 l 1259 831 q 1088 736 1187 823 q 920 557 1015 672 q 791 397 855 477 q 725 308 740 337 q 693 202 711 278 l 664 76 q 662 64 663 71 q 715 57 686 60 l 785 -32 l 774 -81 l 248 -81 l 158 -9 l 173 58 q 283 73 216 60 q 336 139 324 88 l 375 312 q 385 369 385 357 q 359 460 385 384 q 242 789 299 637 q 227 823 233 812 q 176 831 205 829 l 86 905 l 101 971 l 581 971 l 551 997 l 520 1036 q 704 1214 572 1082 q 808 1269 755 1269 q 899 1233 871 1269 q 973 1145 914 1215 q 985 1111 985 1132 q 918 1032 985 1057 l 669 941 l 715 881 m 1172 920 l 1179 954 l 838 954 l 830 920 q 937 869 937 912 q 775 649 937 841 l 612 454 q 479 873 479 826 q 617 921 479 916 l 625 954 l 115 954 l 107 920 q 258 795 214 911 q 375 465 305 669 q 402 369 402 386 q 391 308 402 355 l 352 135 q 288 57 338 77 q 186 41 264 47 l 179 9 l 688 9 l 695 42 q 570 120 570 56 q 576 159 570 132 q 602 272 591 227 q 635 387 621 359 q 705 484 651 420 q 834 644 769 564 q 1002 823 929 759 q 1172 920 1100 910 m 897 1192 q 808 1252 897 1252 q 718 1204 760 1252 q 543 1034 674 1162 l 556 1017 q 835 1122 612 1036 q 897 1192 897 1146 z "},"Þ":{"ha":974,"x_min":-37,"x_max":1063,"o":"m 1063 481 q 922 224 1063 319 q 625 140 795 140 l 478 140 l 463 72 l 463 61 q 505 57 478 60 l 574 -32 l 563 -81 l 54 -81 l -37 -9 l -22 58 q 73 70 45 60 q 134 134 123 86 l 286 807 q 289 826 287 814 q 260 831 275 829 l 170 906 l 184 971 l 711 971 l 781 881 l 769 831 q 673 814 718 828 q 631 785 646 806 l 660 785 q 947 694 871 785 q 1024 604 969 669 q 1063 481 1063 557 m 975 563 q 660 768 975 768 l 513 768 q 533 848 528 836 q 595 906 550 889 q 683 921 623 916 l 690 954 l 197 954 l 190 920 q 309 843 309 901 q 302 803 309 830 l 150 130 q 89 58 138 78 q -8 41 58 45 l -16 9 l 477 9 l 484 42 q 410 58 433 48 q 368 116 368 75 q 392 230 368 129 l 545 230 q 837 313 713 230 q 975 563 975 405 m 728 567 q 664 357 728 432 q 463 276 595 276 l 402 276 l 503 722 l 555 722 q 728 567 728 722 m 712 567 q 704 623 712 599 q 635 631 673 631 l 589 631 l 515 296 q 712 567 712 327 z "},"ß":{"ha":901,"x_min":-117,"x_max":983,"o":"m 519 669 q 543 667 534 667 q 654 739 614 667 q 688 885 688 800 q 686 913 688 901 q 561 821 607 913 q 515 669 537 772 l 519 669 m 361 -58 q 334 -131 358 -81 q 275 -220 305 -189 q 96 -297 199 -296 l -27 -298 l -117 -225 l -103 -161 q -16 -148 -43 -157 q 30 -87 20 -136 l 196 692 q 344 960 233 863 q 630 1060 458 1060 q 872 977 797 1060 q 951 882 888 960 q 983 789 983 842 q 905 626 983 692 q 801 566 857 585 q 812 553 809 557 l 890 461 q 938 316 938 405 q 831 34 938 152 q 559 -89 722 -89 q 410 -75 466 -89 l 366 -38 q 361 -58 362 -54 m 401 65 q 569 205 510 65 q 614 437 614 311 q 604 516 614 483 q 579 518 592 518 l 561 518 l 494 572 l 389 66 l 401 65 m 608 1004 q 704 885 704 1004 q 662 725 704 788 q 519 652 612 652 l 502 652 l 492 608 l 500 608 q 631 437 631 608 q 582 192 631 303 q 401 48 519 48 q 349 54 383 48 l 340 12 q 479 1 393 1 q 746 121 639 1 q 850 397 850 236 q 659 618 850 579 l 659 641 q 821 713 755 657 q 895 870 895 777 q 801 1008 895 962 q 630 1043 729 1043 q 375 964 489 1043 q 212 688 253 879 l 46 -92 q -8 -163 28 -146 q -90 -177 -28 -172 l -96 -208 l 16 -210 q 197 -128 123 -211 q 283 85 251 -67 l 424 739 q 472 890 444 830 q 608 1004 526 1004 z "},"à":{"ha":908,"x_min":45,"x_max":939,"o":"m 719 691 l 688 665 q 447 820 572 735 q 429 835 441 824 l 346 907 q 313 976 313 936 q 339 1034 313 1009 q 397 1059 364 1059 q 501 1009 459 1059 l 577 920 q 593 898 586 909 l 719 691 m 628 774 q 506 975 582 851 q 397 1042 465 1042 q 350 1022 371 1042 q 330 976 330 1002 q 372 908 330 937 q 608 757 492 827 l 628 774 m 939 20 l 924 -41 q 761 -95 863 -93 q 631 -53 677 -96 q 577 -7 614 -37 q 492 -68 528 -49 q 366 -102 427 -102 q 210 -52 267 -102 l 119 29 q 45 239 45 95 q 159 555 45 419 q 457 697 280 697 q 637 644 574 697 l 842 688 l 858 669 l 928 586 l 815 102 q 871 117 833 104 l 939 20 m 847 87 q 777 74 810 73 q 725 150 725 75 q 743 252 725 177 l 840 665 l 836 669 l 633 627 q 457 680 570 680 q 171 543 287 680 q 61 239 61 412 q 286 -13 61 -13 q 507 94 386 -13 l 521 94 q 681 -5 557 -5 q 838 47 747 -5 l 847 87 m 602 514 l 517 142 q 395 74 454 74 q 283 236 283 74 q 343 507 283 393 q 497 629 408 629 q 602 515 602 629 l 602 514 m 586 515 q 584 539 586 529 l 576 539 q 416 389 475 539 q 371 155 371 275 q 376 92 371 119 q 395 91 385 91 q 501 151 446 91 l 586 515 z "},"á":{"ha":908,"x_min":45,"x_max":939,"o":"m 939 20 l 924 -41 q 761 -95 863 -93 q 631 -53 677 -96 q 577 -7 614 -37 q 492 -68 528 -49 q 366 -102 427 -102 q 210 -52 267 -102 l 119 29 q 45 239 45 95 q 166 561 45 425 q 423 695 275 683 l 376 736 l 338 771 l 488 984 q 613 1059 540 1059 q 691 1026 663 1059 q 766 939 706 1008 q 776 909 776 926 q 665 783 776 850 q 505 694 659 780 q 637 644 587 686 l 842 688 l 858 669 l 928 586 l 815 102 q 871 117 833 104 l 939 20 m 688 990 q 661 1029 688 1014 q 613 1042 639 1042 q 501 975 548 1042 q 360 774 399 827 l 378 757 l 635 910 q 688 990 688 942 m 847 87 q 777 74 810 73 q 725 150 725 75 q 743 252 725 177 l 840 665 l 836 669 l 633 627 q 457 680 570 680 q 171 543 287 680 q 61 239 61 412 q 286 -13 61 -13 q 507 94 386 -13 l 521 94 q 681 -5 557 -5 q 838 47 747 -5 l 847 87 m 602 514 l 517 142 q 395 74 454 74 q 283 236 283 74 q 343 507 283 393 q 497 629 408 629 q 602 515 602 629 l 602 514 m 586 515 q 584 539 586 529 l 576 539 q 416 389 475 539 q 371 155 371 275 q 376 92 371 119 q 395 91 385 91 q 501 151 446 91 l 586 515 z "},"â":{"ha":908,"x_min":45,"x_max":939,"o":"m 842 688 l 858 669 l 928 586 l 815 102 q 871 117 833 104 l 939 20 l 924 -41 q 761 -95 863 -93 q 631 -53 677 -96 q 577 -7 614 -37 q 492 -68 528 -49 q 366 -102 427 -102 q 210 -52 267 -102 l 119 29 q 45 239 45 95 q 166 561 45 425 q 335 677 241 645 l 319 686 l 227 765 q 425 1015 311 880 q 530 1059 462 1059 q 612 1025 584 1059 l 685 939 q 692 930 689 933 q 811 686 722 885 l 795 677 l 842 688 m 694 738 l 588 837 l 386 690 q 457 697 420 697 q 637 644 574 697 l 769 672 l 694 738 m 697 758 l 721 771 q 605 1006 635 960 q 530 1042 582 1042 q 437 1002 473 1042 q 252 770 387 947 l 273 758 l 511 931 l 697 758 m 847 87 q 777 74 810 73 q 725 150 725 75 q 743 252 725 177 l 840 665 l 836 669 l 633 627 q 457 680 570 680 q 171 543 287 680 q 61 239 61 412 q 286 -13 61 -13 q 507 94 386 -13 l 521 94 q 681 -5 557 -5 q 838 47 747 -5 l 847 87 m 602 514 l 517 142 q 395 74 454 74 q 283 236 283 74 q 343 507 283 393 q 497 629 408 629 q 602 515 602 629 l 602 514 m 586 515 q 584 539 586 529 l 576 539 q 416 389 475 539 q 371 155 371 275 q 376 92 371 119 q 395 91 385 91 q 501 151 446 91 l 586 515 z "},"ã":{"ha":908,"x_min":45,"x_max":939,"o":"m 898 925 q 745 741 844 801 q 671 721 711 721 q 540 760 611 721 q 436 796 475 796 q 375 760 403 796 q 332 696 366 747 l 284 716 l 193 793 q 286 932 232 874 q 425 1008 355 1008 q 608 944 477 1008 q 654 935 627 935 q 718 955 701 935 q 763 1033 724 962 l 829 1012 l 898 925 m 806 1001 l 771 1013 q 730 944 739 954 q 654 918 709 918 q 547 956 624 918 q 425 991 475 991 q 300 924 364 991 q 216 802 252 873 l 249 788 q 292 851 284 842 q 356 886 323 886 q 467 849 389 886 q 591 811 545 811 q 661 830 629 811 q 806 1001 754 885 m 939 20 l 924 -41 q 761 -95 863 -93 q 631 -53 677 -96 q 577 -7 614 -37 q 492 -68 528 -49 q 366 -102 427 -102 q 210 -52 267 -102 l 119 29 q 45 239 45 95 q 159 555 45 419 q 457 697 280 697 q 637 644 574 697 l 842 688 l 858 669 l 928 586 l 815 102 q 871 117 833 104 l 939 20 m 847 87 q 777 74 810 73 q 725 150 725 75 q 743 252 725 177 l 840 665 l 836 669 l 633 627 q 457 680 570 680 q 171 543 287 680 q 61 239 61 412 q 286 -13 61 -13 q 507 94 386 -13 l 521 94 q 681 -5 557 -5 q 838 47 747 -5 l 847 87 m 602 514 l 517 142 q 395 74 454 74 q 283 236 283 74 q 343 507 283 393 q 497 629 408 629 q 602 515 602 629 l 602 514 m 586 515 q 584 539 586 529 l 576 539 q 416 389 475 539 q 371 155 371 275 q 376 92 371 119 q 395 91 385 91 q 501 151 446 91 l 586 515 z "},"ä":{"ha":908,"x_min":45,"x_max":939,"o":"m 531 844 q 497 761 531 795 q 415 726 463 726 q 334 759 372 726 l 262 823 q 220 916 220 859 q 256 1005 220 968 q 345 1042 292 1042 q 438 996 401 1042 q 503 920 468 960 q 531 844 531 886 m 453 916 q 421 994 453 961 q 345 1026 389 1026 q 267 994 298 1026 q 235 916 235 962 q 267 838 235 869 q 345 806 298 806 q 421 838 389 806 q 453 916 453 870 m 863 844 q 829 761 863 795 q 747 726 795 726 q 667 759 704 726 l 594 823 q 553 916 553 859 q 589 1005 553 968 q 677 1042 625 1042 q 770 996 733 1042 q 835 920 800 960 q 863 844 863 886 m 785 916 q 753 994 785 961 q 677 1026 722 1026 q 599 994 631 1026 q 567 916 567 962 q 599 838 567 869 q 677 806 631 806 q 753 838 722 806 q 785 916 785 870 m 939 20 l 924 -41 q 761 -95 863 -93 q 631 -53 677 -96 q 577 -7 614 -37 q 492 -68 528 -49 q 366 -102 427 -102 q 210 -52 267 -102 l 119 29 q 45 239 45 95 q 159 555 45 419 q 457 697 280 697 q 637 644 574 697 l 842 688 l 858 669 l 928 586 l 815 102 q 871 117 833 104 l 939 20 m 847 87 q 777 74 810 73 q 725 150 725 75 q 743 252 725 177 l 840 665 l 836 669 l 633 627 q 457 680 570 680 q 171 543 287 680 q 61 239 61 412 q 286 -13 61 -13 q 507 94 386 -13 l 521 94 q 681 -5 557 -5 q 838 47 747 -5 l 847 87 m 602 514 l 517 142 q 395 74 454 74 q 283 236 283 74 q 343 507 283 393 q 497 629 408 629 q 602 515 602 629 l 602 514 m 586 515 q 584 539 586 529 l 576 539 q 416 389 475 539 q 371 155 371 275 q 376 92 371 119 q 395 91 385 91 q 501 151 446 91 l 586 515 z "},"å":{"ha":908,"x_min":45,"x_max":939,"o":"m 939 20 l 924 -41 q 761 -95 863 -93 q 631 -53 677 -96 q 577 -7 614 -37 q 492 -68 528 -49 q 366 -102 427 -102 q 210 -52 267 -102 l 119 29 q 45 239 45 95 q 159 555 45 419 q 457 697 280 697 q 469 696 463 697 l 468 697 q 452 710 463 701 l 368 784 q 327 879 327 820 q 397 1022 327 968 q 553 1072 462 1072 q 696 1017 649 1072 q 772 928 701 1013 q 798 852 798 897 q 729 714 798 766 q 601 668 675 673 q 637 644 621 658 l 842 688 l 858 669 l 928 586 l 815 102 q 871 117 833 104 l 939 20 m 710 933 q 660 1027 710 994 q 553 1055 617 1055 q 410 1010 469 1055 q 344 879 344 960 q 393 785 344 818 q 500 758 434 758 q 644 802 585 758 q 710 933 710 851 m 847 87 q 777 74 810 73 q 725 150 725 75 q 743 252 725 177 l 840 665 l 836 669 l 633 627 q 457 680 570 680 q 171 543 287 680 q 61 239 61 412 q 286 -13 61 -13 q 507 94 386 -13 l 521 94 q 681 -5 557 -5 q 838 47 747 -5 l 847 87 m 625 935 q 598 835 625 876 q 510 788 567 788 q 428 879 428 788 q 456 977 428 937 q 544 1024 489 1024 q 625 935 625 1024 m 602 514 l 517 142 q 395 74 454 74 q 283 236 283 74 q 343 507 283 393 q 497 629 408 629 q 602 515 602 629 l 602 514 m 610 933 q 541 888 566 928 q 517 805 519 853 q 589 848 564 808 q 610 933 610 883 m 586 515 q 584 539 586 529 l 576 539 q 416 389 475 539 q 371 155 371 275 q 376 92 371 119 q 395 91 385 91 q 501 151 446 91 l 586 515 z "},"æ":{"ha":1178,"x_min":20,"x_max":1217,"o":"m 1217 452 q 1017 246 1217 306 q 768 196 897 210 q 781 98 768 140 q 834 90 804 90 q 1071 222 972 90 l 1132 170 l 1200 87 q 1049 -52 1139 -1 q 851 -104 956 -104 q 622 -33 705 -104 l 559 20 q 278 -103 438 -103 q 160 -67 207 -103 q 151 -60 157 -65 l 67 14 q 20 125 20 55 q 140 322 20 261 q 241 363 184 344 q 231 372 237 366 l 144 448 q 119 513 119 470 q 239 650 119 596 q 459 697 341 697 q 677 639 605 697 q 895 697 786 697 q 1113 630 1055 697 q 1188 541 1142 596 q 1217 452 1217 506 m 507 548 q 507 553 507 550 q 432 530 464 550 q 437 464 437 456 q 427 411 437 433 l 484 421 q 507 548 507 525 m 1129 534 q 895 680 1129 680 q 675 618 787 680 q 459 680 604 680 q 245 635 344 680 q 136 513 136 585 q 227 440 136 440 q 350 545 350 440 q 343 616 350 537 q 438 643 386 643 q 524 548 524 643 q 498 406 524 523 q 148 307 270 369 q 36 125 36 251 q 85 20 36 58 q 199 -14 130 -14 q 486 119 360 -14 l 498 119 q 771 -14 571 -14 q 962 35 871 -14 q 1109 167 1050 83 l 1074 197 q 834 73 977 73 q 680 277 680 73 l 680 285 q 935 336 814 300 q 1129 534 1129 393 m 930 515 q 849 366 930 410 q 681 323 798 338 q 722 515 693 435 q 844 643 769 643 q 930 515 930 643 m 489 363 q 475 254 475 302 q 483 170 475 201 q 328 75 415 75 q 243 163 243 75 q 323 309 243 258 q 489 363 378 345 m 913 515 q 911 551 913 531 q 810 431 850 541 q 789 359 801 406 q 913 515 913 394 m 465 174 q 459 245 459 199 q 332 92 337 199 q 465 174 407 94 z "},"ç":{"ha":738,"x_min":47,"x_max":807,"o":"m 551 -106 q 566 -153 566 -125 q 381 -294 566 -273 q 239 -301 323 -301 l 149 -229 l 164 -159 l 171 -159 q 327 -138 301 -159 l 256 -78 l 260 -56 q 222 -27 239 -43 l 128 56 q 47 270 47 127 q 160 566 47 444 q 485 697 282 697 q 703 622 641 697 q 775 536 711 611 q 807 441 807 498 q 776 346 807 382 q 685 307 743 307 q 613 326 645 307 q 596 339 605 331 l 513 412 q 488 469 488 435 q 505 544 488 501 q 401 401 437 515 q 373 220 373 314 q 389 100 373 148 q 443 91 412 91 q 570 125 519 91 q 663 222 612 152 l 724 170 l 792 87 q 648 -52 709 -16 q 541 -94 596 -82 l 551 -106 m 277 -61 q 357 -106 357 -63 q 239 -174 357 -172 q 177 -175 201 -175 l 169 -211 q 300 -205 248 -211 q 478 -71 478 -184 q 439 -9 478 -28 q 561 35 503 1 q 701 167 647 83 l 666 197 q 570 106 617 133 q 443 74 517 74 q 285 301 285 74 q 323 514 285 417 q 473 644 375 644 q 555 606 526 644 q 504 469 504 519 q 539 414 504 434 q 606 397 569 397 q 691 433 661 397 q 719 523 719 467 q 485 680 719 680 q 172 553 290 680 q 63 270 63 436 q 153 56 63 130 q 289 -5 208 11 l 277 -61 z "},"è":{"ha":767,"x_min":47,"x_max":817,"o":"m 730 534 q 494 680 730 680 q 189 566 311 680 q 64 268 64 450 q 150 56 64 130 q 372 -14 231 -14 q 562 35 471 -14 q 710 167 650 84 l 674 197 q 435 73 577 73 q 310 139 347 73 q 279 286 283 188 q 535 336 413 300 q 730 534 730 393 m 691 691 l 663 667 q 711 633 694 652 q 789 541 747 591 q 817 452 817 506 q 617 246 817 304 q 367 197 496 211 q 382 98 370 138 q 435 90 405 90 q 671 222 573 90 l 732 170 l 801 87 q 649 -52 741 -1 q 451 -104 555 -104 q 224 -31 307 -104 l 135 47 q 126 55 132 49 q 47 268 47 135 q 165 565 47 440 q 494 697 292 697 q 645 675 587 697 q 419 820 536 741 q 401 835 413 824 l 319 907 q 286 976 286 937 q 311 1034 286 1009 q 370 1059 336 1059 q 473 1009 431 1059 l 549 920 q 565 898 558 909 l 691 691 m 600 774 q 478 975 554 851 q 370 1042 437 1042 q 322 1022 343 1042 q 302 976 302 1002 q 345 908 302 937 q 580 757 464 827 l 600 774 m 530 515 q 449 365 530 409 q 280 324 401 339 q 323 515 290 427 q 444 643 372 643 q 530 515 530 643 m 513 515 q 511 551 513 534 q 411 431 453 541 q 388 359 397 395 q 513 515 513 393 z "},"é":{"ha":767,"x_min":47,"x_max":817,"o":"m 711 633 q 789 541 730 612 q 817 452 817 506 q 617 246 817 304 q 367 197 496 211 q 382 98 370 138 q 435 90 405 90 q 671 222 573 90 l 732 170 l 801 87 q 649 -52 741 -1 q 451 -104 555 -104 q 224 -31 305 -104 q 135 47 208 -17 q 126 55 132 49 q 47 268 47 135 q 165 565 47 440 q 410 690 264 668 l 321 771 l 471 984 q 597 1059 524 1059 q 675 1026 647 1059 q 749 939 690 1008 q 760 909 760 926 q 650 785 760 851 q 493 696 597 755 q 711 633 652 696 m 730 534 q 494 680 730 680 q 189 566 311 680 q 64 268 64 450 q 150 56 64 130 q 372 -14 231 -14 q 562 35 471 -14 q 710 167 650 84 l 674 197 q 435 73 577 73 q 310 139 347 73 q 279 286 283 188 q 535 336 413 300 q 730 534 730 393 m 530 515 q 449 365 530 409 q 280 324 401 339 q 323 515 290 427 q 444 643 372 643 q 530 515 530 643 m 513 515 q 511 551 513 534 q 411 431 453 541 q 388 359 397 395 q 513 515 513 393 m 671 990 q 644 1029 671 1014 q 597 1042 621 1042 q 485 975 532 1042 q 344 774 382 827 l 361 757 l 618 910 q 671 990 671 942 z "},"ê":{"ha":767,"x_min":47,"x_max":817,"o":"m 730 534 q 494 680 730 680 q 189 566 311 680 q 64 268 64 450 q 150 56 64 130 q 372 -14 231 -14 q 562 35 471 -14 q 710 167 650 84 l 674 197 q 435 73 577 73 q 310 139 347 73 q 279 286 283 188 q 535 336 413 300 q 730 534 730 393 m 199 765 q 397 1015 283 880 q 502 1059 434 1059 q 585 1025 556 1059 l 657 939 q 664 930 662 933 q 783 686 695 882 l 748 667 l 667 738 l 560 837 l 332 671 q 494 697 406 697 q 711 633 656 697 q 789 541 731 610 q 817 452 817 506 q 617 246 817 304 q 367 197 496 211 q 382 98 370 138 q 435 90 405 90 q 671 222 573 90 l 732 170 l 801 87 q 649 -52 741 -1 q 451 -104 555 -104 q 224 -31 307 -104 l 135 47 q 126 55 132 49 q 47 268 47 135 q 165 565 47 440 q 322 668 233 635 l 291 686 l 199 765 m 669 758 l 693 771 q 577 1006 608 960 q 502 1042 554 1042 q 409 1002 445 1042 q 224 770 359 947 l 245 758 l 484 931 l 669 758 m 530 515 q 449 365 530 409 q 280 324 401 339 q 323 515 290 427 q 444 643 372 643 q 530 515 530 643 m 513 515 q 511 551 513 534 q 411 431 453 541 q 388 359 397 395 q 513 515 513 393 z "},"ë":{"ha":767,"x_min":47,"x_max":829,"o":"m 818 452 q 618 246 818 304 q 367 197 497 211 q 382 98 370 138 q 435 90 405 90 q 671 222 573 90 l 732 170 l 801 87 q 650 -52 741 -1 q 452 -104 555 -104 q 224 -31 305 -104 q 135 47 208 -17 q 127 55 134 47 q 47 268 47 136 q 165 565 47 440 q 494 697 292 697 q 711 633 652 697 q 789 541 728 614 q 818 452 818 505 m 730 534 q 494 680 730 680 q 189 566 311 680 q 64 268 64 450 q 150 56 64 130 q 372 -14 231 -14 q 562 35 471 -14 q 710 167 650 84 l 674 197 q 435 73 577 73 q 310 139 347 73 q 279 286 283 186 q 536 336 414 300 q 730 534 730 392 m 530 515 q 449 365 530 409 q 280 324 401 339 q 323 515 290 427 q 444 643 372 643 q 530 515 530 643 m 513 515 q 511 551 513 534 q 411 431 453 541 q 388 359 397 395 q 513 515 513 393 m 496 844 q 463 761 496 795 q 380 726 429 726 q 300 759 338 726 l 227 823 q 186 916 186 859 q 222 1005 186 968 q 310 1042 258 1042 q 404 996 367 1042 q 469 920 434 960 q 496 844 496 887 m 418 916 q 387 994 418 961 q 310 1026 355 1026 q 233 994 264 1026 q 201 916 201 961 q 233 838 201 870 q 310 806 264 806 q 387 838 355 806 q 418 916 418 870 m 829 844 q 795 761 829 795 q 713 726 761 726 q 633 759 670 726 l 559 823 q 518 916 518 859 q 554 1005 518 968 q 642 1042 591 1042 q 736 996 699 1042 q 801 920 766 960 q 829 844 829 887 m 751 916 q 719 994 751 961 q 642 1026 687 1026 q 565 994 597 1026 q 533 916 533 961 q 565 838 533 870 q 642 806 597 806 q 719 838 687 806 q 751 916 751 870 z "},"ì":{"ha":504,"x_min":86,"x_max":526,"o":"m 496 691 l 465 665 q 224 820 349 735 q 205 835 218 824 l 123 907 q 90 976 90 937 q 116 1034 90 1009 q 174 1059 141 1059 q 278 1009 236 1059 l 354 920 q 370 898 363 909 l 496 691 m 406 774 q 283 975 360 850 q 174 1042 241 1042 q 127 1022 148 1042 q 107 976 107 1002 q 149 908 107 937 q 385 757 264 829 l 406 774 m 86 559 l 105 640 q 242 697 170 697 q 382 644 334 697 q 458 553 403 619 q 487 467 487 518 q 473 361 487 413 l 418 164 q 403 100 408 128 q 459 112 437 100 l 526 16 l 512 -45 q 349 -100 439 -100 q 233 -66 278 -100 q 136 18 215 -54 q 93 122 93 57 q 119 281 93 185 q 161 427 122 292 q 178 492 168 451 l 86 559 m 435 83 q 365 69 402 70 q 324 95 339 68 q 313 145 313 117 q 347 313 313 191 q 380 429 363 371 q 399 548 399 496 q 352 649 399 614 q 242 680 310 680 q 119 628 178 680 l 110 587 q 163 601 127 593 q 182 586 172 602 q 195 525 195 564 q 161 357 195 479 q 127 241 144 298 q 109 122 109 172 q 159 21 109 56 q 269 -10 203 -10 q 425 42 342 -10 l 435 83 z "},"í":{"ha":505,"x_min":87,"x_max":593,"o":"m 155 771 l 305 984 q 431 1059 357 1059 q 509 1026 481 1059 q 583 939 524 1008 q 593 909 593 926 q 476 780 593 850 q 311 688 468 774 q 382 644 355 674 q 459 553 404 620 q 488 467 488 518 q 473 361 488 413 l 419 164 q 404 100 409 128 q 460 112 437 100 l 527 16 l 513 -45 q 350 -100 440 -100 q 233 -66 279 -100 q 136 18 216 -54 q 94 122 94 57 q 120 281 94 185 q 162 427 123 292 q 178 492 169 451 l 87 559 l 106 640 q 237 696 169 695 l 155 771 m 506 990 q 479 1029 506 1014 q 431 1042 456 1042 q 319 975 366 1042 q 178 774 216 827 l 195 757 l 452 910 q 506 990 506 942 m 435 83 q 366 69 403 70 q 325 95 340 68 q 313 145 313 117 q 347 313 313 191 q 381 429 364 371 q 399 548 399 496 q 353 649 399 614 q 243 680 311 680 q 120 628 178 680 l 111 587 q 163 601 127 593 q 189 570 180 602 q 196 525 196 546 q 162 357 196 479 q 128 241 145 298 q 110 122 110 172 q 160 21 110 56 q 270 -10 204 -10 q 426 42 342 -10 l 435 83 z "},"î":{"ha":504,"x_min":31,"x_max":582,"o":"m 492 772 q 395 1005 408 979 q 320 1042 377 1042 q 228 1004 254 1042 q 55 770 199 962 l 76 758 l 304 932 l 468 758 l 492 772 m 86 559 l 105 640 q 149 672 129 661 l 123 686 l 31 765 q 214 1013 123 887 q 320 1059 247 1059 q 398 1030 372 1059 q 472 943 411 1015 q 482 928 478 936 q 582 686 492 907 l 546 667 l 465 738 l 374 833 l 186 688 q 242 697 212 697 q 382 644 334 697 q 458 553 397 627 q 487 467 487 519 q 473 361 487 413 l 418 164 q 403 100 408 128 q 459 112 437 100 l 526 16 l 512 -45 q 349 -100 439 -100 q 233 -66 278 -100 q 136 18 215 -54 q 93 122 93 57 q 119 281 93 185 q 161 427 122 292 q 178 492 168 451 l 86 559 m 435 83 q 365 69 402 70 q 324 95 339 68 q 313 145 313 117 q 347 313 313 191 q 380 429 363 371 q 399 548 399 496 q 352 649 399 614 q 242 680 310 680 q 119 628 178 680 l 110 587 q 163 601 127 593 q 189 570 179 602 q 195 525 195 546 q 161 357 195 479 q 127 241 144 298 q 109 122 109 172 q 159 21 109 56 q 269 -10 203 -10 q 425 42 342 -10 l 435 83 z "},"ï":{"ha":505,"x_min":31,"x_max":667,"o":"m 342 844 q 308 761 342 795 q 226 726 274 726 q 146 759 183 726 l 73 823 q 31 916 31 859 q 67 1005 31 968 q 155 1042 104 1042 q 250 996 212 1042 q 314 920 279 960 q 342 844 342 887 m 264 916 q 232 994 264 961 q 155 1026 200 1026 q 78 994 110 1026 q 46 916 46 961 q 78 838 46 870 q 155 806 110 806 q 232 838 200 806 q 264 916 264 870 m 667 844 q 633 761 667 795 q 551 726 600 726 q 471 759 509 726 l 398 823 q 357 916 357 859 q 393 1005 357 968 q 481 1042 429 1042 q 575 996 538 1042 q 640 920 593 974 q 667 844 667 887 m 589 916 q 558 994 589 961 q 481 1026 526 1026 q 404 994 435 1026 q 372 916 372 961 q 404 838 372 870 q 481 806 435 806 q 557 838 526 806 q 589 916 589 870 m 87 559 l 106 640 q 243 697 172 697 q 383 644 336 697 q 460 553 404 619 q 488 467 488 519 q 473 361 488 413 l 419 164 q 404 100 409 128 q 460 112 437 100 l 528 16 l 513 -45 q 350 -100 441 -100 q 233 -66 279 -100 q 136 18 216 -54 q 94 122 94 57 q 120 281 94 185 q 163 427 134 330 q 178 492 167 440 l 87 559 m 435 83 q 366 69 404 70 q 334 83 348 68 q 314 145 314 104 q 347 313 314 193 q 381 429 364 371 q 399 548 399 496 q 353 649 399 614 q 243 680 311 680 q 121 628 179 680 l 111 587 q 164 601 127 593 q 190 570 180 602 q 196 525 196 547 q 162 357 196 479 q 128 241 145 299 q 111 122 111 174 q 159 22 111 57 q 270 -10 203 -10 q 426 42 343 -10 l 435 83 z "},"ð":{"ha":877,"x_min":46,"x_max":935,"o":"m 935 479 q 821 79 935 239 q 461 -103 691 -103 q 231 -31 319 -103 q 229 -29 229 -31 q 130 56 200 -8 q 46 269 46 134 q 163 574 46 450 q 462 700 282 700 q 507 696 485 700 l 437 755 l 399 826 l 556 914 q 467 998 523 956 l 520 1060 q 663 975 589 1028 l 815 1061 l 892 968 l 921 913 l 789 840 q 935 479 935 692 m 635 621 q 635 682 634 630 q 631 748 636 712 l 531 692 q 635 621 600 675 m 846 560 q 696 924 846 770 l 830 998 l 808 1038 l 661 955 q 524 1040 586 1010 l 491 1001 q 581 909 541 962 l 422 819 l 443 779 l 606 870 q 652 682 657 773 l 648 601 l 631 597 q 462 683 582 683 q 175 562 290 683 q 62 269 62 442 q 155 57 62 133 q 381 -14 241 -14 q 734 166 608 -14 q 846 560 846 325 m 610 465 q 557 174 610 307 q 397 23 497 23 q 280 210 280 23 q 325 477 280 356 q 496 637 385 637 q 610 465 610 637 m 593 465 q 585 547 593 513 l 575 547 q 412 393 469 547 q 368 128 368 274 q 376 41 368 76 q 397 40 386 40 q 542 181 486 40 q 593 465 593 311 z "},"ñ":{"ha":949,"x_min":58,"x_max":977,"o":"m 930 925 q 777 741 876 801 q 703 721 743 721 q 571 760 642 721 q 467 796 506 796 q 406 760 434 796 q 363 696 402 754 l 316 716 l 225 793 q 317 932 264 876 q 457 1008 387 1008 q 640 944 510 1008 q 686 935 659 935 q 749 955 733 935 q 795 1033 755 963 l 861 1012 l 930 925 m 838 1001 l 802 1013 q 762 944 768 952 q 686 918 741 918 q 579 956 656 918 q 457 991 507 991 q 332 924 396 991 q 248 802 283 872 l 281 788 q 324 851 316 842 q 388 886 355 886 q 499 849 420 886 q 623 811 577 811 q 692 830 661 811 q 838 1001 786 886 m 977 22 l 962 -39 q 799 -93 891 -93 q 671 -49 720 -93 q 587 25 649 -29 q 544 129 544 64 q 557 236 544 191 q 605 416 563 257 q 617 491 614 452 q 482 408 557 479 l 372 -81 l 153 -81 l 62 -9 l 159 419 q 172 488 170 469 q 149 484 165 488 l 58 552 l 77 633 q 142 667 98 649 q 240 690 199 690 q 384 634 332 690 l 429 586 q 696 697 559 697 q 827 643 781 697 q 904 552 847 621 q 932 465 932 517 q 920 361 932 410 l 869 171 q 854 103 856 123 q 909 119 882 102 l 977 22 m 885 90 q 815 76 849 75 q 764 152 764 77 q 831 445 764 187 q 844 547 844 494 q 800 646 844 608 q 696 680 759 680 q 417 553 554 680 l 402 553 q 240 673 376 673 q 163 655 212 673 q 91 621 115 638 l 81 579 q 151 594 117 602 q 192 517 192 586 q 175 415 192 490 l 83 9 l 286 9 l 395 494 q 560 583 489 583 q 636 505 636 583 q 573 232 636 469 q 561 129 561 186 q 610 28 561 64 q 720 -3 653 -3 q 875 49 808 -3 l 885 90 z "},"ò":{"ha":875,"x_min":46,"x_max":910,"o":"m 910 325 q 788 26 910 146 q 450 -103 656 -103 q 227 -31 312 -103 q 217 -23 224 -29 q 122 60 188 -4 q 46 265 46 135 q 180 582 46 460 q 507 699 309 699 q 774 597 686 699 q 855 501 822 543 q 910 325 910 433 m 822 406 q 730 616 822 543 q 507 682 647 682 q 192 570 316 682 q 62 265 62 454 q 151 57 62 132 q 370 -14 234 -14 q 703 113 573 -14 q 822 406 822 231 m 605 483 q 564 205 605 334 q 392 23 507 23 q 279 187 279 23 q 319 464 279 337 q 494 646 377 646 q 605 483 605 646 m 588 483 q 581 555 588 526 l 574 555 q 411 391 466 555 q 368 106 368 262 q 374 41 368 69 q 392 40 382 40 q 541 191 488 40 q 588 483 588 323 m 746 691 l 715 665 q 474 820 599 735 q 456 835 468 824 l 373 907 q 340 976 340 936 q 366 1034 340 1009 q 425 1059 391 1059 q 528 1009 486 1059 l 604 920 q 620 898 613 909 l 746 691 m 655 774 l 533 975 q 425 1042 492 1042 q 377 1022 398 1042 q 357 976 357 1002 q 399 908 357 937 q 635 757 513 830 l 655 774 z "},"ó":{"ha":875,"x_min":46,"x_max":910,"o":"m 774 597 q 855 501 820 545 q 910 325 910 433 q 788 26 910 146 q 450 -103 656 -103 q 227 -31 312 -103 q 217 -23 224 -29 q 122 60 188 -4 q 46 265 46 135 q 174 574 46 450 q 439 694 280 677 l 354 771 l 504 984 q 629 1059 556 1059 q 707 1026 679 1059 q 782 939 722 1008 q 793 909 793 926 q 683 785 793 851 q 526 696 683 785 q 774 597 692 691 m 822 406 q 730 616 822 543 q 507 682 647 682 q 192 570 316 682 q 62 265 62 454 q 151 57 62 132 q 370 -14 234 -14 q 703 113 573 -14 q 822 406 822 231 m 605 483 q 564 205 605 334 q 392 23 507 23 q 279 187 279 23 q 319 464 279 337 q 494 646 377 646 q 605 483 605 646 m 588 483 q 581 555 588 526 l 574 555 q 411 391 466 555 q 368 106 368 262 q 374 41 368 69 q 392 40 382 40 q 541 191 488 40 q 588 483 588 323 m 705 990 q 677 1029 705 1014 q 629 1042 654 1042 q 517 975 564 1042 l 376 774 l 394 757 l 651 910 q 705 990 705 942 z "},"ô":{"ha":875,"x_min":46,"x_max":910,"o":"m 822 406 q 730 616 822 543 q 507 682 647 682 q 192 570 316 682 q 62 265 62 454 q 151 57 62 132 q 370 -14 234 -14 q 703 113 573 -14 q 822 406 822 231 m 250 765 q 448 1015 335 880 q 553 1059 486 1059 q 636 1025 608 1059 l 709 939 q 715 930 713 933 q 835 686 745 885 l 799 667 l 718 738 l 612 837 l 410 690 q 507 699 456 699 q 774 597 686 699 q 855 501 797 571 q 910 325 910 435 q 788 26 910 146 q 450 -103 656 -103 q 227 -31 312 -103 q 217 -23 224 -29 q 122 60 188 -4 q 46 265 46 135 q 174 574 46 450 q 356 679 252 649 l 342 686 l 250 765 m 721 758 l 745 771 q 629 1006 659 960 q 553 1042 606 1042 q 460 1002 496 1042 q 275 770 410 947 l 296 758 l 535 931 l 721 758 m 605 483 q 564 205 605 334 q 392 23 507 23 q 279 187 279 23 q 319 464 279 337 q 494 646 377 646 q 605 483 605 646 m 588 483 q 581 555 588 526 l 574 555 q 411 391 467 555 q 368 106 368 263 q 374 41 368 69 q 392 40 382 40 q 541 191 488 40 q 588 483 588 323 z "},"õ":{"ha":875,"x_min":46,"x_max":913,"o":"m 910 325 q 788 26 910 146 q 450 -103 656 -103 q 227 -31 312 -103 q 217 -23 224 -29 q 123 60 190 -5 q 46 265 46 135 q 180 582 46 460 q 507 699 309 699 q 774 597 686 699 q 855 501 822 543 q 910 325 910 433 m 822 406 q 730 616 822 543 q 507 682 647 682 q 192 570 316 682 q 62 265 62 454 q 151 57 62 132 q 370 -14 234 -14 q 703 113 573 -14 q 822 406 822 231 m 605 483 q 564 205 605 334 q 392 23 507 23 q 280 187 280 23 q 319 464 280 338 q 494 646 376 646 q 605 483 605 646 m 588 483 q 581 555 588 526 l 574 555 q 411 391 466 555 q 368 106 368 262 q 374 41 368 69 q 392 40 382 40 q 541 191 488 40 q 588 483 588 323 m 913 925 q 760 741 859 801 q 686 721 726 721 q 555 760 626 721 q 451 796 490 796 q 390 760 418 796 q 347 696 382 749 l 299 716 l 208 793 q 300 932 248 875 q 440 1008 370 1008 q 623 944 493 1008 q 669 935 642 935 q 733 955 716 935 q 778 1033 739 962 l 844 1012 l 913 925 m 821 1001 l 786 1013 q 746 944 752 951 q 669 918 725 918 q 562 956 639 918 q 440 991 490 991 q 315 924 379 991 q 231 802 267 873 l 264 788 q 307 851 299 842 q 371 886 338 886 q 482 849 404 886 q 606 811 561 811 q 676 830 644 811 q 821 1001 770 886 z "},"ö":{"ha":875,"x_min":46,"x_max":910,"o":"m 910 325 q 788 26 910 146 q 450 -103 656 -103 q 227 -31 312 -103 q 217 -23 224 -29 q 122 60 188 -4 q 46 265 46 135 q 180 582 46 460 q 507 699 309 699 q 774 597 686 699 q 855 501 822 543 q 910 325 910 433 m 822 406 q 730 616 822 543 q 507 682 647 682 q 192 570 316 682 q 62 265 62 454 q 151 57 62 132 q 370 -14 234 -14 q 703 113 573 -14 q 822 406 822 231 m 605 483 q 564 205 605 334 q 392 23 507 23 q 279 187 279 23 q 319 464 279 337 q 494 646 377 646 q 605 483 605 646 m 588 483 q 581 555 588 526 l 574 555 q 411 391 466 555 q 368 106 368 262 q 374 41 368 69 q 392 40 382 40 q 541 191 488 40 q 588 483 588 323 m 548 844 q 514 761 548 795 q 432 726 480 726 q 351 759 389 726 l 279 823 q 237 916 237 859 q 273 1005 237 968 q 361 1042 309 1042 q 455 996 418 1042 q 519 920 485 960 q 548 844 548 886 m 470 916 q 438 994 470 961 q 361 1026 406 1026 q 284 994 315 1026 q 252 916 252 962 q 284 838 252 869 q 361 806 315 806 q 438 838 406 806 q 470 916 470 870 m 880 844 q 846 761 880 795 q 764 726 812 726 q 684 759 721 726 l 611 823 q 570 916 570 859 q 606 1005 570 968 q 694 1042 642 1042 q 787 996 750 1042 q 852 920 817 960 q 880 844 880 886 m 802 916 q 770 994 802 961 q 694 1026 739 1026 q 616 994 648 1026 q 585 916 585 962 q 616 838 585 869 q 694 806 648 806 q 770 838 739 806 q 802 916 802 870 z "},"÷":{"ha":968,"x_min":126,"x_max":953,"o":"m 692 585 q 661 505 692 538 q 584 472 630 472 q 503 507 549 472 q 435 567 496 511 l 425 576 q 387 666 387 610 q 421 752 387 716 q 504 787 454 787 q 590 748 557 787 l 664 661 q 692 585 692 627 m 953 253 l 214 253 l 126 326 l 126 454 l 881 454 l 953 363 l 953 253 m 691 31 q 661 -48 691 -15 q 584 -81 630 -81 q 498 -43 547 -81 q 425 22 492 -39 q 387 113 387 57 q 421 199 387 163 q 504 235 454 235 q 589 195 555 235 l 663 107 q 691 31 691 74 m 604 666 q 575 740 604 709 q 504 770 547 770 q 433 740 461 770 q 404 666 404 709 q 433 592 404 623 q 504 562 461 562 q 575 592 547 562 q 604 666 604 623 m 865 343 l 865 437 l 142 437 l 142 343 l 865 343 m 604 113 q 575 186 604 155 q 504 218 547 218 q 433 187 461 218 q 404 113 404 156 q 433 39 404 69 q 504 9 461 9 q 575 39 547 9 q 604 113 604 70 z "},"ø":{"ha":875,"x_min":5,"x_max":937,"o":"m 937 622 l 834 520 q 910 325 910 443 q 787 26 910 146 q 450 -103 656 -103 q 256 -50 339 -103 l 141 -163 l 62 -94 l 5 -41 l 118 71 q 45 265 45 151 q 180 582 45 460 q 507 699 309 699 q 705 650 623 699 l 814 756 l 869 703 l 937 622 m 846 703 l 814 733 l 708 629 q 507 682 623 682 q 192 570 316 682 q 62 265 62 454 q 142 71 62 153 l 29 -41 l 61 -71 l 176 43 q 370 -14 262 -14 q 702 113 572 -14 q 822 406 822 231 q 743 602 822 521 l 846 703 m 604 526 l 276 201 l 277 222 q 402 610 286 515 q 494 646 446 646 q 604 526 587 646 m 608 471 l 607 450 q 561 187 602 301 q 391 23 502 23 q 279 145 294 23 l 608 471 m 587 532 q 582 555 585 543 l 574 555 q 488 522 528 555 q 391 339 422 469 l 587 532 m 563 254 l 368 60 q 372 41 368 57 q 391 40 381 40 q 563 254 509 40 z "},"ù":{"ha":943,"x_min":61,"x_max":973,"o":"m 639 774 q 516 975 593 850 q 408 1042 475 1042 q 361 1022 381 1042 q 340 976 340 1002 q 382 908 340 937 q 618 757 498 829 l 639 774 m 973 22 l 959 -39 q 796 -94 882 -94 q 668 -54 713 -94 l 597 7 q 340 -101 471 -101 q 231 -64 273 -101 q 142 14 206 -43 q 98 122 98 54 q 124 279 98 178 q 154 384 139 332 q 175 490 171 446 q 153 484 168 490 l 61 551 l 81 632 q 243 689 145 689 q 386 631 337 689 l 458 545 q 488 458 488 510 q 475 353 488 404 l 427 173 q 413 104 416 134 q 543 183 470 113 l 654 677 l 676 678 q 458 820 579 738 q 439 835 452 824 l 357 907 q 323 976 323 937 q 349 1034 323 1009 q 408 1059 374 1059 q 512 1009 470 1059 l 588 920 q 603 898 594 912 q 730 691 614 879 l 715 680 l 876 687 l 960 587 l 866 170 q 850 99 861 150 q 906 118 878 99 l 973 22 m 882 89 q 812 75 851 77 q 770 100 784 74 q 760 151 759 122 q 778 254 762 181 l 871 667 l 869 669 l 667 661 l 558 175 q 397 86 467 86 q 323 163 323 86 q 353 315 323 207 q 384 426 368 370 q 400 540 400 489 q 353 640 400 604 q 243 672 310 672 q 164 656 211 672 q 94 620 117 640 l 85 578 q 138 595 113 595 q 196 517 196 595 q 129 224 196 481 q 115 122 115 169 q 157 23 115 59 q 260 -12 197 -12 q 536 117 399 -12 l 551 117 q 716 -4 576 -4 q 798 13 748 -4 q 872 48 847 29 l 882 89 z "},"ú":{"ha":943,"x_min":61,"x_max":973,"o":"m 821 909 q 686 768 821 849 q 501 665 677 763 l 382 771 l 532 984 q 659 1059 585 1059 q 736 1026 708 1059 q 810 939 751 1008 q 821 909 821 926 m 733 990 q 706 1029 733 1014 q 659 1042 683 1042 q 546 975 593 1042 q 405 774 433 811 l 422 757 l 680 910 q 733 990 733 941 m 973 22 l 959 -39 q 796 -94 882 -94 q 668 -54 713 -94 l 597 7 q 340 -101 471 -101 q 231 -64 274 -101 q 142 14 206 -43 q 98 122 98 54 q 124 279 98 178 q 154 384 139 332 q 175 490 171 446 q 153 484 168 490 l 61 551 l 81 632 q 243 689 145 689 q 386 631 337 689 l 458 545 q 488 458 488 510 q 475 353 488 404 l 427 173 q 413 104 416 134 q 543 183 470 113 l 654 677 l 876 687 l 960 587 l 866 170 q 850 99 861 150 q 906 118 878 99 l 973 22 m 882 89 q 812 75 851 77 q 770 100 784 74 q 760 151 759 122 q 778 254 762 181 l 871 667 l 869 669 l 667 661 l 558 175 q 397 86 467 86 q 323 163 323 86 q 353 315 323 207 q 384 426 368 370 q 400 540 400 489 q 353 640 400 604 q 243 672 310 672 q 164 656 211 672 q 94 620 117 640 l 85 578 q 138 595 113 595 q 196 517 196 595 q 129 224 196 481 q 115 122 115 169 q 157 23 115 59 q 260 -12 197 -12 q 536 117 399 -12 l 551 117 q 716 -4 576 -4 q 798 13 748 -4 q 872 48 847 29 l 882 89 z "},"û":{"ha":943,"x_min":61,"x_max":973,"o":"m 730 758 l 753 771 q 637 1006 668 960 q 562 1042 614 1042 q 469 1002 505 1042 q 284 770 419 947 l 305 758 l 544 931 l 730 758 m 973 22 l 959 -39 q 796 -94 882 -94 q 668 -54 713 -94 l 597 7 q 340 -101 471 -101 q 231 -64 273 -101 q 142 14 206 -43 q 98 122 98 54 q 124 279 98 178 q 154 384 139 332 q 175 490 171 446 q 153 484 168 490 l 61 551 l 81 632 q 243 689 145 689 q 386 631 337 689 l 458 545 q 488 458 488 510 q 475 353 488 404 l 427 173 q 413 104 416 134 q 543 183 470 113 l 654 677 l 790 683 l 727 738 l 621 837 l 385 667 l 351 686 l 259 765 q 457 1015 344 880 q 562 1059 494 1059 q 645 1025 616 1059 l 718 939 q 848 686 754 895 l 876 687 l 960 587 l 866 170 q 850 99 861 150 q 906 118 878 99 l 973 22 m 882 89 q 812 75 851 77 q 770 100 784 74 q 760 151 759 122 q 778 254 762 181 l 871 667 l 869 669 l 667 661 l 558 175 q 397 86 467 86 q 323 163 323 86 q 353 315 323 207 q 384 426 368 370 q 400 540 400 489 q 353 640 400 604 q 243 672 310 672 q 164 656 211 672 q 94 620 117 640 l 85 578 q 138 595 113 595 q 196 517 196 595 q 129 224 196 481 q 115 122 115 169 q 157 23 115 59 q 260 -12 197 -12 q 536 117 399 -12 l 551 117 q 716 -4 576 -4 q 798 13 748 -4 q 872 48 847 29 l 882 89 z "},"ü":{"ha":943,"x_min":61,"x_max":973,"o":"m 558 844 q 524 761 558 795 q 442 726 490 726 q 361 759 399 726 l 289 823 q 248 916 248 859 q 283 1005 248 968 q 371 1042 319 1042 q 465 996 428 1042 q 530 920 495 960 q 558 844 558 886 m 480 916 q 448 994 480 961 q 371 1026 416 1026 q 294 994 326 1026 q 262 916 262 961 q 294 838 262 870 q 371 806 326 806 q 448 838 416 806 q 480 916 480 870 m 890 844 q 857 761 890 795 q 774 726 823 726 q 694 759 731 726 l 621 823 q 580 916 580 859 q 616 1005 580 968 q 703 1042 652 1042 q 798 996 760 1042 q 862 920 827 960 q 890 844 890 886 m 812 916 q 781 994 812 961 q 703 1026 749 1026 q 626 994 658 1026 q 594 916 594 961 q 626 838 594 870 q 703 806 658 806 q 781 838 749 806 q 812 916 812 870 m 973 22 l 959 -39 q 796 -94 882 -94 q 668 -54 713 -94 l 597 7 q 340 -101 471 -101 q 231 -64 274 -101 q 142 14 206 -43 q 98 122 98 54 q 124 279 98 178 q 154 384 139 332 q 175 490 171 446 q 153 484 168 490 l 61 551 l 81 632 q 243 689 145 689 q 386 631 337 689 l 458 545 q 488 458 488 510 q 475 353 488 404 l 427 173 q 413 104 416 134 q 543 183 470 113 l 654 677 l 876 687 l 960 587 l 866 170 q 850 99 861 150 q 906 118 878 99 l 973 22 m 882 89 q 812 75 851 77 q 770 100 784 74 q 760 151 759 122 q 778 254 762 181 l 871 667 l 869 669 l 667 661 l 558 175 q 397 86 467 86 q 323 163 323 86 q 353 315 323 207 q 384 426 368 370 q 400 540 400 489 q 353 640 400 604 q 243 672 310 672 q 164 656 211 672 q 94 620 117 640 l 85 578 q 138 595 113 595 q 196 517 196 595 q 129 224 196 481 q 115 122 115 169 q 157 23 115 59 q 260 -12 197 -12 q 536 117 399 -12 l 551 117 q 716 -4 576 -4 q 798 13 748 -4 q 872 48 847 29 l 882 89 z "},"ý":{"ha":921,"x_min":60,"x_max":957,"o":"m 816 909 q 681 768 816 849 q 496 665 681 768 l 378 771 l 528 984 q 653 1059 580 1059 q 731 1026 703 1059 q 805 939 746 1008 q 816 909 816 926 m 728 990 q 701 1029 728 1014 q 653 1042 679 1042 q 541 975 588 1042 q 400 774 439 827 l 418 757 l 675 910 q 728 990 728 942 m 195 -227 l 216 -162 q 447 -62 373 -128 q 341 -97 405 -97 q 231 -60 275 -97 q 144 17 222 -52 q 97 127 97 58 q 111 233 97 184 q 162 418 123 275 q 176 488 174 461 q 167 488 172 488 q 152 484 157 488 l 60 551 l 80 632 q 243 689 152 689 q 387 631 340 689 q 460 543 405 609 q 488 458 488 510 q 475 353 488 400 l 426 177 q 412 109 416 142 q 549 186 477 116 l 650 677 l 871 687 l 886 670 l 957 586 l 841 35 q 671 -239 799 -166 q 293 -304 556 -304 q 286 -304 289 -304 l 195 -227 m 214 -215 q 587 -159 485 -215 q 753 118 709 -92 l 868 665 l 864 669 l 664 661 l 564 178 q 399 91 477 91 q 323 168 323 91 q 352 316 323 212 q 384 427 368 371 q 399 540 399 488 q 352 640 399 604 q 243 672 309 672 q 94 620 152 672 l 84 578 q 154 593 125 602 q 191 566 182 585 q 196 517 196 553 q 128 229 196 480 q 114 127 114 176 q 157 28 114 64 q 261 -7 197 -7 q 536 117 402 -7 l 553 117 q 418 -106 524 -33 q 233 -176 355 -149 l 227 -178 l 214 -215 z "},"þ":{"ha":889,"x_min":-123,"x_max":926,"o":"m 926 347 q 816 39 926 170 q 526 -99 699 -99 q 355 -51 415 -99 l 335 -143 q 334 -151 334 -146 q 387 -157 362 -156 l 457 -247 l 446 -294 l -33 -294 l -123 -222 l -109 -157 q -22 -144 -77 -155 q 24 -84 13 -133 l 210 777 q 215 809 214 796 q 187 812 203 811 l 97 886 l 113 952 l 473 970 l 549 880 l 556 869 l 519 680 q 614 697 565 697 q 796 623 733 697 l 870 535 q 926 347 926 469 m 838 429 q 614 680 838 680 q 411 591 505 680 l 392 591 l 465 953 l 126 936 l 118 901 q 196 883 174 895 q 232 814 232 863 q 227 773 232 798 l 40 -88 q -10 -157 29 -138 q -96 -174 -33 -168 l -102 -205 l 360 -205 l 367 -173 q 241 -97 241 -163 q 248 -60 241 -87 l 271 45 q 446 -9 338 -9 q 730 126 616 -9 q 838 429 838 254 m 616 431 q 571 187 616 306 q 406 32 511 32 q 323 64 353 32 q 294 149 294 96 l 294 149 l 377 525 q 504 594 433 594 q 616 431 616 594 m 600 431 q 593 503 600 474 l 583 504 q 465 439 517 504 l 382 67 q 383 50 382 58 q 406 49 391 49 q 557 200 503 49 q 600 431 600 315 z "},"ÿ":{"ha":921,"x_min":60,"x_max":957,"o":"m 557 844 q 524 761 557 795 q 441 726 490 726 q 361 759 399 726 l 288 823 q 247 916 247 859 q 283 1005 247 968 q 371 1042 319 1042 q 465 996 427 1042 q 530 920 476 983 q 557 844 557 887 m 479 916 q 448 994 479 961 q 371 1026 416 1026 q 294 994 326 1026 q 262 916 262 961 q 293 838 262 869 q 371 806 325 806 q 448 838 416 806 q 479 916 479 870 m 890 844 q 856 761 890 795 q 774 726 822 726 q 694 759 731 726 l 621 823 q 579 916 579 859 q 615 1005 579 968 q 703 1042 652 1042 q 797 996 760 1042 q 862 920 808 983 q 890 844 890 887 m 812 916 q 780 994 812 961 q 703 1026 748 1026 q 626 994 658 1026 q 594 916 594 961 q 626 838 594 869 q 703 806 657 806 q 780 838 748 806 q 812 916 812 870 m 195 -227 l 216 -162 q 447 -62 373 -128 q 341 -97 405 -97 q 231 -60 275 -97 q 144 17 222 -52 q 97 127 97 58 q 111 233 97 184 q 162 418 123 275 q 176 488 174 461 q 167 488 172 488 q 152 484 157 488 l 60 551 l 80 632 q 243 689 152 689 q 387 631 340 689 q 460 543 405 609 q 488 458 488 510 q 475 353 488 400 l 426 177 q 412 109 416 142 q 549 186 477 116 l 650 677 l 871 687 l 886 670 l 957 586 l 841 35 q 671 -239 799 -166 q 293 -304 556 -304 q 286 -304 289 -304 l 195 -227 m 214 -215 q 587 -159 485 -215 q 753 118 709 -92 l 868 665 l 864 669 l 664 661 l 564 178 q 399 91 477 91 q 323 168 323 91 q 352 316 323 212 q 384 427 368 371 q 399 540 399 488 q 352 640 399 604 q 243 672 309 672 q 94 620 152 672 l 84 578 q 154 593 125 602 q 191 566 182 585 q 196 517 196 553 q 128 229 196 480 q 114 127 114 176 q 157 28 114 64 q 261 -7 197 -7 q 536 117 402 -7 l 553 117 q 418 -106 524 -33 q 233 -176 355 -149 l 227 -178 l 214 -215 z "},"Ā":{"ha":1032,"x_min":0,"x_max":0,"o":""},"ā":{"ha":899,"x_min":0,"x_max":0,"o":""},"Ă":{"ha":1032,"x_min":0,"x_max":0,"o":""},"ă":{"ha":899,"x_min":0,"x_max":0,"o":""},"Ą":{"ha":1032,"x_min":0,"x_max":0,"o":""},"ą":{"ha":899,"x_min":0,"x_max":0,"o":""},"Ć":{"ha":974,"x_min":0,"x_max":0,"o":""},"ć":{"ha":729,"x_min":0,"x_max":0,"o":""},"Ĉ":{"ha":974,"x_min":0,"x_max":0,"o":""},"ĉ":{"ha":729,"x_min":0,"x_max":0,"o":""},"Č":{"ha":974,"x_min":0,"x_max":0,"o":""},"č":{"ha":729,"x_min":0,"x_max":0,"o":""},"Ď":{"ha":1135,"x_min":0,"x_max":0,"o":""},"ď":{"ha":1124,"x_min":0,"x_max":0,"o":""},"Ē":{"ha":981,"x_min":0,"x_max":0,"o":""},"ē":{"ha":758,"x_min":0,"x_max":0,"o":""},"Ĕ":{"ha":981,"x_min":0,"x_max":0,"o":""},"ĕ":{"ha":758,"x_min":0,"x_max":0,"o":""},"Ę":{"ha":981,"x_min":0,"x_max":0,"o":""},"ę":{"ha":758,"x_min":0,"x_max":0,"o":""},"Ě":{"ha":981,"x_min":0,"x_max":0,"o":""},"ě":{"ha":758,"x_min":0,"x_max":0,"o":""},"Ĝ":{"ha":1099,"x_min":0,"x_max":0,"o":""},"ĝ":{"ha":884,"x_min":0,"x_max":0,"o":""},"Ğ":{"ha":1099,"x_min":0,"x_max":0,"o":""},"ğ":{"ha":884,"x_min":0,"x_max":0,"o":""},"Ĥ":{"ha":1243,"x_min":0,"x_max":0,"o":""},"ĥ":{"ha":919,"x_min":0,"x_max":0,"o":""},"Ħ":{"ha":1243,"x_min":0,"x_max":0,"o":""},"ħ":{"ha":919,"x_min":0,"x_max":0,"o":""},"Ĩ":{"ha":614,"x_min":0,"x_max":0,"o":""},"ĩ":{"ha":498,"x_min":0,"x_max":0,"o":""},"Ī":{"ha":614,"x_min":0,"x_max":0,"o":""},"ī":{"ha":498,"x_min":0,"x_max":0,"o":""},"Ĭ":{"ha":614,"x_min":0,"x_max":0,"o":""},"ĭ":{"ha":498,"x_min":0,"x_max":0,"o":""},"Į":{"ha":614,"x_min":0,"x_max":0,"o":""},"į":{"ha":498,"x_min":0,"x_max":0,"o":""},"ı":{"ha":504,"x_min":19,"x_max":559,"o":"m 559 16 l 545 -45 q 349 -100 410 -100 q 222 -58 269 -100 q 136 17 199 -38 q 92 122 92 56 q 119 281 92 184 q 161 427 134 330 q 177 510 174 471 q 111 492 150 507 l 19 559 l 39 640 q 241 697 174 697 q 378 648 330 697 q 458 553 397 627 q 486 467 486 518 q 472 361 486 413 l 418 164 q 402 87 406 120 q 492 112 444 89 l 559 16 m 468 83 q 398 69 433 69 q 313 145 313 69 q 347 313 313 191 q 380 429 363 371 q 398 548 398 496 q 351 649 398 614 q 241 680 309 680 q 53 628 178 680 l 43 587 q 113 602 85 602 q 176 585 157 602 q 195 525 195 568 q 161 357 195 479 q 127 241 144 299 q 109 122 109 174 q 158 21 109 57 q 269 -10 201 -10 q 458 42 328 -10 l 468 83 z "},"Ĳ":{"ha":1356,"x_min":0,"x_max":0,"o":""},"ĳ":{"ha":928,"x_min":0,"x_max":0,"o":""},"Ĵ":{"ha":810,"x_min":0,"x_max":0,"o":""},"ĵ":{"ha":496,"x_min":0,"x_max":0,"o":""},"ĸ":{"ha":892,"x_min":0,"x_max":0,"o":""},"Ĺ":{"ha":933,"x_min":0,"x_max":0,"o":""},"ĺ":{"ha":482,"x_min":0,"x_max":0,"o":""},"Ľ":{"ha":933,"x_min":0,"x_max":0,"o":""},"ľ":{"ha":696,"x_min":0,"x_max":0,"o":""},"Ŀ":{"ha":933,"x_min":0,"x_max":0,"o":""},"ŀ":{"ha":744,"x_min":0,"x_max":0,"o":""},"Ł":{"ha":943,"x_min":-37,"x_max":1010,"o":"m 259 831 l 169 906 l 184 971 l 720 971 l 789 881 l 777 831 q 677 817 705 827 q 614 745 625 798 l 589 634 l 671 665 l 745 573 l 768 513 l 542 427 l 470 106 q 463 68 467 92 q 524 67 484 67 q 703 103 659 67 q 877 317 788 174 l 941 317 l 1010 227 l 922 -81 l 53 -81 l -37 -9 l -22 58 q 72 70 44 60 q 133 134 122 86 l 168 289 l 163 286 l 78 357 l 50 432 l 215 494 l 286 807 q 290 827 288 821 q 259 831 285 828 m 836 9 l 919 300 l 886 300 q 713 90 800 161 q 524 50 665 50 q 429 54 446 50 q 372 120 372 67 q 382 189 372 144 l 455 515 l 677 600 l 661 644 l 467 569 l 526 829 q 590 904 540 888 q 691 921 630 917 l 699 954 l 197 954 l 189 920 q 308 843 308 901 q 302 803 308 829 l 229 482 l 72 422 l 87 378 l 217 428 l 149 130 q 88 58 137 78 q -9 41 57 45 l -16 9 l 836 9 z "},"ł":{"ha":489,"x_min":25,"x_max":590,"o":"m 590 463 l 459 414 l 403 164 q 388 87 393 118 q 487 112 432 87 l 555 16 l 540 -45 q 337 -100 405 -100 q 210 -59 258 -100 q 124 16 194 -46 q 77 122 77 58 q 110 315 77 180 l 43 369 l 25 453 l 153 499 l 235 865 q 240 897 239 884 q 212 901 231 898 l 122 975 l 138 1040 l 499 1059 l 574 968 l 582 958 l 505 617 l 576 530 l 590 463 m 501 549 l 490 600 l 385 560 l 493 1037 l 490 1041 l 151 1024 l 143 989 q 221 971 199 983 q 257 902 257 951 q 252 861 257 886 l 168 486 l 44 442 l 55 392 l 155 429 q 94 122 94 164 q 145 21 94 57 q 258 -10 190 -10 q 453 42 323 -10 l 463 83 q 389 69 426 69 q 298 145 298 69 q 315 248 298 169 l 372 502 l 501 549 z "},"Ń":{"ha":1129,"x_min":0,"x_max":0,"o":""},"ń":{"ha":939,"x_min":0,"x_max":0,"o":""},"Ň":{"ha":1129,"x_min":0,"x_max":0,"o":""},"ň":{"ha":939,"x_min":0,"x_max":0,"o":""},"ŉ":{"ha":1133,"x_min":0,"x_max":0,"o":""},"Ŋ":{"ha":1129,"x_min":0,"x_max":0,"o":""},"ŋ":{"ha":922,"x_min":0,"x_max":0,"o":""},"Ō":{"ha":1116,"x_min":0,"x_max":0,"o":""},"ō":{"ha":865,"x_min":0,"x_max":0,"o":""},"Ŏ":{"ha":1116,"x_min":0,"x_max":0,"o":""},"ŏ":{"ha":865,"x_min":0,"x_max":0,"o":""},"Œ":{"ha":1522,"x_min":66,"x_max":1630,"o":"m 178 104 q 66 368 66 203 q 273 821 66 653 q 736 971 459 971 l 1561 971 l 1630 881 l 1575 635 l 1525 635 l 1437 709 q 1402 818 1429 767 q 1293 823 1373 823 l 1168 823 l 1103 537 q 1292 705 1232 545 l 1358 705 l 1428 614 l 1337 213 l 1286 213 l 1198 286 q 1199 313 1199 304 q 1191 387 1199 349 q 1154 389 1179 389 l 1070 389 l 1006 106 q 999 68 1002 85 q 1045 67 1031 67 q 1243 103 1199 67 q 1414 309 1339 181 l 1478 309 l 1547 218 l 1461 -81 l 599 -81 q 307 -3 427 -81 q 267 26 297 3 q 178 104 246 43 m 810 823 q 509 637 621 823 q 415 257 415 480 q 446 100 415 165 q 572 67 498 67 q 654 68 622 67 l 825 823 l 810 823 m 1489 726 l 1540 954 l 736 954 q 283 807 465 954 q 83 368 83 645 q 220 93 83 190 q 519 9 338 9 l 1375 9 l 1456 292 l 1423 292 q 1254 90 1346 165 q 1045 50 1206 50 q 959 56 979 50 q 908 117 908 69 q 919 189 908 141 l 984 479 l 1074 479 q 1192 431 1159 479 q 1215 313 1215 397 l 1215 303 l 1251 303 l 1338 688 l 1303 688 q 1087 520 1239 520 l 993 520 l 1082 913 l 1213 913 q 1327 906 1297 913 q 1412 834 1376 894 q 1452 726 1442 785 l 1489 726 m 791 913 q 861 910 817 913 l 668 52 q 572 50 627 50 q 384 135 448 50 q 327 338 327 210 q 422 724 327 564 q 731 913 536 913 l 791 913 z "},"œ":{"ha":1283,"x_min":50,"x_max":1334,"o":"m 1334 452 q 1134 246 1334 302 q 883 197 1002 210 q 899 98 886 138 q 951 90 922 90 q 1187 222 1089 90 l 1249 170 l 1317 87 q 1166 -52 1257 -1 q 968 -104 1072 -104 q 731 -16 821 -104 q 454 -103 604 -103 q 231 -31 316 -103 q 142 46 170 20 q 50 265 50 134 q 184 582 50 460 q 511 699 313 699 q 752 615 658 699 q 1010 697 872 697 q 1230 630 1173 697 l 1305 540 q 1334 452 1334 506 m 1246 534 q 1010 680 1246 680 q 751 593 874 680 q 511 682 655 682 q 196 570 320 682 q 66 265 66 454 q 155 56 66 132 q 374 -14 238 -14 q 652 77 521 -14 q 888 -14 744 -14 q 1078 35 988 -14 q 1226 167 1166 83 l 1190 197 q 951 73 1093 73 q 826 140 863 73 q 795 286 800 187 q 1052 336 921 299 q 1246 534 1246 390 m 1046 515 q 965 365 1046 409 q 796 324 918 339 q 839 515 808 431 q 960 643 886 643 q 1046 515 1046 643 m 609 483 q 568 205 609 335 q 396 23 511 23 q 284 187 284 23 q 328 475 284 350 q 498 646 387 646 q 609 483 609 646 m 1029 515 q 1027 551 1029 533 q 927 430 969 541 q 905 359 915 398 q 1029 515 1029 393 m 592 483 q 585 555 592 525 l 578 555 q 415 391 472 555 q 372 106 372 269 q 378 41 372 69 q 396 40 387 40 q 546 191 492 40 q 592 483 592 321 z "},"Ŕ":{"ha":1085,"x_min":0,"x_max":0,"o":""},"ŕ":{"ha":726,"x_min":0,"x_max":0,"o":""},"Ř":{"ha":1085,"x_min":0,"x_max":0,"o":""},"ř":{"ha":726,"x_min":0,"x_max":0,"o":""},"Ś":{"ha":888,"x_min":0,"x_max":0,"o":""},"ś":{"ha":704,"x_min":0,"x_max":0,"o":""},"Ŝ":{"ha":888,"x_min":0,"x_max":0,"o":""},"ŝ":{"ha":704,"x_min":0,"x_max":0,"o":""},"Ş":{"ha":888,"x_min":0,"x_max":0,"o":""},"ş":{"ha":704,"x_min":0,"x_max":0,"o":""},"Š":{"ha":893,"x_min":-28,"x_max":1002,"o":"m 813 932 l 861 971 l 932 971 l 1002 881 l 932 553 l 875 553 l 788 626 q 724 821 769 753 q 636 839 685 839 q 505 797 559 839 q 446 677 446 751 q 451 642 446 660 q 505 617 476 628 q 678 551 550 600 q 798 469 754 520 q 871 382 821 442 q 921 240 921 322 q 774 -23 921 73 q 471 -107 647 -107 q 174 -34 304 -107 l 117 -81 l 61 -81 l -28 -8 l 45 357 l 116 357 l 189 267 q 246 103 203 175 q 395 52 311 52 q 535 90 479 52 q 599 216 599 135 q 585 273 599 247 q 547 288 570 279 l 458 321 q 374 354 393 346 q 298 401 327 376 q 210 480 279 418 q 176 519 195 493 q 130 661 130 579 q 253 902 130 807 q 515 996 363 987 l 479 1027 q 467 1044 473 1034 l 332 1249 l 366 1278 l 572 1142 l 829 1277 l 861 1247 l 929 1166 q 734 970 839 1076 q 813 932 764 960 m 99 55 q 392 -18 244 -18 q 688 64 563 -18 q 833 321 833 159 q 672 534 833 469 q 499 601 625 554 q 358 758 358 654 q 419 884 358 836 q 556 929 476 929 q 802 643 757 929 l 846 643 l 911 954 l 867 954 l 814 911 q 549 980 698 980 q 278 899 395 980 q 147 661 147 809 q 298 444 147 509 q 496 368 397 406 q 615 216 615 309 q 546 77 615 126 q 395 35 486 35 q 194 130 275 35 q 102 340 123 213 l 58 340 l -9 9 l 35 9 l 94 58 l 99 55 m 648 1057 l 837 1247 l 827 1257 l 572 1123 l 367 1256 l 355 1246 l 479 1053 q 555 1019 502 1019 q 648 1057 610 1019 z "},"š":{"ha":712,"x_min":7,"x_max":787,"o":"m 787 950 l 677 806 q 604 719 635 751 q 566 684 582 694 q 668 629 636 667 l 743 541 q 765 473 765 514 q 736 407 765 432 q 665 382 707 382 q 578 419 627 382 q 505 486 574 422 q 464 545 482 506 q 435 526 450 539 q 396 447 396 494 l 396 442 q 461 418 411 435 q 605 330 558 384 q 679 242 607 327 q 720 130 720 193 q 605 -56 720 5 q 377 -104 515 -104 q 151 -54 225 -104 q 131 -38 143 -49 l 42 41 q 7 120 7 72 q 40 197 7 167 q 121 227 73 227 q 220 178 171 227 q 295 89 224 175 q 323 40 305 76 q 420 151 420 56 q 419 163 420 155 q 357 186 397 172 q 241 252 285 212 q 159 324 215 274 q 96 467 96 382 q 206 644 96 581 q 420 697 296 694 l 340 768 q 328 783 333 774 q 203 1035 298 831 l 252 1061 l 435 890 l 673 1061 l 720 1034 l 787 950 m 694 1029 l 673 1041 l 433 868 l 250 1041 l 226 1028 q 341 793 313 836 q 416 758 363 758 q 481 773 457 758 q 533 821 501 785 q 590 893 546 836 l 694 1029 m 677 554 q 437 680 677 680 q 225 635 313 680 q 112 467 112 578 q 281 276 112 334 q 391 230 365 247 q 437 151 437 200 q 277 20 437 20 l 270 20 q 224 143 247 104 q 121 210 184 210 q 52 185 80 210 q 24 120 24 160 q 130 9 24 44 q 297 -14 203 -14 q 517 31 430 -14 q 632 212 632 89 q 456 401 632 339 q 345 450 368 433 q 308 528 308 476 q 351 616 308 581 q 446 650 391 646 q 488 533 471 563 q 585 472 524 472 q 650 494 623 472 q 677 554 677 517 z "},"Ť":{"ha":931,"x_min":0,"x_max":0,"o":""},"ť":{"ha":568,"x_min":0,"x_max":0,"o":""},"Ŧ":{"ha":931,"x_min":0,"x_max":0,"o":""},"ŧ":{"ha":568,"x_min":0,"x_max":0,"o":""},"Ũ":{"ha":1135,"x_min":0,"x_max":0,"o":""},"ũ":{"ha":932,"x_min":0,"x_max":0,"o":""},"Ū":{"ha":1135,"x_min":0,"x_max":0,"o":""},"ū":{"ha":932,"x_min":0,"x_max":0,"o":""},"Ŭ":{"ha":1135,"x_min":0,"x_max":0,"o":""},"ŭ":{"ha":932,"x_min":0,"x_max":0,"o":""},"Ů":{"ha":1135,"x_min":0,"x_max":0,"o":""},"ů":{"ha":932,"x_min":0,"x_max":0,"o":""},"Ų":{"ha":1135,"x_min":0,"x_max":0,"o":""},"ų":{"ha":932,"x_min":0,"x_max":0,"o":""},"Ŵ":{"ha":1533,"x_min":0,"x_max":0,"o":""},"ŵ":{"ha":1271,"x_min":0,"x_max":0,"o":""},"Ŷ":{"ha":996,"x_min":0,"x_max":0,"o":""},"ŷ":{"ha":911,"x_min":0,"x_max":0,"o":""},"Ÿ":{"ha":1010,"x_min":86,"x_max":1270,"o":"m 1172 920 l 1179 954 l 838 954 l 830 920 q 937 869 937 912 q 775 649 937 841 l 612 454 q 479 873 479 826 q 617 921 479 916 l 625 954 l 115 954 l 107 920 q 258 795 214 911 q 375 465 305 669 q 402 369 402 386 q 391 308 402 355 l 352 135 q 288 57 338 77 q 186 41 264 47 l 179 9 l 688 9 l 695 42 q 570 120 570 56 q 576 159 570 132 q 602 272 591 227 q 635 387 621 359 q 705 484 651 420 q 834 644 769 564 q 1002 823 929 759 q 1172 920 1100 910 m 653 1146 q 622 1224 653 1191 q 547 1257 591 1257 q 470 1224 501 1257 q 439 1146 439 1192 q 470 1068 439 1101 q 547 1036 501 1036 q 622 1069 591 1036 q 653 1146 653 1101 m 1088 1074 q 1055 998 1088 1033 q 1014 971 1036 979 l 1200 971 l 1270 881 l 1259 831 q 1088 736 1187 823 q 920 557 1015 672 q 791 397 855 477 q 725 307 741 338 q 693 202 710 277 l 662 64 q 715 57 686 60 l 785 -32 l 774 -81 l 248 -81 l 158 -9 l 173 58 q 283 73 216 60 q 336 139 324 88 l 375 312 q 385 369 385 357 q 359 460 385 384 q 242 789 299 637 q 227 823 233 812 q 176 831 205 829 l 86 905 l 101 971 l 578 971 q 537 996 560 978 l 466 1053 q 425 1146 425 1086 q 460 1235 425 1198 q 547 1272 495 1272 q 639 1227 602 1272 q 702 1150 661 1200 q 730 1074 730 1117 q 696 998 730 1033 q 648 968 674 976 l 715 881 l 703 831 q 568 792 568 827 q 597 671 568 768 q 647 523 610 628 q 898 831 845 755 q 810 905 855 868 l 825 971 l 938 971 q 896 996 919 978 l 825 1053 q 784 1146 784 1086 q 819 1235 784 1198 q 905 1272 854 1272 q 998 1227 961 1272 q 1061 1150 1019 1200 q 1088 1074 1088 1117 m 1012 1146 q 981 1224 1012 1191 q 905 1257 950 1257 q 829 1224 860 1257 q 798 1146 798 1192 q 829 1068 798 1101 q 905 1036 860 1036 q 981 1069 950 1036 q 1012 1146 1012 1101 z "},"Ź":{"ha":939,"x_min":0,"x_max":0,"o":""},"ź":{"ha":704,"x_min":0,"x_max":0,"o":""},"Ž":{"ha":949,"x_min":-65,"x_max":1129,"o":"m 1060 971 l 1129 881 l 1120 840 l 414 68 l 477 68 q 693 111 649 68 q 876 334 780 194 l 941 334 l 1010 243 l 904 -81 l 25 -81 l -65 -9 l -52 45 l 659 823 l 630 822 q 482 803 526 819 q 274 587 421 780 l 220 587 l 129 661 l 230 971 l 591 971 q 526 1027 543 1013 q 513 1044 519 1034 q 379 1242 488 1078 l 412 1271 l 619 1142 l 876 1270 l 908 1240 l 976 1159 q 781 970 913 1100 l 1060 971 m 1039 954 l 242 954 l 152 677 l 190 677 q 399 892 337 869 q 550 912 451 912 l 763 912 l -37 37 l -44 9 l 818 9 l 918 317 l 884 317 q 704 98 792 183 q 477 51 654 51 l 233 51 l 1033 925 l 1039 954 m 695 1057 l 884 1240 l 873 1250 l 618 1123 l 414 1249 l 401 1239 l 526 1053 q 602 1019 549 1019 q 695 1057 655 1019 z "},"ž":{"ha":711,"x_min":-20,"x_max":808,"o":"m 693 1029 l 672 1041 l 432 868 l 248 1041 l 224 1028 q 340 793 312 836 q 415 758 361 758 q 480 773 456 758 q 532 821 500 785 q 589 893 546 838 l 693 1029 m 724 165 l 677 -81 l 70 -81 l -20 -9 l -6 60 l 383 526 q 340 514 366 524 q 236 372 287 494 l 189 372 l 99 445 l 143 677 l 446 677 q 427 690 433 684 l 338 768 q 326 783 333 773 q 202 1035 297 830 l 250 1061 l 433 890 l 671 1061 l 718 1034 l 785 950 l 675 806 q 617 734 644 764 q 554 677 581 693 l 739 677 l 808 587 l 798 538 l 402 65 q 455 69 434 66 q 520 122 494 77 q 593 255 555 182 l 654 255 l 724 165 m 711 624 l 718 661 l 157 661 l 119 462 l 151 462 q 237 596 197 570 q 387 621 275 621 l 483 621 l 9 52 l 0 9 l 591 9 l 635 238 l 603 238 q 534 114 574 181 q 484 61 511 73 q 413 50 465 52 q 352 47 377 47 q 230 49 296 47 l 711 624 z "},"ſ":{"ha":492,"x_min":0,"x_max":0,"o":""},"ƒ":{"ha":798,"x_min":18,"x_max":861,"o":"m 732 1076 q 693 916 717 1019 q 620 547 676 826 l 654 547 l 722 456 l 707 386 l 588 386 l 502 -19 q 391 -208 481 -118 q 231 -291 309 -290 l 108 -292 l 18 -219 l 32 -155 q 118 -142 91 -151 q 165 -81 155 -130 l 266 386 l 176 459 l 195 546 l 296 546 l 332 713 q 511 1165 402 1045 q 807 1274 609 1274 l 861 1188 l 845 1114 q 820 1116 831 1116 q 732 1076 764 1116 m 791 1261 q 523 1155 617 1263 q 347 709 414 1031 l 310 529 l 209 529 l 197 476 l 298 476 l 181 -85 q 131 -155 170 -136 q 45 -171 107 -165 l 38 -202 l 151 -203 q 315 -117 238 -205 q 418 91 393 -30 l 498 476 l 620 476 l 632 529 l 511 529 l 602 987 q 625 1065 613 1029 q 682 1179 653 1148 q 777 1204 711 1210 l 791 1261 z "},"Ǻ":{"ha":1032,"x_min":0,"x_max":0,"o":""},"ǻ":{"ha":899,"x_min":0,"x_max":0,"o":""},"Ǽ":{"ha":1463,"x_min":0,"x_max":0,"o":""},"ǽ":{"ha":1166,"x_min":0,"x_max":0,"o":""},"Ǿ":{"ha":1116,"x_min":0,"x_max":0,"o":""},"ǿ":{"ha":865,"x_min":0,"x_max":0,"o":""},"ˆ":{"ha":690,"x_min":166,"x_max":751,"o":"m 166 765 q 364 1015 251 880 q 469 1059 401 1059 q 552 1025 524 1059 l 625 939 q 631 930 629 933 q 751 686 661 885 l 715 667 l 634 738 l 528 837 l 292 667 l 258 686 l 166 765 m 637 758 l 661 771 q 545 1006 575 960 q 469 1042 522 1042 q 376 1002 412 1042 q 191 770 326 947 l 212 758 l 451 931 l 637 758 z "},"ˇ":{"ha":690,"x_min":166,"x_max":749,"o":"m 749 950 l 640 806 q 581 734 608 766 q 513 676 538 686 q 459 668 492 668 q 391 690 415 668 l 302 768 q 290 783 296 774 q 166 1035 261 831 l 214 1061 l 397 890 l 635 1061 l 682 1034 l 749 950 m 657 1029 l 636 1041 l 396 868 l 212 1041 l 188 1028 q 304 793 276 836 q 379 758 326 758 q 444 773 420 758 q 496 821 465 785 q 553 893 510 838 l 657 1029 z "},"ˉ":{"ha":690,"x_min":186,"x_max":796,"o":"m 796 880 l 774 764 l 276 764 l 186 838 l 212 970 l 726 970 l 796 880 m 706 954 l 226 954 l 207 854 l 687 854 l 706 954 z "},"˘":{"ha":690,"x_min":239,"x_max":767,"o":"m 442 896 q 566 943 518 896 q 637 1059 599 975 l 698 1045 l 767 958 q 501 688 686 688 q 391 725 433 688 l 303 801 q 239 1001 239 857 q 239 1020 239 1007 q 240 1039 240 1033 l 240 1046 l 305 1060 l 378 968 q 390 903 382 930 q 442 896 412 896 m 421 779 q 677 1033 597 779 l 647 1040 q 570 924 608 958 q 442 879 521 879 q 330 923 366 879 q 291 1040 302 959 l 257 1032 l 256 1019 q 256 1001 256 1006 q 421 779 256 779 z "},"˙":{"ha":690,"x_min":337,"x_max":648,"o":"m 620 910 q 648 833 648 876 q 616 753 648 786 q 537 720 585 720 q 461 749 495 720 l 374 827 q 337 915 337 859 q 372 1002 337 966 q 457 1038 406 1038 q 547 996 513 1038 l 620 910 m 560 915 q 531 990 560 959 q 457 1021 501 1021 q 384 990 413 1021 q 354 915 354 959 q 384 840 354 871 q 457 810 413 810 q 531 840 501 810 q 560 915 560 871 z "},"˚":{"ha":690,"x_min":223,"x_max":694,"o":"m 694 852 q 626 714 694 766 q 475 667 564 667 q 363 697 408 667 q 347 710 357 701 l 263 784 q 223 879 223 819 q 293 1022 223 968 q 449 1072 357 1072 q 592 1017 545 1072 q 668 928 612 995 q 694 852 694 897 m 606 933 q 555 1027 606 994 q 449 1055 513 1055 q 305 1010 365 1055 q 239 879 239 960 q 288 785 239 818 q 396 758 330 758 q 540 802 481 758 q 606 933 606 851 m 522 935 q 494 835 522 876 q 406 788 463 788 q 324 879 324 788 q 353 978 324 937 q 440 1024 385 1024 q 522 935 522 1024 m 506 933 q 413 805 418 922 q 485 848 460 808 q 506 933 506 883 z "},"˛":{"ha":688,"x_min":184,"x_max":540,"o":"m 540 -55 q 420 -234 432 -158 q 466 -241 436 -238 l 536 -330 l 526 -382 q 299 -332 356 -382 l 216 -259 q 184 -192 184 -232 q 401 35 184 -73 l 481 35 l 540 -55 m 446 -256 q 330 -172 330 -240 q 439 18 330 -91 l 405 18 q 201 -192 201 -84 q 439 -292 201 -291 l 446 -256 z "},"˜":{"ha":690,"x_min":125,"x_max":829,"o":"m 829 925 q 676 741 775 801 q 602 721 642 721 q 471 760 542 721 q 367 796 406 796 q 306 760 334 796 q 262 696 302 755 l 216 716 l 125 793 q 216 932 164 876 q 357 1008 286 1008 q 539 944 410 1008 q 586 935 558 935 q 649 955 633 935 q 694 1033 655 963 l 761 1012 l 829 925 m 738 1001 l 702 1013 q 662 944 668 951 q 586 918 641 918 q 478 956 555 918 q 357 991 406 991 q 232 924 296 991 q 147 802 182 872 l 180 788 q 224 851 216 842 q 288 886 254 886 q 398 849 320 886 q 523 811 477 811 q 592 830 560 811 q 738 1001 686 886 z "},"˝":{"ha":690,"x_min":126,"x_max":833,"o":"m 567 989 q 696 1059 621 1059 q 749 1036 728 1059 q 823 948 764 1018 q 833 920 833 936 q 688 779 833 877 q 505 661 688 779 l 423 730 l 394 766 l 237 661 l 155 730 l 126 766 l 299 989 q 428 1058 353 1058 q 481 1036 461 1058 q 545 960 494 1020 l 567 989 m 427 753 q 669 915 563 845 q 745 1002 745 965 q 729 1030 745 1019 q 696 1042 713 1042 q 580 978 629 1042 l 416 766 l 427 753 m 159 753 q 401 914 269 827 q 477 1002 477 964 q 428 1041 477 1041 q 361 1026 386 1041 q 312 978 340 1014 l 148 766 l 159 753 z "},"΄":{"ha":681,"x_min":0,"x_max":0,"o":""},"΅":{"ha":681,"x_min":0,"x_max":0,"o":""},"Ά":{"ha":1032,"x_min":0,"x_max":0,"o":""},"·":{"ha":500,"x_min":0,"x_max":0,"o":""},"Έ":{"ha":1199,"x_min":0,"x_max":0,"o":""},"Ή":{"ha":1459,"x_min":0,"x_max":0,"o":""},"Ί":{"ha":829,"x_min":0,"x_max":0,"o":""},"Ό":{"ha":1255,"x_min":0,"x_max":0,"o":""},"Ύ":{"ha":1273,"x_min":0,"x_max":0,"o":""},"Ώ":{"ha":1308,"x_min":0,"x_max":0,"o":""},"ΐ":{"ha":471,"x_min":0,"x_max":0,"o":""},"Α":{"ha":1032,"x_min":0,"x_max":0,"o":""},"Β":{"ha":1034,"x_min":0,"x_max":0,"o":""},"Γ":{"ha":892,"x_min":0,"x_max":0,"o":""},"Δ":{"ha":1013,"x_min":0,"x_max":0,"o":""},"∆":{"ha":1013,"x_min":0,"x_max":0,"o":""},"Ε":{"ha":981,"x_min":0,"x_max":0,"o":""},"Ζ":{"ha":939,"x_min":0,"x_max":0,"o":""},"Η":{"ha":1243,"x_min":0,"x_max":0,"o":""},"Θ":{"ha":1120,"x_min":0,"x_max":0,"o":""},"Ѳ":{"ha":1120,"x_min":0,"x_max":0,"o":""},"Ι":{"ha":614,"x_min":0,"x_max":0,"o":""},"Κ":{"ha":1112,"x_min":0,"x_max":0,"o":""},"Λ":{"ha":1025,"x_min":0,"x_max":0,"o":""},"Μ":{"ha":1407,"x_min":0,"x_max":0,"o":""},"Ν":{"ha":1129,"x_min":0,"x_max":0,"o":""},"Ξ":{"ha":1044,"x_min":0,"x_max":0,"o":""},"Ο":{"ha":1116,"x_min":0,"x_max":0,"o":""},"Π":{"ha":1225,"x_min":0,"x_max":0,"o":""},"Ρ":{"ha":961,"x_min":0,"x_max":0,"o":""},"Σ":{"ha":925,"x_min":0,"x_max":0,"o":""},"Τ":{"ha":931,"x_min":0,"x_max":0,"o":""},"Υ":{"ha":996,"x_min":0,"x_max":0,"o":""},"Φ":{"ha":1241,"x_min":0,"x_max":0,"o":""},"Χ":{"ha":1092,"x_min":0,"x_max":0,"o":""},"Ψ":{"ha":1377,"x_min":0,"x_max":0,"o":""},"Ѱ":{"ha":1377,"x_min":0,"x_max":0,"o":""},"Ω":{"ha":1194,"x_min":0,"x_max":0,"o":""},"Ω":{"ha":1194,"x_min":0,"x_max":0,"o":""},"Ϊ":{"ha":614,"x_min":0,"x_max":0,"o":""},"Ϋ":{"ha":996,"x_min":0,"x_max":0,"o":""},"ά":{"ha":924,"x_min":0,"x_max":0,"o":""},"έ":{"ha":729,"x_min":0,"x_max":0,"o":""},"ή":{"ha":906,"x_min":0,"x_max":0,"o":""},"ί":{"ha":471,"x_min":0,"x_max":0,"o":""},"ΰ":{"ha":823,"x_min":0,"x_max":0,"o":""},"α":{"ha":924,"x_min":0,"x_max":0,"o":""},"β":{"ha":896,"x_min":0,"x_max":0,"o":""},"γ":{"ha":777,"x_min":0,"x_max":0,"o":""},"δ":{"ha":865,"x_min":0,"x_max":0,"o":""},"ε":{"ha":729,"x_min":0,"x_max":0,"o":""},"ζ":{"ha":629,"x_min":0,"x_max":0,"o":""},"η":{"ha":906,"x_min":0,"x_max":0,"o":""},"θ":{"ha":871,"x_min":0,"x_max":0,"o":""},"ѳ":{"ha":871,"x_min":0,"x_max":0,"o":""},"ι":{"ha":471,"x_min":0,"x_max":0,"o":""},"κ":{"ha":892,"x_min":0,"x_max":0,"o":""},"λ":{"ha":718,"x_min":0,"x_max":0,"o":""},"μ":{"ha":921,"x_min":-43,"x_max":985,"o":"m 264 -153 q 141 -294 264 -294 q 73 -270 100 -294 l -16 -191 q -43 -123 -43 -166 q -25 -62 -43 -104 q 18 29 -3 -16 q 76 189 62 127 l 186 677 l 407 687 l 491 587 l 393 159 q 385 103 387 130 q 519 171 463 103 l 633 677 l 854 687 l 938 587 l 844 171 q 829 94 833 122 q 918 118 871 96 l 985 22 l 970 -39 q 774 -94 836 -94 q 639 -54 684 -94 l 580 -3 q 389 -98 489 -98 q 276 -52 316 -98 l 262 -52 q 263 -102 262 -66 q 264 -153 264 -135 m 182 39 l 200 39 q 309 -8 240 -8 q 513 104 416 -8 l 528 104 q 694 -4 551 -4 q 884 48 753 -4 l 893 89 q 823 75 859 75 q 739 151 739 75 q 756 254 739 179 l 849 667 l 846 669 l 646 661 l 534 163 q 386 84 469 84 q 296 169 296 84 q 306 243 296 201 l 402 667 l 400 669 l 199 661 l 92 185 q 33 22 78 123 q -9 -65 12 -21 q -27 -123 -27 -105 q -2 -182 -27 -160 q 61 -205 24 -205 q 176 -72 176 -205 q 175 -18 176 -60 q 182 39 174 5 z "},"ν":{"ha":764,"x_min":0,"x_max":0,"o":""},"ξ":{"ha":678,"x_min":0,"x_max":0,"o":""},"ο":{"ha":865,"x_min":0,"x_max":0,"o":""},"π":{"ha":898,"x_min":0,"x_max":0,"o":""},"ρ":{"ha":879,"x_min":0,"x_max":0,"o":""},"ς":{"ha":699,"x_min":0,"x_max":0,"o":""},"–":{"ha":968,"x_min":65,"x_max":998,"o":"m 998 362 l 974 253 l 155 253 l 65 326 l 94 452 l 929 452 l 998 362 m 908 435 l 107 435 l 86 343 l 887 343 l 908 435 z "},"—":{"ha":1276,"x_min":68,"x_max":1307,"o":"m 1307 362 l 1282 253 l 159 253 l 68 326 l 97 452 l 1238 452 l 1307 362 m 1217 435 l 110 435 l 90 343 l 1196 343 l 1217 435 z "},"‘":{"ha":372,"x_min":124,"x_max":534,"o":"m 534 905 q 402 823 452 869 q 355 774 370 793 q 383 753 374 764 l 457 665 q 473 614 473 646 q 429 517 473 557 q 329 477 386 477 q 248 503 276 477 l 158 581 q 124 682 124 611 q 229 907 124 802 q 440 1046 315 995 l 515 954 l 534 905 m 444 991 l 431 1024 q 237 892 317 976 q 140 682 140 791 q 249 568 140 568 q 343 605 302 568 q 385 695 385 642 q 278 772 385 772 l 229 772 q 444 991 271 913 z "},"’":{"ha":372,"x_min":123,"x_max":535,"o":"m 295 764 l 210 839 q 186 901 186 859 q 232 1004 186 961 q 338 1046 278 1046 q 433 1013 404 1046 l 509 922 q 535 833 535 891 q 435 616 535 720 q 232 480 350 528 l 147 551 l 123 614 q 308 753 254 673 q 295 764 301 757 m 349 703 q 447 915 447 805 q 338 1029 447 1029 q 244 991 286 1029 q 203 901 203 954 q 310 825 203 825 l 358 825 q 144 605 315 684 l 157 572 q 349 703 267 619 z "},"‚":{"ha":368,"x_min":-69,"x_max":343,"o":"m 103 -5 l 18 70 q -5 132 -5 90 q 40 235 -5 192 q 146 277 86 277 q 241 243 212 277 l 317 153 q 343 64 343 122 q 243 -153 343 -50 q 40 -289 158 -241 l -45 -218 l -69 -155 q 116 -16 62 -96 q 103 -5 109 -12 m 157 -66 q 255 146 255 36 q 146 260 255 260 q 52 222 94 260 q 11 132 11 184 q 118 56 11 56 l 166 56 q -47 -164 123 -85 l -35 -197 q 157 -66 75 -150 z "},"“":{"ha":717,"x_min":134,"x_max":871,"o":"m 871 905 q 695 773 751 852 q 720 753 710 765 l 793 669 q 810 614 810 648 q 767 517 810 557 q 667 477 724 477 q 583 504 614 477 l 496 581 q 481 596 486 589 q 438 518 475 552 q 338 477 393 477 q 256 504 286 477 l 168 581 q 134 682 134 610 q 238 908 134 802 q 450 1046 323 995 l 525 954 l 543 905 q 367 773 423 852 q 391 754 382 765 l 462 672 l 462 682 q 566 907 462 802 q 778 1046 653 995 l 852 954 l 871 905 m 781 991 l 768 1024 q 574 892 655 976 q 478 682 478 791 q 587 568 478 568 q 681 605 640 568 q 722 695 722 642 q 616 772 722 772 l 567 772 q 781 991 609 913 m 453 991 l 440 1024 q 246 892 326 976 q 151 682 151 791 q 259 568 151 568 q 353 605 312 568 q 394 695 394 643 q 288 772 394 772 l 239 772 q 453 991 282 913 z "},"”":{"ha":717,"x_min":134,"x_max":873,"o":"m 677 1046 q 773 1010 743 1046 l 846 923 q 873 833 873 890 q 773 616 873 720 q 570 480 688 528 l 486 551 l 461 614 q 647 754 593 673 l 635 762 l 549 838 q 545 841 547 839 q 546 833 546 840 q 446 616 546 720 q 243 480 361 528 l 158 551 l 134 614 q 319 754 265 673 l 307 762 l 222 838 q 197 901 197 860 q 243 1004 197 961 q 349 1046 289 1046 q 445 1010 414 1046 l 519 923 q 526 914 522 920 q 576 1008 531 970 q 677 1046 621 1046 m 785 915 q 677 1029 785 1029 q 583 991 624 1029 q 541 901 541 954 q 648 825 541 825 l 696 825 q 483 605 654 684 l 495 572 q 688 703 607 620 q 785 915 785 804 m 458 915 q 349 1029 458 1029 q 255 991 296 1029 q 214 901 214 954 q 320 825 214 825 l 369 825 q 155 605 326 684 l 168 572 q 359 703 278 620 q 458 915 458 804 z "},"„":{"ha":713,"x_min":-66,"x_max":674,"o":"m 477 230 q 574 194 544 230 l 647 106 q 674 17 674 74 q 574 -201 674 -97 q 371 -336 489 -288 l 287 -266 l 262 -202 q 448 -62 394 -144 l 435 -54 l 350 21 q 346 24 348 22 q 347 17 347 23 q 246 -201 347 -97 q 43 -336 161 -288 l -41 -266 l -66 -202 q 119 -62 66 -144 l 108 -54 l 22 21 q -3 85 -3 43 q 43 187 -3 144 q 149 230 90 230 q 245 194 215 230 l 319 106 q 326 98 323 103 q 376 192 332 153 q 477 230 421 230 m 586 98 q 477 213 586 213 q 383 175 425 213 q 342 85 342 137 q 449 9 342 9 l 497 9 q 283 -212 454 -133 l 296 -244 q 488 -113 408 -197 q 586 98 586 -12 m 258 98 q 149 213 258 213 q 55 175 96 213 q 14 85 14 137 q 121 9 14 9 l 170 9 q -45 -212 127 -133 l -32 -244 q 160 -113 79 -197 q 258 98 258 -12 z "},"†":{"ha":665,"x_min":149,"x_max":768,"o":"m 768 643 q 692 574 768 574 q 608 589 663 574 q 522 609 543 606 q 488 357 515 566 q 444 108 467 205 q 378 47 429 47 q 335 60 350 47 l 249 133 q 235 174 235 145 q 251 241 235 186 l 353 585 q 286 574 304 574 q 249 585 262 574 l 164 661 q 149 705 149 675 q 233 782 149 782 q 312 764 243 782 q 393 745 363 751 q 402 927 394 818 q 479 996 416 996 q 530 978 515 996 l 606 890 q 614 861 614 880 q 591 791 614 841 q 583 776 588 786 q 640 782 612 782 q 683 766 669 782 l 755 680 q 768 643 768 668 m 680 724 q 640 765 680 765 q 543 747 610 765 q 441 725 472 729 q 503 876 465 795 q 526 943 526 924 q 479 979 526 979 q 419 924 429 979 q 410 726 410 809 q 308 748 378 730 q 233 765 242 765 q 165 705 165 765 q 206 664 165 664 q 292 679 227 664 q 404 701 368 696 l 267 235 q 252 174 252 182 q 298 137 252 137 q 357 191 344 137 q 401 445 380 290 l 435 700 q 525 679 456 697 q 612 664 580 664 q 680 724 680 664 z "},"‡":{"ha":665,"x_min":78,"x_max":767,"o":"m 767 644 q 692 574 767 574 q 607 589 662 574 q 522 609 542 606 q 516 484 524 567 l 511 458 q 507 449 509 454 q 568 458 551 458 q 611 443 598 458 l 685 355 q 696 319 696 342 q 621 250 696 250 q 539 267 598 250 q 452 288 475 286 q 443 98 452 210 q 374 37 429 37 q 330 50 346 37 l 245 123 q 231 161 231 136 q 266 259 231 184 q 214 250 227 250 q 179 261 191 250 l 92 338 q 78 380 78 351 q 161 458 78 458 q 241 444 186 458 q 323 424 308 427 q 328 541 321 463 q 338 581 330 555 q 285 574 301 574 q 249 586 263 574 l 165 659 q 149 705 149 673 q 233 782 149 782 q 309 766 252 782 q 393 745 378 747 q 401 927 393 818 q 478 996 415 996 q 530 978 515 996 l 605 890 q 614 862 614 880 q 592 795 614 840 q 583 777 589 789 q 639 782 605 782 q 682 766 669 782 l 755 680 q 767 644 767 666 m 679 725 q 639 765 679 765 q 542 747 609 765 q 440 725 471 729 q 505 881 469 807 q 526 943 526 924 q 478 979 526 979 q 418 924 429 979 q 409 726 410 809 q 307 748 375 730 q 233 765 244 765 q 165 705 165 765 q 205 664 165 664 q 292 679 227 664 q 402 700 366 696 q 374 625 388 654 q 342 477 338 553 q 338 405 343 449 q 238 426 302 409 q 161 441 178 441 q 94 380 94 441 q 134 340 94 340 q 219 357 153 340 q 333 379 294 375 q 269 224 315 326 q 248 161 248 178 q 295 127 248 127 q 355 180 342 127 q 364 379 363 292 q 465 357 396 375 q 541 340 526 340 q 608 400 608 340 q 568 441 608 441 q 483 426 553 441 q 370 404 448 418 q 423 542 387 450 q 430 621 429 570 q 435 700 432 676 q 524 679 456 697 q 612 664 578 664 q 679 725 679 664 z "},"•":{"ha":602,"x_min":84,"x_max":596,"o":"m 596 332 q 535 178 596 241 q 385 115 475 115 q 247 166 304 115 l 153 249 q 84 413 84 310 q 148 573 84 507 q 304 638 211 638 q 466 567 405 638 l 549 470 q 596 332 596 414 m 508 413 q 450 561 508 500 q 304 621 391 621 q 159 561 218 621 q 101 413 101 500 q 159 266 101 326 q 304 205 218 205 q 450 266 391 205 q 508 413 508 326 z "}}}
